<?xml version="1.0" encoding="UTF-8"?>
<svg id="a" data-name="Layer 1" xmlns="http://www.w3.org/2000/svg" width="419.08" height="492.64" viewBox="0 0 419.08 492.64">
  <path d="M157.67,143.99c-.86-2.34-1.86-4.53-4.09-5.99-.89-.58-1.56-1.59-2.12-2.53-.84-1.41-.57-3.4.79-4.23,1.47-.9,3.29-2.04,4.82-1.86,2.33.27,4.39-.04,6.55-.67,6.87-2,10.61.25,12.22,7.26.25,1.08.46,2.17.59,2.8,4.62,3.58,8.82,6.92,13.15,10.1.7.51,1.95.29,3.1.42-2.23-10.95-20.32-31.89-33.91-39.44-.95.67-1.99,1.48-3.1,2.17-7.49,4.7-15.04.51-16.28-6.37-.51-2.84-1.16-5.61-2.89-8.15-1.54-2.26-.4-4.9,2.2-5.09,3.83-.29,7.36-1.58,11.05-2.31,3.89-.78,9.08,2.92,10.44,6.97.21.63.49,1.34.4,1.96-.68,4.91,2.18,7.61,5.62,10.54,10.82,9.22,20.43,19.56,27.08,32.31.19.36.61.6.97.93,1.3-.7.8-1.98.66-2.87-.84-5.08-1.78-10.14-2.83-15.18-.48-2.3-1.85-4.02-4.11-4.99-1.65-.7-3.22-1.58-4.8-2.43-3.07-1.65-5.21-4.23-6.84-7.23-1.63-2.99-1.78-5.98.33-8.86.66-.9,1.29-1.83,1.86-2.64.42-6.09-2.49-10.34-6.91-13.87-2.61-2.08-5.1-4.3-7.85-6.63-1.35.97-2.39,1.74-3.44,2.48-4.2,2.93-8.64,2.9-12.24-.63-2.7-2.65-5.15-5.49-8.13-7.9-2.7-2.18-1.81-5.97,1.68-6.72,3.9-.84,7.69-2.18,11.61-2.76,3.69-.54,7.08,1.28,8.29,4.56,2.06,5.62,6.6,8.89,10.43,12.88,1.95,2.03,4.01,3.97,6.74,5.47-.24-.78-.41-1.58-.73-2.33-3.55-8.24-7.03-16.52-10.75-24.69-1.48-3.25-3.42-6.29-5.25-9.37-1.19-2-2.89-3.31-5.36-3.64-1.53-.21-3.12-.66-4.48-1.38-4.06-2.13-6.61-5.28-6.24-10.2.13-1.75.02-3.51.02-5.54,1.2-.59,2.44-1.77,3.5-1.62,3.3.45,6.59,1.21,9.77,2.2,2.56.81,3.91,2.93,4.16,5.62.1,1.1.29,2.4-.15,3.32-2.11,4.41.08,7.57,2.45,11.04,2.13,3.12,3.76,6.63,5.27,10.11,3.31,7.61,6.4,15.32,9.58,22.98.42,1.02.89,2.01,1.32,2.96,1.74-.17,1.16-1.35,1.18-2.06.16-4.93.17-9.87.35-14.8.1-2.7-.55-4.8-3.21-6.05-2.06-.97-3.85-2.43-4.73-4.6-1.73-4.25-1.69-8.36,1.59-11.94,2.08-2.27,4.69-4.01,4.98-7.6.13-1.62,2.62-2.78,4.28-2.57,1.66.2,3.19.99,3.57,2.65.58,2.57,2.37,4.22,3.8,6.21,3.96,5.52,3.32,12.81-2.18,16.81-3.57,2.6-4.81,5.69-4.91,9.63-.15,6.06-.27,12.12-.18,18.17.06,3.73.8,4.45,4.79,5.05,4.7.7,8.58,2.51,10.52,6.91,2.06.14,2.48-1.41,3.31-2.34,2.83-3.15,6.42-4.99,10.49-5.6,2.69-.4,5.21-1,7.71-2.1,3.19-1.4,5.25.15,5.27,3.62,0,.67.11,1.55-.25,1.96-2.53,2.92-1.97,6.79-3.22,10.07-2.01,5.27-6.21,8.09-11.49,9.4-1.49.37-3.09.35-4.79.53-3.56,4.91-6.83,9.84-7.48,16.19,5.53-.76,7.73-1.49,10.84-3.44.94-.59,1.87-1.25,2.89-1.66,2.08-.83,4.25.21,4.77,2.36.41,1.72.45,3.52.77,5.27.06.31.65.67,1.03.72.35.04.96-.21,1.09-.5.36-.8.6-1.67.77-2.53.88-4.39,1.59-8.83,2.66-13.18.47-1.9,1.46-3.76,2.6-5.37.48-.69,1.96-1,2.92-.91.58.06,1.34,1.16,1.52,1.91.32,1.28.34,2.66.33,4-.01,5.84.48,11.62,1.08,17.44,1.31,12.51,1.56,25.07-.8,37.53-.16.84-.02,1.73-.02,3.33,1.05-.99,1.74-1.49,2.24-2.14,4.81-6.21,9.48-12.53,14.43-18.64,2.35-2.9,2.62-5.83,2.17-9.39-1.27-10.01-2.2-20.06-3.17-30.1-.21-2.22-.28-4.52.02-6.72,1.37-10.06.92-20.16,1.06-30.25.03-2.46.2-4.94.65-7.35.16-.87,1.28-2.01,2.11-2.17.87-.16,2.24.48,2.84,1.22,1.1,1.37,1.95,3.01,2.65,4.65,4.02,9.37,6.33,19.14,6.89,29.33.52,9.45.23,18.84-1.48,28.16-.15.81-.25,1.63-.6,4,1.53-1.84,2.12-2.43,2.58-3.11,6.01-8.96,11.24-18.37,16.02-28.04.9-1.83,1.79-3.66,1.05-5.78-3.19-9.25-2.9-19.02-4.22-28.54-1.42-10.22-3.16-20.4-3.25-30.76-.01-1.26.18-2.53.27-3.69,2.41-.72,3.22.79,4.02,2.06,5.14,8.28,9.08,17.05,10.11,26.85.52,4.9.75,9.83,1.12,14.74.08,1.03.18,2.06.29,3.27.73-.43,1.28-.56,1.42-.86,1.97-4.52,3.96-9.04,5.79-13.61,2.6-6.48,1.8-13.17,1.4-19.93-.68-11.42-.44-22.85,1.5-34.17.93-5.39,3.01-10.32,6.42-14.65.99-1.26,2.05-2.46,4.51-1.54.45,1.54,1.43,3.42,1.49,5.32.27,9.18,1.58,18.33.67,27.54-.83,8.34-2.89,16.32-6.2,24.01-4.53,10.51-9.01,21.04-13.49,31.57-.24.57-.34,1.21-.51,1.85,1.57.58,2.09-.69,2.69-1.42,8.59-10.46,18.65-19.41,28.98-28.07,1.5-1.26,3.15-3.33,5.23-2.05,2.59,1.6.79,4.14.18,6.09-1.7,5.42-4.56,10.25-8.47,14.39-8.57,9.08-18.47,16.42-29.8,21.62-3.74,1.72-6.16,3.96-7.89,7.61-4.92,10.35-10.67,20.24-17.04,29.78-.49.73-.89,1.52-1.55,2.65.93,0,1.54.17,1.98-.03,11.05-4.95,22.42-9.23,32.97-15.26,4.67-2.67,9.31-5.39,13.96-8.09,1.35-.78,2.67-1.65,4.08-2.32,1.32-.63,2.82.64,2.5,2.09-.23,1.08-.46,2.26-1.05,3.15-1.6,2.42-3.1,5.02-5.18,6.98-5.71,5.38-11.63,10.55-17.61,15.64-3.45,2.93-7.52,4.95-11.89,6.15-5.19,1.42-10.39,2.95-15.69,3.76-3.92.6-8.01.12-12.65.12-7.07,7.41-13.07,16.35-20.07,24.69,1.7.9,2.14-.54,2.84-1.07,5.54-4.2,10.92-8.63,16.56-12.68,6.56-4.71,14.01-6.93,22.11-7.04,3.37-.04,6.73-.37,10.09-.47,1.55-.05,3.14,0,4.67.24,2.16.34,2.97,2.24,1.61,3.99-1.36,1.76-2.93,3.39-4.57,4.9-4.8,4.38-9.68,8.66-14.79,13.22,2.07,9.56,3.5,19.24,1.17,28.86,2.16.61,2.8-.49,3.56-1.24,3.21-3.14,6.28-6.43,9.59-9.45,2.49-2.27,5.17-4.35,9.05-3.05.8.27,2.14-.45,2.99-1.05,2-1.44,3.81-3.14,5.77-4.64,2.36-1.81,4.82-2.73,7.01.24,3.32-1.46,5.18-4.14,7.67-5.98,1.8-1.33,3.47-2.89,5.42-3.95,2.52-1.37,5.05,0,5.56,2.83.27,1.52.22,3.1.31,4.57,1.38.99,2.21.06,2.92-.7,3.37-3.6,6.65-7.3,10.04-10.89,1.67-1.77,2.15-1.64,4.75.67.12.11.42.01.51.01,4.64-5.81,9.16-11.65,13.89-17.32,2.44-2.92,5.21-5.57,7.89-8.29.78-.79,1.68-1.59,2.68-1.98.66-.26,1.72,0,2.38.39.33.19.41,1.32.18,1.83-.46,1-1.18,1.89-1.87,2.78-2.28,2.97-3.36,6.3-3.19,10.04.09,2.02-.05,4.06.18,6.05.7,6.05.87,12.08.02,18.12-.09.64.11,1.31.18,2.1.69.09,1.32.27,1.94.24,1.96-.08,3.08.96,3.05,2.77-.04,2.9-.28,5.81-.65,8.68-.25,1.95-.89,3.85-1.34,5.72,1.96.86,2.67-.69,3.76-1.23,2.59-1.29,4.68-.22,4.41,2.61-.25,2.64-.88,5.32-1.77,7.82-1.35,3.78-3.08,7.43-4.63,11.08.92,1.94,3.68,1.92,4,4.34.32,2.38-.28,4.59-1.51,6.42-2.87,4.27-5.99,8.37-9.11,12.48-1.19,1.56-2.62,2.93-4,4.46.68.36,1.03.65,1.42.73,3.93.79,4.41,1.56,2.76,4.58-.32.59-.84,1.07-1.14,1.66-.19.36-.14.84-.22,1.49,5.26.78,8.56,5.19,13.19,7.27.68.31,1.35,1.37,1.44,2.15.33,2.97,2.1,4.25,4.8,4.8.86.17,1.68.63,2.49,1.01,1.59.75,2.42,1.96,2.09,3.77-.19,1.07-.44,2.13-.73,3.47,1.98.9,3.82,1.65,5.57,2.55,1.63.84,2.11,2.29,1.3,3.95-.57,1.17-1.34,2.23-2.18,3.61,6.28,4.03,13.58,6.15,18.78,12.2-2.91,1.9-5.65.52-8.17.88-2.43.34-4.88.64-7.28,1.15-2.63.56-5.21,1.33-7.84,2.03-.97,1.51-1.64,3.32-2.93,4.36-1.32,1.07-3.28,1.33-4.92,2.03-1.42.61-3.31.97-4.08,2.08-2.24,3.23-5.49,4.52-8.96,5.53-1.57.45-2.91.87-3.49,2.66-.62,1.92-2.4,2.65-4.19,2.97-3.95.72-7.93,1.27-12.04,1.91-.19,1.14-.41,2.42-.66,3.93-4.8,2.2-9.64.43-14.24.07-.51.47-1.02.71-1.13,1.07-.96,3.02-3.1,3.59-5.84,2.85-2.16-.58-4.37-1.09-6.42-1.95-3.72-1.55-7.34-3.34-11.3-5.17-.6.75-1.15,1.66-1.9,2.34-1.18,1.06-2.56.74-3.75.02-5.19-3.14-10.32-6.38-14.69-10.66-6.1-5.98-12.07-12.06-16.76-19.28-.71-1.09-1.73-1.98-2.73-3.09-4.05.91-7.95,1.79-11.86,2.67.05,1.57,1.36,1.63,2.28,2.07,1.82.87,3.64,1.76,5.51,2.51,8.99,3.59,16.13,9.56,22.36,16.84,6.91,8.07,10.56,17.65,13.22,27.69.86,3.24-.21,4.67-3.84,5.91-7.21,2.46-14.45,4.85-21.66,7.31-.37.13-.62.61-1.24,1.24.95.83,1.84,1.75,2.87,2.47,3.68,2.57,7.42,5.05,11.13,7.59,3.37,2.31,6.15,5.22,8.52,8.54,4.47,6.24,8.07,12.94,10.8,20.11.48,1.25.84,2.56,1.1,3.87.28,1.41-.78,2.72-2.23,2.77-1.11.04-2.27.04-3.34-.2-9.18-2.12-18.35-4.25-27.5-6.47-13.04-3.17-25.02-8.49-35-17.72-1.32,1.35-.15,2.24.26,3.06,4.26,8.6,5.96,17.78,6.66,27.27.8,10.77-.88,20.98-5.66,30.72-1.87,3.82-3.17,7.92-4.95,11.79-1.59,3.45-3.2,6.96-5.32,10.09-2.6,3.81-4.49,7.7-4.78,12.36-.11,1.76-.65,3.52-1.19,5.21-.42,1.32-2.12,1.85-3.37,1.15-.97-.54-1.95-1.15-2.71-1.94-1.24-1.29-2.44-2.66-3.42-4.15-7.74-11.89-14.57-24.23-18.67-37.91-1.69-5.64-2.83-11.37-1.98-17.25.77-5.32-1.02-9.1-5.73-11.75-9.54-5.38-15.61-14.13-21.23-23.04-4.51-7.15-5.78-15.48-6.33-23.84-.12-1.75-.02-3.51-.02-5.18-1.93-.47-2.32.82-2.95,1.64-3.29,4.26-6.42,8.65-9.84,12.81-7.16,8.72-15.92,15.08-27.05,17.87-2.82.71-5.54,1.84-8.33,2.66-1.93.57-3.9,1.16-5.89,1.34-3.32.31-5.16-.93-5.92-4.15-1.45-6.12-2.54-12.31-1.82-18.66.18-1.55.57-3.13.44-4.66-.18-2.16-.75-4.29-1.29-7.15-4.27,5.11-7,9.63-5.28,16.21,1.34,5.14,1.61,10.62,1.91,15.97.31,5.59.08,11.22.08,16.83,0,1.12.06,2.26-.12,3.35-.09.56-.65,1.45-1.04,1.47-.77.05-1.77-.19-2.31-.7-.79-.74-1.33-1.79-1.87-2.77-3.54-6.37-5.63-13.17-6.07-21.58-.91,1.88-1.5,2.85-1.86,3.9-1.67,4.81-1.86,9.72-.37,14.57,3.22,10.45,1.88,20.87.09,31.3-.13.73-.9,1.72-1.55,1.88-.66.16-1.79-.34-2.27-.92-2.77-3.42-4.07-7.5-4.44-11.8-.47-5.59-.56-11.19.69-16.75.89-3.93,1.27-7.97,2.15-11.9.58-2.61,1.64-5.11,2.48-7.66.84-2.53,1.68-5.05,2.51-7.54-1.64-1.14-2.23.28-2.87.9-3.88,3.78-8.12,7.13-12.89,9.67-2.73,1.46-5.76,2.45-8.74,3.35-1.14.34-2.54-.16-3.64-.26-.85-2.11-.02-3.43,1.03-4.65,3.12-3.61,6.78-6.45,11.13-8.53,4.24-2.03,8.33-4.39,12.43-6.7,1.36-.77,2.69-1.68,3.81-2.76,6.32-6.11,11.65-13.01,16.02-20.65.19-.33.02-.85.02-1.71-.84.09-1.71.03-2.46.29-6.82,2.41-14.02,3.03-21.06,4.36-.65.12-1.41.21-1.99-.02-.76-.31-1.57-.83-2-1.49-.24-.36.05-1.41.45-1.78,1.48-1.35,2.97-2.75,4.69-3.74,5.58-3.21,11.7-4.42,18.1-4.37.67,0,1.36.05,2.01.19,6.57,1.39,10.77-1.37,13.1-7.44-.67-1.74-2.19-1.11-3.43-1.2-3.12-.23-6.26-.23-9.35-.68-2.11-.31-2.4-1.06-3.07-4.73-6.83.54-13.77,2.7-20.6,1.09-6.5-1.53-12.77-4.08-19.5-6.3-3.21,2.08-4.6,5.49-5.68,9.54,1.11,1.02,2.27,1.99,3.32,3.08,3.44,3.58,4.01,7.62,1.24,11.58-1.79,2.55-3.85,4.88-5.28,7.71-.91,1.79-3.2,1.92-4.58.46-.75-.79-1.84-1.83-1.81-2.72.16-4.75-3.42-7.61-5.25-11.68-3.36.55-5.84,2.18-8.17,4.36-1.99,1.87-4.46,1.1-5.2-1.41-.69-2.35-1.26-4.73-1.82-7.1-.76-3.19.05-6.14,3-7.5,3.69-1.71,5.93-4.46,7.88-7.79,1.12-1.91,2.73-3.54,4.31-5.53-1.68-2.21-3.38-4.44-5.37-7.05-1.49.29-3.26.46-4.89,1.01-2.44.83-4.5,2.17-4.32,5.26.03.44-.1.89-.21,1.33-1.96,8.16-9.24,11.57-16.54,7.56-2.52-1.39-4.62-3.18-7.93-2.58-1.9.34-3.2-2.95-1.94-4.65,1.99-2.69,3.99-5.4,6.27-7.84,4.06-4.34,9.41-5.11,14.72-2.37.98.51,1.87,1.21,3,1.95,5.32-1.36,10.68-2.73,15.66-4,.52-.87.82-1.23.96-1.64,2.12-6.43,5.23-8.84,11.8-8.32,3.3.26,6.53,1.36,10.96,2.34.93-.3,3.03-.98,6.15-2-6.41-2.53-11.93-4.64-17.41-6.88-5.38-2.2-10.71-4.51-16.15-6.81-1.39,1.38-2.41,2.55-3.59,3.52-5.16,4.25-11.51,3.48-15.16-2.06-1.6-2.42-2.83-5.04-5.24-6.86-.63-.48-.88-1.53-1.16-2.37-.42-1.24.34-3.01,1.62-3.27,4.14-.85,8.29-1.81,12.48-2.16,3.8-.32,7.23,1.25,9.03,4.76,1.59,3.11,4.13,4.55,7.14,5.68,2.31.87,4.54,1.93,6.81,2.91,2.05.88,4.1,1.76,6.55,2.81,1.32-1.96,2.31-4.23,5.05-4.81,1.41-.3,2.63-1.61,3.85-2.58,2.22-1.77,4.79-2.47,7.54-2.41,3.04.06,5.84.88,7.39,3.82,2.78,5.28,7.48,6.68,12.97,6.7,4.47.02,8.81-.33,13.03-3.01-14.53-4.94-28.67-9.76-43.13-14.68-1.44.91-3.11,2-4.82,3.03-3.05,1.83-6.02,1.51-8.8-.57-1.07-.8-2.13-1.69-2.95-2.73-1.94-2.46-3.75-4.94-6.59-6.6-1.15-.67-1.64-2.46-2.69-4.15,1.39-.88,2.38-1.92,3.53-2.15,3.5-.72,7.06-1.22,10.61-1.63,3.21-.37,6.24.58,9.13,1.88,2.15.97,4.01,2.63,4.16,4.95.24,3.69,2.67,4.98,5.45,6.07,5.23,2.04,10.45,4.1,15.75,5.92,8.27,2.85,16.59,5.52,24.9,8.25,1.93.63,3.87,1.15,5.87.36.14-1.4-.99-1.31-1.75-1.63-5.15-2.2-10.45-4.11-15.41-6.67-7.48-3.86-13.66-9.41-18.74-16.13-3.54-4.68-6.7-9.57-7.93-15.44-.28-1.35-.63-2.66-2.91-2.83-2.37,2.61-3.85,6.74-8.27,7.66-3.92.82-7.57.37-11.07-1.48-3.93-2.08-4.88-6.22-6.51-9.83-2.26-.73-4.45-1.25-6.48-2.13-6.17-2.66-8.8-7.47-7.68-14.05.65-3.85,2.17-7.31,5.24-9.9.85-.71,1.74-1.38,2.78-2.2-.23-2.23-.45-4.43-.67-6.63-.49-4.73,1.11-8.79,3.9-12.53,2.38-3.19,5.4-4.62,9.36-3.86,1.29.25,2.59.51,4.31.86.09-1.05.39-1.91.16-2.59-.17-.51-.98-.89-1.58-1.16-5.12-2.28-8.62-5.68-7.98-11.93-1.97-1.04-3.79-1.88-5.49-2.91-7.05-4.27-9.47-10.63-6.71-18.44,1.03-2.92,2.76-5.6,4.3-8.31.76-1.34,1.81-2.5,2.7-3.7-.22-.85-.25-1.58-.58-2.12-2.73-4.47-1.5-8.63,1-12.64.82-1.32,1.87-2.52,2.9-3.7,4.13-4.71,9.32-5.93,15.26-4.43,1.27.32,2.51.77,4.02,1.24,1.05-1.68,1.95-3.18,2.91-4.65,2.1-3.24,4.66-6.06,8.02-8.03,5.38-3.15,10.54-1.99,14.1,3.15,1.69,2.44,2.8,5.13,2.93,8.13.09,2,.02,4.01.02,5.92,2.97,2.17,5.65,4.13,8.34,6.09,9.4-6.89,9.45-6.9,20.39-2.62,1.08-1.22,2.26-2.53,3.42-3.86,4.21-4.85,10.86-3.79,14.32-.08,1.35,1.45,2.42,3.22,3.32,5,.8,1.57,1.19,3.34,1.89,5.4,1.36-.17,2.68-.17,3.89-.52,4.57-1.32,8.42-.45,11.43,3.4.41.52.94.95,1.41,1.43.57,3.07,1.14,6.14,1.72,9.21.63,3.32-1.7,5.88-2.37,8.28,1.46,3.16,2.98,5.69,3.82,8.42,1.84,5.95.16,9.43-5.41,11.95-1.78.81-3.67,1.39-5.82,2.2,3.88,5.28,7.56,10.29,11.26,15.28.22.3.72.39,1.1.57,7.22-28.22,8.12-27.77,25.18-48.53-3.27-3.43-6.97-6.07-11.47-6.98-.73.33-1.18.45-1.53.7-6.23,4.62-8.58,4.66-14.97.21-.55-.38-1.05-.83-1.58-1.25ZM80.89,393.18c-9.64,3.24-13.33,5.65-15.27,9.97,6.27-1.95,10.62-4.81,15.23-10.02.4-.14.81-.25,1.19-.43.11-.05.12-.31.18-.47-.44.32-.88.63-1.32.95ZM133.39,150.78c-.49-2.1.17-3.96,1.12-5.79,2.02-3.89.71-7.42-1.4-10.73-1.45-2.26-4.02-3.42-5.65-2.75-2.46,1-3.96,2.86-4.35,5.52-.1.66-.11,1.36.02,2,.69,3.23,1.45,6.44,2.13,9.43,3.06.83,5.64,1.53,8.22,2.23,1.21,1.6,2.44,3.18,3.62,4.81,1.33,1.85,2.14,3.88,2.24,6.2.14,3.11-.75,4.45-3.56,5.68-3.6,1.58-7,.64-10.43-.5-2.84-1.85-5.43-3.97-7.32-6.83-1.37-2.07-1.5-4.22-.13-6.3.85-1.29,1.93-2.43,2.64-3.3-.84-2.89-1.57-5.45-2.34-7.99-.38-1.27-.54-2.74-1.32-3.72-2.21-2.81-5.16-4.31-8.84-3.64-3.28.59-6.07,3.43-6.5,6.89-.44,3.58-.81,7.31,2.97,9.61,1.72,1.04,3.62,1.78,5.35,2.81,1.11.66,2.33,1.43,3.03,2.46,1.65,2.44.14,5.02-2.81,4.99-1.11,0-2.23-.31-3.34-.33-2.36-.04-3.65,1.28-3.8,3.72-.25,4.13,2.35,7.42,6.52,7.95,4.23.54,8.04-.38,10.84-3.94,1.28-1.63,2.62-3.17,5.04-2.37,1.22,2.48,1.31,5.15,1.37,7.84.09,3.78,2.24,6.19,5.57,7.64,1.71.74,3.97-.26,4.22-2.07.24-1.71-.09-3.5-.11-5.26-.01-1.51-.22-3.11.18-4.53.55-1.97,3.09-2.33,4.23-.72.77,1.08,1.25,2.37,1.98,3.47,2.41,3.63,5.81,4.86,9.88,3.66,2.8-.83,4-2.7,3.63-5.56-.33-2.6-1.7-4.6-3.68-6.17-1.04-.82-2.26-1.42-3.46-2.02-1.41-.71-3.04-1.25-2.65-3.28.29-1.5,1.57-2.06,2.89-2.47.43-.13.89-.15,1.31-.28,3.63-1.15,4.45-2.17,3.98-5.69-.23-1.73-.76-3.5-1.53-5.07-1.43-2.89-3.61-3.79-6.67-3.04-2.46.59-4.5,1.89-6.22,3.75-1.86,2.01-3.91,3.71-6.88,3.67ZM370.02,160.75c-6.42,6.92-11.32,13.27-14.99,20.53-1.21,2.4-2.3,4.89-3.74,7.15-1.06,1.67-2.49,3.15-3.97,4.49-.51.46-1.8.52-2.46.2-.65-.32-1.17-1.31-1.34-2.1-.18-.83.15-1.76.21-2.65.05-.74.92-1.7-.64-2.15-1.75,1.64-3.5,3.37-5.36,4.97-1.36,1.16-2.81,2.23-4.33,3.18-1.19.75-2.69,1.06-3.68-.16-.62-.76-.87-2.01-.87-3.04,0-2.17,1.66-4.22.34-6.99-1.35.84-2.7,1.48-3.8,2.42-2.73,2.33-5.3,4.84-8.03,7.18-1.38,1.18-3.15,2.36-4.91,1.46-3.11-1.59-5.08-.12-7.08,1.88-.95.95-1.95,1.86-2.93,2.78-1.27,1.19-2.71,1.47-4.35.89-1.01-.36-2.05-.62-3.13-.94-14.56,12.64-24.24,27.96-29.55,46.58,1.43-.11,2.31-.13,3.17-.24,3.33-.46,6.66-1.31,9.99-1.35,8.06-.1,16.17-.84,24.16,1.03,2.18.51,4.43.7,6.65,1,2.9.4,4.19-.4,4.69-3.37.48-2.87.67-5.79.92-8.69.21-2.46.26-4.93.49-7.38.1-1.11.44-2.22,2.35-2.39,1.74,6.08-.34,12.24-.38,19.1,1.58-.85,2.64-1.19,3.39-1.86,3.34-3,6.56-6.12,9.88-9.14,5.29-4.81,8.93-10.43,10.5-17.59,1.09-5,3.21-9.78,4.99-14.61.35-.94,1.16-2.03,2.62-.83-.55,5.45-3.59,10.3-4.11,15.86,3.59-4.1,6.47-8.6,9.3-13.14,2.79-4.49,4.8-9.52,9.56-14.22-.21,2.02-.1,2.9-.4,3.6-1.35,3.07-2.63,6.2-4.29,9.12-6.57,11.58-14.68,22.01-23.88,31.62-.79.82-2.44,1.46-1.37,3.43.8-.25,1.62-.47,2.42-.76,8.04-2.94,15.64-6.77,23.05-11.04,2.72-1.57,5.51-3.02,8.32-4.41.6-.3,1.44-.1,2.9-.17-1.95,2.79-4.13,3.97-6.2,5.24-9.23,5.66-19.03,10.08-29.35,13.34-2.78.88-5.56,1.79-8.27,2.84-2.04.79-3.93,1.88-5.35,4.46,3.2.51,5.86.32,8.49.31,2.47,0,4.94-.15,7.41-.16,2.57,0,5.19-.41,8.24.39-1.71,1.97-3.64,1.6-5.25,2.02-1.51.4-3.08.64-4.64.78-1.79.16-3.59.14-5.38.2-1.62.05-3.26-.19-5.87.05,5.82,2.27,6.16,2.78,4.49,7.09-4.74,12.25-10.57,23.81-21.07,32.34-.61.5-1.01,1.27-1.93,2.47,5.87-.71,10.93-1.66,15.62-3.72,11.92-5.24,23.73-10.74,34.68-17.86,3.16-2.06,6.21-4.29,9.69-7.77-2.47.37-3.9.73-5.33.73-.79,0-1.94-.41-2.27-1-.32-.57-.06-1.85.42-2.4,1.33-1.5,2.87-2.83,4.41-4.13,5.2-4.36,9.67-9.37,13.58-14.89,1.25-1.77,2.66-3.53,2.8-5.87-.64-.14-1.1-.39-1.46-.29-1.78.48-3.58,2.99-5.33.67-1.22-1.62.64-3.3,1.43-4.84,1.03-1.99,2.32-3.86,3.28-5.88,1.64-3.44,3.13-6.94,4.63-10.44.33-.77.66-1.69-.83-2.33-1.34,1.23-2.77,2.61-4.28,3.88-1.02.86-2.19,1.85-3.6,1.06-1.47-.82-1.14-2.24-.73-3.57.26-.86.6-1.69.84-2.56,1.2-4.32,2.39-8.64,3.52-12.97.08-.32-.28-.76-.45-1.18-1.43.95-2.85,1.9-4.62,3.09-.55-1.1-1.21-1.83-1.23-2.58-.05-1.55.15-3.13.41-4.67,1.51-8.94,1.29-17.88.16-26.82-.13-1.05-.48-2.08-1-4.31ZM279.7,302.55c4.61,8.94,22.13,26.31,26.21,26.23.78-.92,1.61-1.88,2.68-3.14,6.71,3.19,12.53,7.98,19.9,10.07v-3.92c1.96-1.42,3.6-.31,5.28.14,4.53,1.22,8.91,3.17,13.75,2.85.39-.03.75-.37,1.19-.6v-4.25c2.43-.08,4.63-.13,6.82-.22,2.69-.11,5.4-.1,8.06-.45.94-.12,1.97-.98,2.58-1.79.6-.8.73-1.97,1.01-2.82,2.13-.51,3.9-.83,5.6-1.36,1.84-.57,4.09-.26,5.29-2.25-.35-1.07-.67-2.06-1.14-3.48,4.34-.96,8.21-1.82,11.96-2.65.18-1.53.3-2.62.45-3.89,6.06-3.22,12.99-4.03,19.9-6.36-2.57-2.28-5.43-3.02-7.94-4.37-4.8-2.58-6.98-1.6-3.81-9.54-1.37-.65-2.76-1.3-4.14-1.99-2.38-1.2-3.17-2.98-2.14-5.55.2-.51-.16-1.24-.28-2.03-.85-.36-1.65-.73-2.47-1.04-2.83-1.06-5.24-2.37-5.86-5.82-.2-1.09-1.51-2.11-2.52-2.89-1.23-.95-2.72-1.56-4.03-2.41-4.58-2.96-8.37-2.94-12.9.39-5.99,4.41-12.35,8.17-19.07,11.34-9.28,4.38-18.31,9.36-28.32,12.22,4.27.3,8.47.42,12.67.25,2.22-.09,4.43-.62,6.62-1.08,5.7-1.21,11.38-2.51,17.08-3.72,2.18-.46,4.39-.76,6.6-1.1.14-.02.32.28,1.06.95-6.93,3.52-14.36,3.99-22.23,6.11,2.42.54,4.05,1.03,5.72,1.26,4.22.58,8.49.84,12.67,1.63,4.47.85,8.85,1.07,13.3.05,2.18-.5,4.42-.7,6.64-1.05,3.89-.61,7.32-.56,10.79.34-5.02,1.78-9.8,1.85-15.05,3.05,4.4,1.17,8.08,2.12,11.74,3.14.79.22,1.73.51,1.19,2.03-13.09-.03-25.71-4.56-38.86-5.37.1,2.22,1.76,2.36,2.8,2.98,4.04,2.42,8.18,4.68,12.25,7.06.64.37,1.79.76.6,2.26-2.95-1.43-6.03-2.76-8.96-4.36-3.94-2.15-7.75-4.53-11.64-6.77-2.33-1.34-4.72-2.39-7.5-2.78-9.37-1.31-18.79-1.49-28.22-1.41-.74,0-1.88-.47-2.08,1.17.72.39,1.5.79,2.26,1.23,5.66,3.21,11.33,6.41,16.96,9.68.62.36,1.72.9.45,2.43-2.09-.97-4.33-1.89-6.45-3.03-2.97-1.59-5.8-3.43-8.77-5.01-3.17-1.68-6.38-3.31-9.67-4.71-1.38-.59-3.15-1.04-4.53-.7-4.54,1.13-9.04,2.5-13.52,5.07ZM196.69,332.16c.21,1.76.17,2.9.5,3.93,2.1,6.45,2.74,13.16,3.42,19.84.32,3.09,0,6.26-.13,9.39-.04.87-.41,1.75-1.95,1.6-.2-1.2-.52-2.48-.62-3.78-.49-6.03-.82-12.07-1.43-18.09-.29-2.88-.9-5.76-1.63-8.57-.69-2.65-1.75-3.34-4.29-3.38-2.44-.04-4.89,0-6.72,0-2.67,1.79-2.97,4.11-3.66,6.21-.91,2.76-1.5,5.67-2.73,8.29-2.52,5.38-3.54,11.11-4.28,16.88-1.28,10-.45,19.94,4.62,28.75,6.45,11.21,14.72,20.93,27.11,26.18,1.39.59,2.86.98,4.06,1.39,2.94-1.9,4.15-4.61,5.62-7.11,5.73-9.74,9.35-20.35,12.69-31.06.73-2.33,1.25-4.83,1.29-7.26.19-11.52-2.57-22.24-9.45-31.64-2.38-3.25-5.23-6.15-7.75-9.3-2.68-3.34-5.84-4.63-10.02-3.06-1.21.46-2.59.46-4.66.79ZM240.55,298.62c2.47,2.16,4.89,2.53,7.36,2.69,10.13.65,20.15.37,29.84-3.27,4.82-1.81,9.75-3.34,14.63-5.01,5.39-1.85,9.96-4.96,14.18-8.78,8.24-7.44,13.18-16.87,16.95-27.06.2-.54-.05-1.25-.1-2.01-.88-.38-1.66-.83-2.51-1.06-15.48-4.21-31.2-6.11-47.24-4.81-6.75.55-13.28,2.06-19.56,4.58-1.45.58-2.97,1.2-4.16,2.16-4.49,3.65-8.87,7.46-13.37,11.28.74,2.4,1.41,4.52,2.04,6.64.69,2.3.69,4.9,2.76,6.48,14.27-1.31,18.31-1.27,23.55.29-.77.38-1.3.84-1.87.9-5.34.53-10.69,1.01-16.04,1.47-1.76.15-3.63-.18-5.29,1.76-.37,4.26-.76,8.91-1.18,13.74ZM216.97,326.86c.21.91.33,2.02.73,3.02,2.7,6.79,7.27,12.29,12.25,17.49,5.21,5.44,11.73,8.96,18.42,12.18,12.73,6.14,25.78,7.14,39.15,2.32,4-1.44,7.93-3.09,11.87-4.69.82-.33,1.55-.87,2.16-1.22-4.85-18.77-13.82-33.35-31.21-41.6-3.65-1.73-7.32-3.39-10.95-5.16-6.32-3.09-13.26-3.41-19.9-4.92-1.4,2.49-2.42,4.75-3.85,6.72-1.29,1.8-3.03,3.28-4.54,4.92-1.58,1.72-3.95,2.82-4.78,5.72,4.51,1.97,8.79,3.84,13.06,5.72,9.5,4.19,16.89,10.9,22.87,19.26.5.7,1.14,1.49.1,2.31-.43-.11-.97-.09-1.25-.35-2.77-2.62-5.57-5.21-8.22-7.94-4.73-4.9-10.17-8.77-16.33-11.67-2.84-1.33-5.74-2.55-8.52-4.01-4.09-2.15-7.7-1.96-11.07,1.91ZM234.95,263.35c1.55-1.23,2.74-2.17,3.93-3.1,2.64-2.07,5.09-4.47,7.98-6.11,4.41-2.51,7.91-5.87,10.81-9.91,3.65-5.1,7.36-10.18,9.32-16.28.47-1.48,1.45-2.78,2.06-4.22,1.14-2.67,2.28-5.34,3.24-8.07,2.96-8.45,3.05-17.19,2.17-25.94-.44-4.38-1.43-8.74-3.65-12.39-.88-.17-1.35-.41-1.74-.32-12.98,2.9-24.57,8.4-33.81,18.24-2.15,2.29-4.26,4.61-6.35,6.96-5.46,6.14-8.95,13.37-11.68,21.03-1.05,2.94-2.31,5.82-3.56,8.69-.97,2.22-2.48,4.24-2.44,7.23,2.73,1.76,5.5,3.54,8.2,5.29,2.94-1.43,4.5-3.68,6.23-5.69,1.76-2.03,3.35-4.21,5.02-6.33,1.67-2.12,3.28-4.27,5.01-6.34,1.64-1.95,2.87-4.34,6.36-6.28-.86,2.09-1.15,3.1-1.65,3.98-3.91,6.87-8.84,12.95-14.21,18.71-1.18,1.27-2.22,2.67-3.41,4.1,2.37,2.87,4.63,5.36,6.6,8.06,1.94,2.67,3.59,5.56,5.58,8.69ZM204.59,237.25c2.26-5.23,4.03-9.56,5.99-13.79,1.6-3.46,3.45-6.77,4.04-10.63,1.03-6.7,1.58-13.54.27-20.1-2.52-12.62-6.89-24.6-15.52-34.6-4.44-5.14-5.86-5.38-10.89-1.03-1.18,1.02-2.29,2.15-3.35,3.3-5.21,5.65-9.32,12.03-12.72,18.92-4.28,8.67-5.94,17.87-5.38,27.42.3,5.12,1.57,10.04,4.3,14.66,2.49,4.2,4.09,8.93,6.09,13.42.61,1.36,1.23,2.71,1.99,4.37,5.2-2.81,10.91-1.05,16.24-3.41-.6-4.83-1.4-9.45-1.7-14.11-.3-4.86-.58-9.77.7-14.64,1.41,3.1,1.02,6.45,1.46,9.66.43,3.11.68,6.24.9,9.37.23,3.37.69,6.66,2.13,10.1,1.87.38,3.79.77,5.44,1.1ZM167.88,326.07c-1.91,2.9-3.35,5.14-4.85,7.34-1.51,2.22-3.08,4.41-4.63,6.6-1.42,2.01-2.82,4.04-4.28,6.03-1.59,2.17-3.15,4.37-4.89,6.41-1.63,1.91-2.88,4.28-6.74,6.27,1.83-3.03,2.74-4.75,3.86-6.34,5.15-7.33,10.39-14.6,15.52-21.95,1.37-1.97,3.16-3.81,3.15-6.33-4.5-5.41-4.46-5.32-9.95-2.55-5.48,2.77-9.94,6.86-14.54,10.77-7.73,6.58-14.49,14.07-19.72,22.77-6.37,10.6-9.82,22.04-8.66,34.58.27,2.89.55,5.77,2.59,8.49,1.48-.16,3.04-.15,4.5-.51,2.6-.65,5.12-1.65,7.72-2.29,10.38-2.56,18.95-8.06,25.64-16.28,5.22-6.42,10.06-13.16,14.99-19.81,2.15-2.9,3.5-6.19,4.6-9.65,1.55-4.9,3.47-9.68,5.18-14.54.42-1.2.61-2.47.98-4-3.49-1.67-6.68-3.2-10.46-5.01ZM158.45,259.01c3.35-4.1,6.27-7.66,9.24-11.3-1.83-1.85-3.37-3.43-4.93-5-1.74-1.75-3.49-3.48-5.24-5.22-1.58-1.58-3.2-3.14-4.73-4.77-1.68-1.8-3.36-3.62-4.91-5.53-1.31-1.61-3.2-2.91-3.98-6.58,10.02,8.2,17.18,17.44,25.93,24.73,4.43-2.71,4.84-3.45,3.99-6.93-.21-.87-.51-1.72-.82-2.55-3.41-9.14-8.13-17.43-15.52-24.01-1.5-1.34-2.92-2.79-4.26-4.3-10.94-12.27-25.68-18.48-40.12-25.17-.2-.09-.43-.12-.65-.18-2.32-.63-3.96.02-5.08,2.08-1.52,2.81-2.14,5.88-2.36,9.03-.42,5.92.78,11.55,2.84,17.09,5.43,14.63,14.61,26.3,28.28,33.79,7.69,4.21,15.29,8.36,22.31,14.83ZM62.77,330.17c.34.49.59,1.24,1.1,1.52,7.34,4.08,14.98,7.16,23.64,6.32,5.35-.52,10.68-1.21,16.04-1.65,11.08-.91,21.61-3.75,31.47-8.9,6.55-3.43,13.07-6.93,19.56-10.46.92-.5,1.66-1.34,2.75-2.24-1.16-2.17-2.18-4.08-3.23-6.05-5.83.35-10.69,2.89-15.9,4-5.4,1.15-10.68,2.91-16.37,2.82.96-.92,2-1.7,3.17-2.03,7.96-2.29,15.96-4.44,23.92-6.75,1.41-.41,2.66-1.34,4.08-2.07-.3-1.47-.46-2.57-.76-3.63-.24-.84-.66-1.62-.94-2.27-32.89-11.31-75.49,8.4-88.53,31.41ZM206.39,426.47c-.43,1.91-.91,3.4-1.09,4.93-.61,5.44.37,10.7,1.93,15.91,3.99,13.24,10.8,25.08,18.14,36.66.67,1.06,1.68,1.92,2.79,3.15.44-1.1.78-1.66.88-2.26.79-4.97,2.83-9.35,5.67-13.52,1.87-2.75,3.21-5.9,4.57-8.96,1.72-3.89,2.97-8.01,4.87-11.81,4.76-9.53,6.15-19.59,5.31-30.07-.14-1.79-.21-3.58-.38-5.37-.75-7.89-2.76-15.4-6.53-22.44-2.54-4.74-4.8-9.62-7.23-14.42-.27-.54-.81-.94-1.07-1.23-1.82,5.99-3.51,11.98-5.48,17.89-1.36,4.09-2.22,8.18-2.19,12.5.06,10.31.02,20.62,0,30.93,0,2.1.56,4.29-.93,7.07-1.38-3.4-1.95-6.18-2.09-9.05-.14-2.91-.22-5.83-.23-8.74-.01-2.91.15-5.83.13-8.74-.02-2.79.56-5.63-.29-9.35-4.75,7.04-7.05,15.35-16.77,16.93ZM153.08,269.92c2.92-5.64,2.91-6.36-.99-9.55-2.78-2.27-5.67-4.45-8.73-6.3-6.37-3.87-13.11-6.72-20.62-7.77-7.6-1.06-15.21-1.05-22.83-1.12-5.69-.06-11.12,1.43-16.34,3.57-7.36,3.02-7.88,4.76-4.09,11.51,7.29,12.98,18.57,21,32.18,26.23,7.61,2.92,15.57,4.19,23.58,5.25,3.77.5,7.54,1.05,11.33,1.41,3.02.29,4.21-.69,4.48-3.63.37-4.02.64-8.05.84-12.08.05-1.04-.33-2.1-.56-3.38-4.72-.59-9.13-1.2-13.56-1.67-4.73-.5-9.24-1.78-13.58-3.65-.6-.26-.99-1.03-2.52-2.7,11.34,1.65,20.99,5.32,31.42,3.88ZM85.23,157.12c.39-1.32.41-2.53,1.02-3.19.88-.95,2.21-1.47,3.33-2.21,3.87-2.56,5.12-5.42,4.28-9.68-.76-3.87-3.91-6.25-7.78-5.76-1.31.17-2.57.76-3.88.99-1.39.24-2.69-1.45-2.02-2.64.76-1.36,1.75-2.58,2.58-3.9,2.59-4.12,2.28-8.69-.79-12.44-1.79-2.19-4.06-2.81-6.58-1.47-4.77,2.55-8.11,6.29-9.08,11.79-.23,1.32-.28,2.67-.57,3.98-.31,1.4-2.06,2.1-3.21,1.27-1.44-1.05-2.7-2.35-4.16-3.37-3.98-2.77-7.2-2.67-11.1.29-.89.67-1.72,1.45-2.42,2.31-1.73,2.1-3.46,4.34-2.44,7.27.94,2.69,3.4,3.21,5.93,3.68,1.22.23,2.46,1,3.43,1.84,1.28,1.1.54,3.35-1.09,3.69-.87.18-1.78.33-2.66.29-3.75-.19-6.36,1.79-8.63,4.42-1.95,2.26-2.98,4.99-3.68,7.84-.95,3.87.3,7.07,3.28,9.61,3.11,2.65,6.65,3.6,10.64,2.4,1.28-.39,2.51-1.06,3.81-1.2.69-.08,1.79.51,2.14,1.12.34.61.23,1.77-.15,2.42-.41.7-1.36,1.09-2.07,1.62-1.06.8-2.22,1.51-3.15,2.44-1.3,1.29-1.17,3.05.16,4.12,2.54,2.05,5.6,3.07,8.72,3.04,3.76-.04,7.01-1.57,8.43-5.5,1.15-3.15,2.2-6.33,3.41-9.45.2-.51,1.05-1.16,1.5-1.1.77.11,1.69.58,2.16,1.19,1.36,1.79.99,3.85.34,5.79-.77,2.33-1.84,4.57-2.59,6.92-.9,2.8.5,5.13,3.91,6.85,3.36,1.69,6.45,1.58,8.04-.44.67-.85,1.22-1.91,1.48-2.96.32-1.29.44-2.67.34-3.99-.18-2.22-.64-4.42-.91-6.64-.26-2.13.78-3.49,2.86-3.7,1.33-.13,2.7.04,4.02-.16,2.77-.42,4.35-2.33,4.29-5.07-.03-1.33-.29-2.67-.3-4-.04-4.31-.86-5.72-4.61-6.94-1.87-.61-3.86-.85-6.24-1.36ZM45.95,222.16c-1.79.24-3.33.38-4.85.65-4.53.83-6.99,3.75-7.95,8.09-.93,4.23.77,7.59,4.86,9.17,3.26,1.26,6.53,1.57,9.59-.75,1.17-.89,2.53-1.07,3.54.29.9,1.21.76,2.55-.07,3.75-.38.54-1,.9-1.44,1.41-2.18,2.52-2.23,4.26.02,6.32,2.64,2.41,5.69,3.59,9.28,2.38,2.79-.94,3.74-2.43,3.63-5.56-.02-.44-.21-.88-.22-1.33-.04-3.03,1.51-4.24,4.2-3.22,1.47.56,2.86,1.3,4.3,1.92,2.88,1.25,5.65,1.02,8.38-.56,2.4-1.39,3.1-2.93,2.48-5.56-.44-1.89-2.46-3.37-1.3-6.02.83-.14,1.89-.55,2.91-.45,1.77.18,3.5.81,5.28,1.02,7.21.88,9.56-5.7,7.29-9.97-2.37-4.48-5.22-8.52-11.2-8.14-.44.03-1,.03-1.3-.21-.65-.53-1.36-1.14-1.65-1.87-.19-.48.14-1.48.57-1.81,1.05-.8,2.24-1.48,3.46-1.97,3.54-1.43,3.23-3.99.82-6.22-2.37-2.2-5.16-2.51-8.07-.87-1.15.65-2.09,1.68-3.22,2.38-1.1.67-2.97-.08-3.33-1.34-.43-1.5-.51-3.11-1.02-4.58-1.09-3.11-3.61-4.45-6.73-4.74-2.54-.24-4.27,1.02-5.59,3.97-.36.81-.45,1.74-.79,2.57-1.12,2.76-2.4,3.22-5.27,1.93-1.22-.55-2.36-1.35-3.62-1.74-2.1-.64-3.94-.1-5.44,1.63-4.01,4.62-3.78,10.75.77,14.83,1.25,1.12,2.34,2.09,1.69,4.61ZM309.05,410.14c0-1.47.13-1.96-.02-2.34-4.32-11.02-9.99-21.04-20.32-27.66-2.64-1.69-5.17-3.55-7.77-5.31-4.54-3.08-9.66-4.69-15-5.42-7.17-.98-14.05-2.7-20.5-6.06-1.05-.55-2.07-1.65-3.73-.79,4.19,4.88,8.98,8.86,14.36,12.11,4.6,2.78,9.35,5.31,13.98,8.04,2.7,1.59,5.31,3.33,7.9,5.09.69.47,1.39,1.24.25,2.42-6.51-.93-11.61-5.13-17.18-8.3-5.66-3.21-11.12-6.69-15.96-11.12-4.68-4.29-8.27-9.7-14.25-14.27.75,3.23,1.11,5.41,1.78,7.48.62,1.91,1.48,3.75,2.39,5.54,8.95,17.66,23.42,28.56,42.29,33.69,8.63,2.35,17.44,4.01,26.18,5.95,1.68.37,3.39.58,5.6.95ZM92.15,213.71c4.18,3.85,7.31,7.56,8.48,12.6.22.97,1.09,2.14,1.98,2.55,4.16,1.93,8.36,3.89,13.03,4.62.05-.67.14-.92.07-1.11-.15-.41-.32-.84-.58-1.19-8.2-10.93-13.95-22.84-15.31-36.66-.42-4.28-3.75-6.69-7.34-9.05-1.56,4.17-2.95,7.87-4.36,11.64,4.81,4.69,7.74,9.72,4.02,16.6ZM291.3,160.89c-4.3-.82-7.86-.42-11.31-.09-5.99.57-12.06.86-17.51,4.12-9.88,5.9-18.86,12.93-27.04,20.99-.55.55-.88,1.32-1.31,1.99,1.98-.35,3.42-1.26,4.8-2.25,7.76-5.56,16.36-9.26,25.56-11.66,3.95-1.03,7.88-1.67,12.02.33,4.87-4.27,10.21-7.83,14.79-13.43ZM255.15,79.56c-1.43,3.1-1.11,5.53-1.01,7.96.13,3.35.51,6.74.14,10.04-1.69,15.26.41,30.33,1.97,45.44.03.32.4.6.62.92,6.69-14.93,6-47.88-1.72-64.35ZM314.55,123.68c-.93-.05-1.19-.15-1.35-.06-13.44,7.1-26.92,14.11-40.99,19.91-2.23.92-4.23,2.48-6.23,3.89-.85.6-1.78,1.43-1,3.21,1.11,0,2.43.13,3.71-.02,7.38-.84,14.45-2.89,21.28-5.75,1.63-.68,3.27-1.58,4.61-2.71,6.31-5.34,12.52-10.8,18.73-16.25.46-.41.65-1.13,1.24-2.21ZM221.28,202.18c.28-1.21.76-2.42.81-3.64.42-9.57,1.86-19.13.19-28.73-.34-1.97-.22-4.01-.35-6.02-.13-2-.23-4.02-.51-6.01-.28-2.03.79-4.16,0-6.16-2.51,1.78-4.51,3.66-6.87,4.75-2.48,1.15-5.31,1.54-8.08,2.28,9.51,16.53,13.4,28.84,14.82,43.52ZM304.88,55.56c1.15-2.01,1.7-2.7,1.98-3.49,2.69-7.64,4.61-15.43,4.47-23.61-.1-6.27-.17-12.53-.31-18.8-.03-1.26-.32-2.51-.59-4.56-1.2,1.07-2.09,1.49-2.33,2.15-1.15,3.13-2.49,6.26-3.08,9.52-2.07,11.3-1.49,22.74-1.22,34.14.03,1.06.48,2.11,1.09,4.66ZM46.88,328.02c-3.47,3.72-7.15,6.92-7.87,11.43,2.19,3.1,3.92,5.53,5.59,7.9,2.37-.13,3.74-1.39,4.84-3.23,1.7-2.86,3.43-5.73,5.42-8.39,1.89-2.53,1.21-4.47-.77-6.5-2.14-.36-4.32-.72-7.21-1.21ZM279.54,47.77c0,2.57-.21,4.73.04,6.84.51,4.22,1.32,8.41,1.93,12.62,1.09,7.54,2.11,15.08,3.19,22.62.23,1.58.31,3.28,1.93,4.54,3.44-14.22.04-36.95-7.1-46.62ZM227.35,181.84c.37-.99.9-1.96,1.09-2.99.65-3.5,1.58-7.02,1.69-10.55.25-8.25.1-16.51.09-24.76,0-4.31-.73-8.53-1.87-13.83-3.89,18.02-3.36,34.98-1,52.13ZM295.94,96.52c16.96-9.51,28.6-21.18,30.65-30.19-6.52,2.92-22.9,18.84-30.65,30.19ZM178.68,308.38c3.59-.12,6.24-.94,8.76-2.76-.07-4.49-.63-8.73-2.64-12.64-9.12,1.84-10.09,3.31-7.73,11.4.36,1.24.96,2.42,1.61,4ZM87.15,241.11c6.08-.6,11.37-1.19,16.68-1.61,5.41-.44,10.77,1.73,17.51.6-6.72-3.25-12.83-4.5-18.65-6.51-1.52-.52-3.12-.16-4.32,1.1-2.27,2.38-5.08,3.51-8.31,3.82-.86.08-1.79.26-2.52.69-.33.19-.24,1.09-.39,1.92ZM189.48,251.98c-2.01-8.85-5.12-9.5-11.34-6.2-.36.19-.6.63-1.12,1.18-.18,3.38.33,6.7,3.15,9.55,1.82-.76,3.47-1.37,5.06-2.14,1.38-.67,2.68-1.51,4.24-2.4ZM185.59,275.58c.38,3.61,1.19,6.92,3.07,10.19,2.83-.63,5.31-1.38,7.54-3.29.5-3.66.63-7.27-1.81-10.53-3.49.27-6.18,1.61-8.8,3.63ZM180.59,261.96c1.28,3.06,1.02,6.11,3.85,8.09,2.63-.35,4.99-1.53,7.36-2.67,1.32-.64,2.13-1.83,1.73-3.23-.69-2.44-.59-5.32-3.35-7.05-1.44.57-2.9,1.04-4.26,1.72-1.55.78-3.01,1.76-5.34,3.14ZM193.01,303.39c3.77-.25,5.1-1.91,4.99-4.87-.1-2.68-.07-5.37-.3-8.03-.08-.97-.76-1.89-1.13-2.76-4.2.92-4.18.97-6.89,3.39.72,4.01,1.53,8.1,3.32,12.27ZM174.96,291.97c3.2-.7,6.03-2.19,8.82-4.44-.49-2.29-.89-4.46-1.45-6.58-.21-.81-.81-1.52-1.21-2.23-8.13,2.37-10.43,6.94-6.15,13.26ZM139.8,189.09c5.41,4.7,10.3,8.96,15.2,13.19.31.26.76.37,1.16.49.05.02.21-.32.32-.5-4.29-9.13-7.49-13.68-12.87-18.11-1.19,1.54-2.38,3.07-3.81,4.93ZM219.29,284.1c-1.63-.39-2.48-.76-3.32-.76-3.14-.01-4.2.86-4.16,3.86.04,3.08-.42,6.25.8,9.17,5.26.65,6.84-.33,6.98-4.46.08-2.43-.17-4.88-.29-7.8ZM98.16,411.71c0-5.55.06-11.1-.03-16.64-.03-1.99-.28-4-.66-5.95-.19-.95-.37-2.29-1.9-2.27-2.12,3.6-2.42,4.34-2.37,8.02.09,6.01,1.3,11.77,4.96,16.84ZM211.19,278.9c2.75,1.01,5.02,1.12,7.73-.32-.27-2.41-.47-4.81-.82-7.18-.49-3.3-2.06-4.46-5.49-4.24-2.11.13-3.41,1.44-3.09,3.45.44,2.81,1.11,5.58,1.66,8.3ZM161.07,290.11c3.39-3.24,5.74-5.58,6.78-8.8.68-2.11-.56-7.14-1.98-9.87-4.13,2.68-5.79,6.48-5.28,11.33.21,1.96.26,3.94.48,7.34ZM171.85,277.62c3.44-.71,5.62-2.72,7.74-4.96-.6-3.21-.97-6.25-3.05-8.88-1.11.44-1.94.71-2.73,1.08-2.83,1.31-3.91,3.44-3.15,6.54.47,1.93.76,3.91,1.19,6.23ZM205.46,113.94c-1.06-1.88-2.12-3.74-3.36-5.94-1.55,2.95-2.74,5.5-4.19,7.9-2.48,4.12-2.45,6.44.53,11.07,2.31-4.29,4.62-8.57,7.02-13.02ZM224.8,293.69c2.52.98,4.53-.46,6.66-.82,1.4-.24,2.29-1.29,2.45-2.79.15-1.4-.11-2.77-1.32-3.57-2.42-1.6-4.96-2.97-8.07-1.24-.59,2.96-.95,5.73.29,8.42ZM232.29,281.96c.57-3.42-.57-5.68-1.34-7.95-.99-2.93-3.31-3.86-6.73-3.67-.06,2.18-.11,4.14-.16,6.1-.05,2.31.99,3.84,3.26,4.42,1.48.38,2.98.67,4.96,1.1ZM131.69,161.21c.7-.44,2.14-1.05,3.15-2.08.88-.9-.32-2.99-2.26-4.31-.55-.37-1.13-.74-1.74-.97-3.29-1.22-8.16-.04-8.31,1.98-.13,1.76,3.38,4.65,6.34,5.19.65.12,1.33.09,2.83.18ZM207.84,262.14c2.25,0,4.42.12,6.57-.04,1.56-.12,2.17-1.35,2.14-2.81-.05-2.41-1.29-3.8-4.15-4.27-2.11-.34-4.78-1.38-6.25.53-1.82,2.35.42,4.38,1.69,6.59ZM202.37,299.26c2.06,1.1,4.1.87,4.28-.75.45-4.12.25-8.32.18-12.49-.02-.94-1.97-1.56-2.74-.84-.76.71-1.68,1.64-1.8,2.56-.51,3.92-.68,7.87.08,11.52ZM170.21,300.76c-1.24.79-2.38,1.42-3.41,2.19-1.61,1.2-2.2,2.76-1.32,4.69.46,1.01.73,2.23,1.47,2.95.69.68,1.97,1.26,2.87,1.11,1.19-.2,2.25-1.14,3.51-1.85-.86-3.16-.55-6.38-3.12-9.09ZM214.39,251.1c-4.48-5.45-7.41-6.91-14.6-7.54-.44,2.23.99,3.76,2.1,5.34.34.48,1.08.87,1.69.95,3.44.46,6.89.81,10.81,1.26ZM201.55,280.64c1.65-.15,2.97-.03,4.04-.48.53-.22.91-1.57.81-2.34-.36-2.63-.86-5.26-1.56-7.82-.14-.52-1.44-1.07-2.14-.99-.75.09-1.48.83-2.09,1.42-.26.25-.34.85-.29,1.26.36,2.85.78,5.7,1.23,8.95ZM212.06,309.01c3.86.01,4.92-.25,6.03-1.16,1.65-1.34,1.92-5.46.4-6.64-1.22-.95-4.34-.5-5.55.89-.42.48-.8,1.14-.84,1.75-.11,1.71-.04,3.44-.04,5.16ZM100.93,186.79c1.02-3.15,1.66-5.15,2.36-7.3-1.5-1.07-2.68-1.93-3.87-2.78-2.18,1.46-4.41,2.24-6.68,4.03,2.76,2.04,5.01,3.7,8.19,6.05ZM187.68,309.73c-2.53.02-5.02.49-7.09,2.29,1.62,5.24,2.63,6.04,6.06,4.68.96-.38,2.12-1.1,2.47-1.96.7-1.73.15-3.46-1.44-5.02ZM163.69,299.77c6.36-3.27,7.07-4.89,4.43-10.41-2.31,1.46-3.86,3.58-5.23,5.78-1.03,1.66-.87,3.33.8,4.62ZM200.21,324.73c2.65.73,4.4.43,5.57-1.12,1.58-2.08,1.56-4.44.89-6.83-5.1.31-5.14.3-5.93,3.78-.28,1.26-.34,2.57-.53,4.17ZM206.69,311.18c.43-2.46.91-4.81-.17-7.13-3.32.3-3.93.49-4.32,2.15-.4,1.7-.5,3.48-.62,5.23-.02.33.47.69.8,1.15.57-.05,1.25.01,1.85-.19.81-.28,1.56-.76,2.45-1.21ZM230.23,306.04c-4.88,2.26-9.59,3.64-9.47,9.96,4.79-2.13,7.73-5.09,9.47-9.96ZM224.06,304.84c2.5-.87,4.6-1.59,6.69-2.34.41-.15.9-.34,1.12-.67.35-.53.7-1.2.67-1.79-.03-.57-.42-1.43-.88-1.62-2.28-.93-4.47-.09-6.38,1.01-1.71.98-1.98,2.8-1.21,5.41ZM170.68,261.23c1.62-.99,2.85-1.49,3.71-2.36.52-.53.68-1.65.61-2.47-.16-2.13-.22-4.37-2.41-6.07-3.64,3.14-2.53,6.69-1.92,10.9ZM199.29,264.27c3.61-1.22,3.92-1.54,3.34-3.45-.38-1.26-.85-2.5-1.39-3.69-.75-1.65-2.06-2.39-3.01-1.81-1.14.7-1.14,1.83-.86,2.89.51,1.89,1.17,3.73,1.92,6.06ZM217.73,313.31c-5.4.29-6.47,1.49-5.79,5.93.08.54.62,1.25,1.1,1.41.5.17,1.35-.05,1.76-.42,1.87-1.69,2.73-3.87,2.92-6.92ZM102.41,357.83c-5.45-.52-10.56.42-15.17,3.5,5.26-.27,10.47-.81,15.17-3.5ZM191.24,325.81c-.74-1.6-1.14-3.18-2.1-4.25-.49-.55-2.08-.5-2.99-.18-.51.18-1.02,1.55-.85,2.21.31,1.24.96,2.49,1.79,3.46.45.52,1.64.78,2.35.6.66-.17,1.12-1.09,1.81-1.84ZM169.04,314.63c.8,1.51,1.12,3.01,2,3.52,1.01.59,2.57.5,3.81.28.46-.08,1.09-1.45.96-2.1-.19-1-.98-1.88-1.6-2.97-1.69.42-3.14.77-5.17,1.27ZM197.31,306.66c-2.34-.1-3.68.64-3.53,2.53.13,1.67.82,3.29,1.27,4.95,3.62-1.25,3.73-1.67,2.26-7.49ZM85.11,425.02c-1.62,4.4-1.53,7.58.4,13.68,1.06-6.26.97-9.32-.4-13.68ZM114.84,338.51c.01.15.03.31.04.46,2.42,0,4.85.07,7.26-.02,2.53-.1,3.06-.63,4.76-4.11-1.98.64-3.85,1.28-5.75,1.85-2.1.64-4.21,1.21-6.32,1.81ZM73.54,311.4c-.23-.32-.47-.63-.7-.95-2.26,1.26-4.6,2.4-6.75,3.83-1.04.69-1.82,1.93.06,3.26,2.44-2.03,4.91-4.09,7.38-6.15ZM166.49,256.51q-3.16,6.36-2.86,9.58c3.92-1.72,3.64-4.83,2.86-9.58ZM192.41,243.45c.59,1.49.94,2.53,1.41,3.52,1.06,2.23,2.46,3.28,3.13,2.44,1.1-1.38.06-2.55-.44-3.7-.61-1.37-1.14-3.04-4.1-2.25ZM156.78,295.15c.58-.08.88-.03.98-.14.27-.33.69-.75.66-1.1-.3-3.1-.68-6.2-1.07-9.29,0-.05-.5-.04-.88-.06.06,3.62-.37,7.13.32,10.6ZM196.96,325.01c.76-1.94,1.8-3.9-.38-6.37-1.29,2.54-1.21,4.45.38,6.37ZM162.08,308.38c-.43.2-.86.4-1.29.6.43.87.8,1.77,1.31,2.59.17.28.68.34,1.04.51.1-.36.37-.79.26-1.07-.37-.91-.87-1.76-1.32-2.63ZM223.78,259.7c-.41.73-.84,1.18-.74,1.39.34.71.86,1.33,1.31,1.98.28-.43.88-.96.78-1.27-.23-.7-.8-1.3-1.35-2.1ZM177.98,322.63c-.52.27-.87.45-1.22.63.55.49,1.1.97,1.65,1.46.22-.27.68-.68.62-.79-.28-.49-.7-.9-1.05-1.3ZM108.29,340.23c-.35-.26-.54-.51-.67-.48-.48.11-.93.31-1.4.48h2.06ZM80.98,300.59c-.26-.31-.49-.64-.79-.9-.06-.05-.53.17-.53.27,0,.35.12.69.2,1.03.37-.13.74-.27,1.12-.4ZM116.13,342.44l-.59.06c.2.13.39.33.62.38.14.03.33-.15.5-.24-.18-.07-.35-.14-.53-.2ZM211.57,329.58c.16.1.32.2.47.3.07-.16.25-.36.2-.45-.07-.13-.29-.19-.45-.28-.07.15-.15.29-.22.44ZM160.07,302.32c-.1-.17-.21-.33-.31-.5-.11.16-.29.33-.3.49,0,.16.18.33.28.49.11-.16.21-.33.32-.49Z"/>
  <path d="M59.84,159.19c-.04-5.09,1.13-8.83,4.31-11.79,4.09-3.82,9.47-3.75,13.11.42,3.37,3.87,5.03,8.24,4.16,13.62-.8,4.93-4.82,7.95-9.25,8.24-6.83.45-12.2-4.55-12.32-10.48ZM70.49,162.83c2.74.07,4.04-.92,4.69-3.67.36-1.52.65-3.05.9-4.59.44-2.7-.41-4.5-2.53-5.56-2.04-1.02-4.47-.7-6.23.84-2.21,1.92-2.82,4.46-2.72,7.24.13,3.8,2.04,5.64,5.9,5.75Z"/>
  <path d="M77.48,222.82c-.19,5.14-4.82,9.93-9.47,10.37-3.63.34-6.61-1.57-7.6-5.11-.93-3.36-.62-6.64,1.41-9.58,1.01-1.46,2.13-2.85,3.31-4.18,1.71-1.92,3.71-2.33,5.98-1.14,4.09,2.15,6.12,5.65,6.37,9.64ZM63.5,224.04c.01,2.29.87,3.88,2.4,4.33,1.91.55,3.49-.1,4.8-1.5.3-.32.59-.67.83-1.04,1.12-1.72.98-3.75-.35-5.59-1.07-1.48-2.96-2.15-4.72-1.61-1.98.61-2.63,2.21-2.88,4.07-.06.44-.06.89-.09,1.33Z"/>
</svg>