<?xml version="1.0" encoding="UTF-8"?>
<svg id="a" data-name="Layer 1" xmlns="http://www.w3.org/2000/svg" width="377.97" height="487.79" viewBox="0 0 377.97 487.79">
  <path d="M156.95,161.17c-.78-1.79-1.43-3.66-2.37-5.35-3.99-7.16-8.01-14.29-12.15-21.36-.89-1.52-2.15-2.9-3.5-4.05-6.1-5.19-12.43-10.08-19.52-13.87-2.27-1.21-4.48-2.73-7.43-2.21-1.43,1.24-2.85,2.66-4.45,3.82-2.12,1.54-3.91,1.47-6.07-.11-2.4-1.75-4.26-4.16-7.09-5.44-.84-.38-1.34-1.9-1.63-2.99-.39-1.52.46-2.93,1.97-3.11,1.86-.22,3.33-.78,4.79-2.06,3.14-2.73,6.65-2.39,9.46.58.14.14.32.28.38.46,1.53,3.92,4.92,5.29,8.51,6.76,4.82,1.98,9.04,5.09,13.05,8.44,1.18.99,2.44,1.89,3.81,2.94.14-.73.38-1.18.25-1.41-5.16-8.57-10.65-16.9-17.35-24.4-2.71-3.03-5.76-5.54-9.31-7.45-4.2-2.27-7.76-3.34-13-2.05-.35.89-.6,2.08-1.23,3.03-.97,1.48-2,3.03-3.35,4.12-3.47,2.83-6.68,2.2-8.87-1.79-1-1.81-2.07-3.27-3.89-4.33-1.49-.86-2.01-2.44-1.64-4.18.26-1.25.87-2.31,2.24-2.47,1.36-.17,2.75.11,3.94-.97,2.39-2.16,5.29-1.5,7.16.17,4.37,3.91,9.73,2.7,14.6,4,.13-.69.39-1.2.24-1.37-4.3-4.95-8.51-10-13.57-14.47-1.3.81-2.27,1.47-3.29,2.05-2.81,1.58-4.53,1.69-6.42-.56-1.65-1.96-3.53-3.02-5.74-3.26-1.21-1.96-1.55-4.17-.44-5.37,2.2-2.39,4.84-4.41,7.23-6.66.53-.5,1.96-.32,2.88-.09,3.89.98,6.56,3.57,6.71,7.48.13,3.46,1.88,5.42,4.05,7.58,6.82,6.75,13.52,13.63,20.28,20.44.95.95,1.96,1.84,3.74,3.5-1.79-7.5-3.29-13.86-4.84-20.21-.13-.55-.59-1.02-1.05-1.78-.66,0-1.44-.06-2.2.01-1.75.18-3.09-.63-4.33-1.7-2.32-2-5.44-9.32-5.3-12.36.12-2.63,1.15-3.48,3.78-3.26,1.57.13,3.15.2,4.73.17,6.33-.12,9.98,5.79,7.84,10.47-1.34,2.93-1.07,5.72-.35,8.74,1.61,6.8,2.89,13.68,4.48,20.48.44,1.89,1.24,3.82,2.32,5.43,5,7.47,10.16,14.84,15.28,22.23.52.75,1.15,1.43,2.62,3.24-.41-3.51-.71-5.61-.89-7.72-.19-2.19-.25-4.39-.38-6.58-.26-4.39-.62-8.77-.74-13.16-.07-2.27-.5-4.18-1.88-6.12-1.35-1.91-2.45-4.2-2.92-6.48-.56-2.73-.77-5.4-2.72-7.68-.64-.75-.63-2.29-.49-3.42.44-3.6,2.8-4.77,5.95-3.04.7.38,1.26,1.06,1.99,1.33,5.42,2,7.16,6.62,8.35,11.6.75,3.15.21,6.12-2.58,8.04-2.49,1.71-2.93,3.98-3.03,6.71-.34,9.22.66,18.36,1.46,27.51.24,2.78.96,5.49,2.54,7.92,6.78,10.42,12.13,21.59,17.31,32.86.33.71.74,1.39,1.32,2.45,1.12-2.64-.29-4.74-.4-6.88-.13-2.57-.82-5.12-1.23-7.68-.38-2.36-.8-4.73-1.06-7.11-.26-2.38-.35-4.78-.52-7.17-.18-2.59-.44-5.18-.54-7.77-.09-2.38-.02-4.77-.02-7.16-1.2-1.13-2.21-2.07-3.2-3.02-4.28-4.14-5.58-9.06-3.91-14.78.62-2.1,1.04-4.27,1.8-6.31.3-.8,1.15-1.66,1.94-1.95,1.2-.44,2.78.59,3.41,1.83.09.17.16.38.16.57.02.79,0,1.58,0,2.74,2.82,1.64,5.32,3.79,6.53,7.18,1.23,3.43,1.45,6.74-.91,9.65-2.75,3.39-3,7.27-2.85,11.32.47,12.39,2.31,24.64,3.63,36.95.67,6.23,2.05,12.13,4.48,17.88,1.39,3.28,2.39,6.72,3.88,10.03-.99-5.32-.54-10.61-.46-15.91.03-1.74-.63-3.5-1.01-5.24-.56-2.53-1.42-5.02-1.68-7.58-.37-3.59-.16-7.17,1.95-10.4.74-1.13,1.02-2.57,1.45-3.7,1.85-1.08,3.18-.13,3.61,1.14.95,2.77,2.93,4.64,4.75,6.75,2.59,3.01,3.23,6.43.96,9.94-1.29,1.99-2.58,4.08-4.29,5.68-1.91,1.78-2.88,3.73-2.96,6.26-.14,4.39.12,8.74.49,13.14.68,8.23,3.2,16.04,4.53,24.1.02.14.26.24.41.37,1.11.11,1.2-.84,1.45-1.51,4.3-11.38,10.62-21.49,19.26-30.06,2.06-2.04,2.29-4.03,1.13-6.46-.86-1.8-1.61-3.66-2.53-5.42-4.48-8.64-7.07-17.75-7.67-27.5-.41-6.77-1.2-13.53-2.07-20.26-.46-3.55-1.48-7.02-2.22-10.53-.28-1.33-.92-2.71.76-4.19.67.32,1.66.54,2.31,1.14,1.46,1.36,2.95,2.75,4.06,4.38,7.18,10.46,13.2,21.45,15.2,34.22,1.28,8.13,2.37,16.23.08,24.37-.14.5.11,1.11.24,2.13,1.45-.73,2.68-1.28,3.84-1.94,2.61-1.48,5.24-2.92,7.73-4.58.73-.48,1.19-1.57,1.46-2.48.79-2.68,1.46-5.4,2.11-8.12.77-3.18.55-6.39-.2-9.51-1.67-6.99-3.48-13.95-5.28-20.9-2.3-8.9-4.55-17.8-5.65-26.96-.44-3.64-.08-7.18.61-10.72.15-.78.4-1.55.7-2.28.54-1.33,1.26-2.62,2.83-2.8,1.6-.18,2.67.95,3.27,2.21,1.01,2.15,1.98,4.36,2.6,6.65,3.26,12.17,6.12,24.42,7.04,37.04.03.37.27.73.42,1.1,1.1.59,1.44-.35,1.72-1,2.25-5.12,4.54-10.23,6.59-15.43.71-1.81,1.07-3.86,1.11-5.81.18-7.78.44-15.55-.95-23.31-.84-4.69-.81-9.54-1.11-14.32-.49-7.77-1.01-15.55-1.37-23.33-.16-3.59-.05-7.2.1-10.79.06-1.57.38-3.17.83-4.68.51-1.71,2.75-2,3.79-.5.79,1.13,1.56,2.38,1.9,3.69,2.78,10.63,5.81,21.24,6.93,32.19.86,8.38-.05,16.76-1.57,25.06-.13.71-.23,1.44.39,2.44.73-1.11,1.54-2.19,2.19-3.35,5.45-9.8,11.46-19.24,18.2-28.19,2-2.66,3.23-5.43,3.23-8.78,0-3.4.53-6.83.17-10.18-1.04-9.67,1.53-18.63,4.83-27.48,2.23-5.98,4.53-11.95,6.81-17.91.28-.74.53-1.58,1.05-2.12.48-.5,1.31-.84,2.01-.89.41-.03,1.15.58,1.26,1.03.51,1.91,1.01,3.85,1.2,5.82,1.21,12.37-1.03,24.28-4.98,35.94-.58,1.7-1.13,3.41-1.67,5.12-.04.14.13.34.27.7.48-.24,1.06-.36,1.41-.72,4.07-4.12,8.17-8.23,12.13-12.45,1.63-1.74,3.08-3.69,4.41-5.68,3.31-5,6.58-10.03,9.73-15.12,2.96-4.79,6.36-9.21,10.53-13.01,3.91-3.57,8.4-6.1,13.5-7.49.66-.18,1.63.02,2.19.42.96.69.75,1.84.24,2.72-4.08,7.1-8.07,14.27-12.39,21.22-2.76,4.44-6.66,7.97-10.84,11.11-3.03,2.28-6.09,4.56-9.33,6.53-3.8,2.31-7.03,5.19-10.18,8.29-9,8.87-17.1,18.49-24.57,28.66-.78,1.06-1.45,2.18-1.6,3.84,1.07-.77,2.13-1.56,3.21-2.31,13.52-9.28,28.34-15.53,44.35-19.02,1.78-.39,3.5-.79,5.29-.09,1.45.56,2.06,2.25,1.06,3.37-.79.89-1.67,1.72-2.63,2.41-6.17,4.43-12.33,8.89-18.58,13.21-7.47,5.17-15.63,8.86-24.51,10.92-1.95.45-3.9.91-5.81,1.46-3.49,1.01-6.76,2.48-9.45,5.01-.44.41-.85.88-1.35,1.18-5.77,3.42-9.13,8.8-11.96,14.61-1.63,3.35-3.99,6.36-5.17,10.58,2.14-.67,2.81-2.18,3.83-3.21,10.38-10.48,21.98-19.15,35.91-24.43,3.96-1.5,8-2.59,12.28-2.28.97.07,1.95.32,2.89.62.96.3,1.38,1.73.75,2.49-.63.76-1.31,1.5-2.08,2.12-12.66,10.1-25.11,20.48-38.72,29.32-3.34,2.17-6.72,4.44-10.37,5.98-5.56,2.35-9.4,6.68-13.58,10.65-.56.53-.99,1.29-1.25,2.03-1.71,4.86-3.35,9.74-3.82,14.98,1.78-.06,2.07-1.46,2.76-2.34,3.63-4.58,7.79-8.58,12.59-11.92,4.1-2.86,8.19-5.74,12.28-8.62,6.58-4.62,13.67-8.27,21.12-11.27.74-.3,1.49-.57,2.24-.85.96-.35,1.94-.63,2.74.29,1.03,1.17.42,2.31-.28,3.26-6.1,8.19-12.29,16.18-21.67,21.16-8.47,4.5-16.03,10.45-23.75,16.47,3.23.16,4.08-.02,6.21-1.98,1.74-1.6,3.28-3.42,4.87-5.1,3.16,1.14,3,3.83,3.82,5.96.83,2.18.88,4.73,2.95,6.62,1.9-.52,3.2-1.54,3.27-3.64.08-2.52.89-4.68,2.76-6.42,2.72-2.54,5.74-3.56,9.3-1.87.71.34,1.42.67,2.27,1.08,2.61-1.35,4.78-3.68,8.1-3.42,3.33.26,5.24,2.68,7.37,4.49,1.73.23,2.46-.59,2.46-2,0-1.39-.23-2.79-.26-4.18-.09-3.94.99-7.51,3.58-10.54,3.6-4.2,8.49-4.47,12.63-.73.44.4.78.91,1.2,1.34.41.42.84.81,1.21,1.16,1.68.19,1.93-1.29,2.74-2.07.29-.28.51-.62.8-.9,2.84-2.78,5.92-4.88,10.16-3.18,4.39,1.76,7.43,4.68,7.9,9.63.15,1.57.02,3.17.02,4.97.61.37,1.23.86,1.93,1.16,4.8,2.1,6.69,6.01,6.92,10.98.14,3.06-.57,5.96-1.67,8.77-1.19,3.05-3.24,4.98-6.76,4.93-.97-.01-1.95.19-3.22.32-.7,1.93-1.37,3.78-2.03,5.63-1.36,3.85-4.21,5.64-8.17,5.97-3.93.32-7.57-.39-10.75-2.86-.93-.72-1.82-1.5-3-2.48-.95,1.34-1.83,2.37-2.49,3.52-2.37,4.17-4.66,8.39-7,12.57-5.7,10.17-12.66,19.41-20.83,27.73-1.25,1.27-2.44,2.6-3.79,4.04,2.74-.27,15.59-5.24,22.24-8.58-.28-.64-.55-1.31-.85-1.96-2.09-4.43-1.58-7.49,2-10.7,1.17-1.05,2.59-1.87,3.97-2.65,1.21-.69,2.52-1.17,4.05-1.87.12-1.51.29-3.07.36-4.63.12-2.56,1.23-4.6,3.2-6.18,2.9-2.34,6.5-2.39,9.33.05,1.19,1.02,2.18,2.34,3.05,3.66.87,1.32,1.47,2.8,2.13,4.09,2.12.59,3.08-1.03,4.42-1.73,2.16-1.14,4.34-2.01,6.87-1.52,5.65,1.09,8.89,6.57,6.93,12.37-.8,2.38-2.42,4.49-3.82,7.02.95,1.09,2.03,2.23,2.99,3.46,2.19,2.79,3.19,5.95,2.86,9.52-.67,7.09-6.02,10.31-12.74,7.65-.54-.21-1.11-.36-1.88-.6-1.27,1.49-2.47,3.05-3.84,4.45-1.85,1.91-4.03,3.24-6.82,3.35-3.64.13-5.63-1.19-6.68-4.68-.34-1.14-.5-2.34-.77-3.51-.21-.91-.47-1.81-.79-3.01-1.61.69-2.88,1.19-4.12,1.77-2.45,1.15-5.05,1.26-7.64.93-4.58-.59-6.36-3.41-5.21-8.05.14-.57.33-1.13.48-1.63-.17-.24-.25-.47-.4-.56-.16-.09-.42-.13-.58-.07-4.3,1.62-8.65,3.13-12.87,4.93-3.67,1.57-7.23,3.42-10.77,5.26-1.4.73-2.65,1.78-3.93,2.74-.27.2-.33.68-.56,1.19,1.36,1.34,3.22,1.18,4.9,1.46,12.07,1.97,23.79,5.25,35.22,9.55,5.52,2.08,10.25,5.38,14.09,9.89,1.03,1.21,1.97,2.53,2.78,3.9,2.47,4.18,2.05,4.97-.61,7.92-2.25,2.49-4.43,5.06-6.98,7.98,1.24.64,2.02,1.36,2.85,1.43,5.33.43,10.14,2.36,14.55,5.19,6.75,4.33,14.19,6.28,22.06,6.99,6.88.62,13.31,2.7,19.25,6.19,4.71,2.76,4.86,4.99.31,7.72-6.09,3.66-11.17,8.37-15.76,13.71-2.21,2.57-4.45,5.17-6.98,7.42-2.97,2.64-6.16,5.08-9.45,7.31-2.49,1.69-5.39,2.45-8.45,2.83-3.52.44-7.15.63-10.7,2.52.33,1.01.53,1.95.93,2.78,3.23,6.65,6.56,13.24,9.73,19.92,2,4.21,4.51,7.98,7.93,11.17,1.9,1.77,3.78,3.57,5.54,5.48.59.64.78,1.66,1.27,2.78-1.29.42-2.19.85-3.13,1-5.48.89-10.14,3.48-14.54,6.73-6.02,4.45-12.69,7.5-20.06,9.06-3.79.81-7.52.62-11.33.37-6.17-.42-12.36-.56-18.55-.8-.59-.02-1.23-.02-1.79.16-9.38,3.06-18.55,1.18-27.73-1.05-.36-.09-.78.06-1.5.14-3.27,4.3-5.81,9.23-7.78,14.47-.35.93-.44,1.96-.8,2.88-.7,1.77-2.16,2.4-3.87,1.66-1.09-.48-2.17-1.04-3.13-1.75-5.34-3.92-11.03-7.21-16.97-10.14-2.46-1.21-4.75-2.75-7.53-4.39-.36,1.39-.74,2.28-.81,3.19-.29,3.78-.58,7.57-.69,11.37-.11,3.73-1.15,6.91-3.66,9.85-2.04,2.39-3.39,5.38-4.95,8.16-.88,1.57-1.47,3.29-2.33,4.86-1.52,2.78-2.61,3.06-5.88,1.76-.54-.21-1.06-.47-1.89-.84-.57,1.11-1.19,2.08-1.6,3.14-.49,1.3-.82,2.67-1.19,4.02-.43,1.57-.9,3.19-2.76,3.55-1.91.38-2.89-1.02-3.8-2.37-.66-.98-1.26-2-2.09-3.34-1.81,1.35-1.63,3.33-2.34,4.82-1.38,2.9-4,3.38-6.17.98-.79-.88-1.37-1.96-2.05-2.94-.67-.97-1.34-1.93-1.89-2.72-1.69-.18-1.94.9-2.25,1.79-1.73,5-4.72,9.2-8.16,13.16-4.6,5.28-9.04,10.68-13.57,16.02-.64.75-1.32,1.52-2.13,2.06-.39.26-1.15.11-1.68-.06-.26-.09-.56-.68-.51-1,.21-1.37.43-2.76.83-4.08,1.54-5.09,1.37-10.26.78-15.45-.09-.76-.5-1.48-.72-2.11-1.61-.72-1.67.72-2.3,1.29-1.47,1.34-2.98,1.41-4.1-.09-1.53-2.03-2.82-4.24-4.59-6.95-.47,1.86-.68,3.15-1.13,4.36-.63,1.71-2.76,2.07-3.82.57-1.03-1.44-1.9-3.05-2.55-4.69-1.16-2.94-2.11-5.96-3.14-8.95-.54.19-.9.26-1.19.44-2.72,1.6-4.09,1.45-5.22-1.07-.97-2.16-1.72-4.49-2.15-6.82-.58-3.13-.74-6.34-1.1-9.52-.08-.7-.19-1.39-.46-3.35-1.29,2.71-2.04,4.27-2.79,5.83-.26.54-.52,1.08-.82,1.6-.72,1.23-1.49,2.51-3.18,2.22-1.62-.27-2.24-1.6-2.43-3.04-1.26-9.79-1.64-19.53,2.04-28.98,1.16-2.97,2.26-5.95,3.41-8.96-1.41-.86-1.83.47-2.34,1.06-1.58,1.8-2.98,3.75-4.51,5.6-.63.76-1.34,1.49-2.13,2.07-1.08.79-3.19-.04-3.38-1.36-.17-1.16-.24-2.41.02-3.53.72-3.11,1.34-6.3,2.53-9.24,4.04-10.03,8.43-19.89,16.44-27.59.39-.38.6-.95.87-1.41-.91-1.41-2.2-.83-3.31-.84-10.2-.14-20.4-.22-30.6-.35-1.77-.02-3.62.18-5.54-1.21.08-.94-.08-2.16.32-3.17,5.96-14.89,13.53-28.96,22.13-42.47,4.23-6.64,10.06-11.88,15.93-17.03,1.34-1.18,2.72-2.3,4.05-3.41-.12-2.6-.25-4.95-1.67-7.04-1.48-2.17-.9-4.26.64-6.05,1.16-1.34,2.44-2.88,4-3.5,3.06-1.21,4.76-3.48,6.28-6.12.87-1.52,1.84-2.99,2.81-4.56-.67-.17-1.13-.45-1.35-.32-8.43,4.97-17.17,9.44-24.94,15.5-4.64,3.62-8.29,8.03-11.64,12.86.38,2.02.88,3.95,1.1,5.91.49,4.33-1.29,7.05-5.44,7.94-2.15.46-4.18.77-6.11,2.07-1.74,1.18-4.05.1-4.94-1.91-.4-.9-.54-1.92-.85-2.86-1.83-5.56-.42-9.16,4.72-11.89.88-.47,1.79-.97,2.74-1.19,2.25-.52,4.05-1.74,5.58-3.34,9.12-9.55,20.26-16.16,31.88-22.09,1.76-.9,3.42-1.97,5.02-2.9.03-1.74-1.22-1.72-2.07-1.91-2.77-.61-5.58-.67-8.3.21-7.04,2.26-14.1,4.46-21.05,6.98-2.78,1.01-5.51,2.5-7.87,4.28-6.21,4.71-12.32,9.57-18.25,14.62-4.32,3.68-5.77,8.41-4.12,14.05.61,2.07.93,4.32.87,6.47-.09,3.26-2.24,5.07-5.52,5.01-1.59-.03-3.17-.46-4.76-.49-1.54-.03-3.3,1.08-4.5-.45-.81-1.02-1.03-2.49-1.59-3.73-1.13-2.49-1.61-4.96.15-7.37,1.82-2.49,3.93-4.53,7.24-4.79.97-.07,1.94-.23,2.69-.32,1.55-2.88,2.62-5.76,4.45-8.03,2.1-2.62,4.72-4.89,7.36-7,5.16-4.1,10.44-8.06,15.79-11.91,2.05-1.48,4.45-2.48,6.53-4-18.07,2.13-34.34,8.19-47.68,21.34.21,1.62.51,3.17.59,4.73.31,5.79-3.45,9.59-9.22,9.14-1.98-.15-3.87-.38-5.9-.12-2.6.33-3.85-1.35-3.59-4.07.13-1.38.23-2.77.3-4.16.31-6.63,4.85-10.57,11.51-9.92,1.18.11,2.33.47,3.96.81,6.81-5.75,13.95-11.41,22.6-15,8.38-3.48,17-5.63,25.9-6.71.14-1.72-1-1.15-1.59-1.33-.76-.23-1.58-.25-2.35-.46-6.42-1.72-12.93-2.37-19.59-1.97-3.16.19-6.36-.26-9.99-.44-.22.28-.81.82-1.13,1.48-1.92,3.93-5.17,5.41-9.35,5.03-2.96-.27-5.92-.68-8.85-1.16-.74-.12-1.44-.66-2.08-1.12-1-.72-1.25-2.24-.47-3.2,1.88-2.32,3.7-4.7,5.77-6.84,4.52-4.66,10.19-4.21,14.38.98.5.61,1,1.22,1.48,1.8,3.22.96,6.39.99,9.6.7,5.79-.52,11.52-.44,17.28.83,11.17,2.45,22.52,3.26,33.96,2.71,1.16-.06,2.32-.16,3.63-.25-2.41-3.6-10.46-8.33-20.49-12.14-.53.26-1.31.49-1.9.97-3.4,2.77-7.06,2.64-10.68.77-3.72-1.92-7.3-4.1-10.89-6.26-1.58-.95-1.72-2.89-.37-4.06.59-.52,1.32-1.24,1.98-1.24,3.09,0,5.75-1.38,8.58-2.26,2.76-.85,5.58,0,8.2.84,1.12.35,2.26,1.81,2.67,3.01,1.07,3.15,3.31,4.88,6.2,6.06,6.53,2.67,12.16,6.87,18,10.69,1.09.71,2.24,1.34,3.68,1.74-8.99-14.54-13.79-30.49-17.06-47.36-1.51.51-2.62.82-3.68,1.26-5.03,2.11-10.22,3.25-15.73,3.29-5.19.04-10.37.55-15.56.8-2,.09-4.01.13-5.99,0-1.17-.08-2.36-.44-3.44-.9-2.01-.86-2.34-3-.66-4.29,1.1-.84,2.31-1.61,3.59-2.11,7.65-2.95,15.38-5.76,23.52-6.99,4.12-.62,8.37-.39,12.56-.5,1.13-.03,2.27.09,3.61.16-4.06-8.03-15.14-18.63-22.19-21.39-1.99.81-2.81,2.74-3.9,4.36-2.77,4.11-6.44,7.12-10.97,9-3.13,1.3-6.33,2.52-9.6,3.38-5.22,1.36-10.5,2.51-15.8,3.47-2.52.46-5.17.45-7.74.3-1.98-.11-3.11-2.25-2.22-4.02.71-1.4,1.59-2.85,2.76-3.85,10.14-8.74,21.04-15.97,35.03-16.66.53-.03,1.05-.35,1.51-.52.22-1.26-.7-1.46-1.37-1.72-11.04-4.31-22.3-6.16-34.05-3.25-3.68.91-7.41,1.67-11.16,2.24-8.76,1.34-16.21-1.17-22-8.03-.76-.9-1.34-1.99-1.81-3.07-.59-1.36.13-2.92,1.55-3.42,1.31-.46,2.68-.93,4.05-1.05,6.76-.59,13.54-1.05,20.31-1.6,5.22-.42,9.85,1.27,14.22,3.88,1.2.72,2.34,1.54,3.55,2.25,3.28,1.94,6.73,3.35,10.51,4.19,5.82,1.29,11.54,3.05,17.37,4.63.71-.8-.15-1.34-.59-1.87-3.34-4.06-5.91-8.61-7.58-13.54-2.56-7.56-4.74-15.25-7.04-22.9-.34-1.14-.55-2.34-.68-3.53-.2-1.81-.39-3.87,1.58-4.75,1.69-.75,2.9.83,4.19,1.75,2.61,1.84,5.18,3.76,7.9,5.42,5.5,3.37,8.67,8.17,9.34,14.57.37,3.57.68,7.15.84,10.74.2,4.39.43,8.8.22,13.18-.17,3.48,1.4,5.5,4.01,7.43,3.85,2.84,7.57,5.9,11.08,9.16,3.05,2.83,5.72,6.06,8.53,9.1,1.26-.32.96-1.18.61-1.81-.57-1.05-1.31-2.01-2-2.99-6.82-9.7-10.43-20.61-12.25-32.2-.39-2.47.1-3.91,1.21-4.18,1.6-.38,2.73.51,3.63,1.6,2.29,2.77,4.52,5.58,6.71,8.43.72.94,1.22,2.06,1.85,3.08,3.52,5.69,3.57,5.55,10,7.58,8.76,2.77,17.5,5.62,26.15,8.71,6.63,2.37,12.72,5.81,18,10.56.58.53,1.29.92,1.95,1.35.13.08.37,0,.55-.01-2.61-6.05-13.59-15.77-21.74-19.26-.2,0-.42-.04-.59.03-7.39,2.97-9.46,2.39-14.06-4.14-2.06-2.93-4.07-5.91-5.91-8.99-.55-.93-.64-2.28-.54-3.4.1-1.03,1-1.82,2.15-1.64,7.99,1.24,15.05,4.13,19.05,11.75,1.09,2.06,2.61,3.45,4.5,4.65,9.42,5.99,17.21,13.65,23.2,23.08,3.22,5.06,6.36,10.16,9.55,15.23.38.6.83,1.16,1.48,2.05.23-.94.48-1.36.38-1.67-3.84-12.4-7.46-24.88-12.79-36.78-1.4-3.13-2.93-6.13-5.42-8.55-9.48-9.21-19.48-17.8-30.23-25.5-.79-.57-1.73-.94-2.73-1.46-.93.55-1.75,1.07-2.61,1.53-4.51,2.41-8.53,1.65-11.54-2.46-1.62-2.22-2.81-4.69-4.87-6.68-1.84-1.78-.74-5.32,2.18-5.13,1.66.11,3.15-.16,4.49-1.24,1.77-1.43,3.69-1.12,5.67-.39,3.76,1.39,6.76,3.52,7.69,7.68.41,1.83,1.19,3.31,2.79,4.43,8.55,5.99,15.98,13.29,23.73,20.21.73.65,1.47,1.29,2.21,1.93.3-.18.6-.35.89-.53ZM247.78,340.41c.39.82.78,1.65,1.18,2.47,2.88,6.61,5.36,13.37,6.77,20.44.78,3.89,1.32,7.92,1.22,11.87-.21,8.61-1.56,17.1-4.12,25.36-.4,1.28-.56,2.63-.87,4.18,1.31.57,2.32,1.24,3.43,1.46,7.29,1.47,14.6,2.45,21.96.36.95-.27,1.97-.41,2.96-.41,6.59-.01,13.19-.44,19.75.74,3.56.64,7.13.47,10.72-.27,6.58-1.37,12.51-4.05,17.99-7.88,3.77-2.63,7.49-5.35,11.95-6.79.87-.28,1.66-.78,2.81-1.34-.91-1.14-1.41-2.01-2.13-2.65-5.36-4.74-8.96-10.58-11.7-17.17-2.29-5.52-5.27-10.76-8.14-16.02-1.97-3.6-4.74-6.54-8.95-7.45-4.46-.96-7.03-3.8-9.56-7.45-5.08-7.35-12.47-11.04-21.51-10.67-2.2.09-3.88-.21-5.42-1.7-.71-.69-1.52-1.3-2.32-1.9-3.6-2.72-7.41-4.4-12.18-4.01-4.97.4-9.98.19-14.92-.91-1.74-.39-3.58-.43-5.37-.43-1.66,0-3.31-1.19-5.52-.19,1.6,2.01,2.67,4.05,4.34,5.33,3.79,2.91,7.84,5.5,11.85,8.1,1.15.75,2.56,1.1,3.85,1.62.18.07.39.1.58.13,3.96.5,7.91,1.05,11.88,1.47,2.18.23,4.39.24,6.59.32,2.02.08,4.04.13,6.07.19-10.13,2.34-20.15,1.4-30.41-.53.37.69.54,1.26.9,1.64,6.89,7.31,14.94,13.26,22.92,19.28,1.23.93,2.82,1.49,4.33,1.93,4.81,1.41,9.73,2.16,14.76,2.26,3.99.08,7.99.29,11.97.61,1.02.08,2.47.06,2.76,2.09-5.4.5-10.75.4-16.1-.2-3.17-.36-6.35-.68-9.53-1.02-.09-.13-.16-.29-.27-.39-.08-.07-.24-.06-.36-.08.23.14.45.28.68.41,1.86,1.49,3.6,3.14,5.59,4.43,12.89,8.4,25.7,16.97,40.5,21.85,1.06.35,2.35.64,2.7,2.09-1.46,1.2-3.01.52-4.5.16-7.07-1.67-13.59-4.67-19.79-8.4-3.77-2.26-7.43-4.7-11.15-7.05-.79-.5-1.52-1.34-2.92-.57,1.82,2.69,4.26,4.75,6.34,7.11,2.24,2.55,4.57,5.02,6.86,7.53,2.08,2.28,4.6,4.23,6.11,7.58-1.1-.09-1.8.07-2.16-.21-1.74-1.32-3.62-2.57-5.05-4.19-6.45-7.36-12.84-14.78-19.06-22.34-1.41-1.71-2.79-3.33-4.56-4.66-8.97-6.7-17.6-13.82-25.98-21.24-.54-.48-1.2-.82-1.83-1.24-.24.45-.43.64-.39.77.18.57.34,1.16.65,1.66,4.52,7.15,7.66,14.89,10.16,22.94,1.75,5.63,4.9,10.51,9.02,14.68,2.8,2.84,5.88,5.4,8.79,8.14.79.74,1.4,1.67,2.8,3.38-3.76-.5-5.88-1.92-7.8-3.53-7.31-6.17-13.09-13.44-15.87-22.78-.85-2.87-1.64-5.77-2.63-8.59-2.25-6.42-5.16-12.51-9.51-17.83-.39-.82-.78-1.64-1.18-2.47-.09-.15-.18-.3-.28-.46.11.14.22.27.33.41ZM168.56,279.33q-2.25,2.69-2.13,5.64c2.34-1.55,1.88-3.75,2.06-5.7.12-.1.27-.18.35-.3.06-.09.05-.23.07-.35-.12.23-.24.47-.35.7ZM288.57,78.97c-1.28,3.14-4.32,4.53-6.6,6.68-.6.56-1.85.97-1.04,2.32,8.2-1.22,15.77-4.16,22.67-8.64,6.68-4.33,13.16-8.99,19.7-13.53.42-.29.64-.88,1.21-1.71-1.15,0-1.91-.13-2.61.02-9.97,2.19-19.52,5.6-28.62,10.23-1.22.62-2.32,1.49-3.47,2.25-6.81,2.26-12.07,6.93-17.44,11.37-.76.63-2.12,1.21-1.44,3.07,1.22-.89,2.33-1.67,3.41-2.5,3.32-2.57,6.56-5.24,9.96-7.69,1.24-.89,2.84-1.27,4.28-1.89ZM261.75,120.52c.26.29.52.58.78.87-2.15,2.97-5.9,4.5-7.87,8.37,8.56-3.28,38.65-25.08,44.53-32.21-1.27.07-2.26-.09-3.1.19-4.34,1.48-8.83,2.68-12.92,4.7-9.73,4.79-18.46,11.16-26.3,18.63-2.55,2.43-5.43,4.76-6.71,8.29-1.69.97-2.91,2.35-4.36,5.06,2.44-1.86,3.85-3.08,4.34-5.07,1.98-1.58,3.93-3.19,5.95-4.72,1.85-1.41,3.77-2.74,5.67-4.1ZM271.82,189.29c-1.72.98-3.56,1.78-5.12,2.97-1.83,1.39-2.15,3.72-1.09,5.3.86,1.3,2.9,1.55,4.89.51.87-.46,1.6-1.2,2.46-1.69,1.69-.97,2.93-.39,3.56,1.63.23.75.11,1.68.52,2.29.5.74,1.38,1.23,1.99,1.74.67-.37,1.1-.49,1.33-.77.95-1.18.85-3.24,2.85-3.52,2.55-.36,2.54,1.99,3.51,3.34.27.37,1.06.65,1.52.54.48-.11,1.14-.69,1.2-1.13.2-1.35.13-2.74.2-4.12.09-1.74-1.59-3.35-.35-5.17,1.53-2.24,3.76-.03,5.48-.82,1.77-2.78,2.1-3.98,1.84-6.04-.25-1.98-1.63-3.05-3.05-4.21-3.84-3.13-4.42-5.21-2.96-9.89.41-1.3.86-2.59,1.25-3.75-.47-.74-.74-1.28-1.12-1.73-.38-.45-.83-.87-1.32-1.2-2.76-1.87-5.43-1.3-7.01,1.61-.56,1.02-.68,2.27-1.09,3.38-.56,1.54-2.07,1.92-3.33.8-1.33-1.19-2.49-2.58-3.88-3.69-1.33-1.05-3.37-.46-4.73,1.14-1.16,1.37-1.13,2.89.18,4.24,1.03,1.07,3.19,1.6,2.27,3.64-.73,1.63-2.48.65-3.77.89-2.57.49-5.25,3.08-5.35,5.01-.09,1.89,2.53,4.25,5.39,4.81.58.11,1.21-.01,1.78.11.72.15,1.42.45,2.4.77-.22,1.18-.4,2.12-.57,3.06l.1-.09ZM242.95,254.08c4.03-1.1,8.04-2.32,12.11-3.27,3.1-.73,5.4-2.45,7.24-4.92,8.09-10.86,13.44-23.02,17.05-35.99.25-.88.03-1.89.03-2.73-2.51-1.35-4.71-2.72-7.06-3.76-4.1-1.82-7.1.02-7.35,4.32-.02.4-.03.8-.03,1.2.04,10.33-3.31,19.55-9.08,28-4.04,5.92-7.94,11.95-12.85,17.22-.15.03-.32.04-.45.11-.1.05-.16.18-.24.28.21-.15.43-.3.64-.45ZM313.43,307.71c.22.25.45.5.67.75-3.51,4.17-8.45,6.48-12.71,9.84,5.7-.93,11.57-.62,16.77-3.69,1.53-.9,3.29-1.46,5.01-1.97,4.07-1.22,7.71-3.24,11.19-5.64,1.45-1,3.1-1.72,4.65-2.57-1.1,2.54-3.49,3.74-5.45,5.41-.74.63-2.26.76-2.01,2.38,3.45-.6,6.77-1.28,10.11-1.74,6.03-.82,11.97-.56,17.57,2.18.53.26.82,1.02,1.21,1.53-.48.42-.65.67-.78.66-2.56-.29-5.12-.65-7.69-.91-2.17-.23-4.4-.71-6.53-.47-9.92,1.13-19.67,3.18-30.37,6.14,2.66.61,4.3,1.08,5.98,1.34,5.91.93,11.84,1.77,17.75,2.7.88.14,2.02.22,1.8,2.09-4.12-.42-8.27-.66-12.35-1.32-5.91-.95-11.76-2.25-17.64-3.33-1.55-.28-3.2-.59-4.72-.33-7.01,1.2-13.89.55-20.77-.96-3.56-.79-7.14-.73-10.69.11-.88.21-2.09-.04-2.39,1.5,3.48,3.18,6.86,6.58,12.39,5.06.71-.19,1.58.12,2.36.3,8.01,1.86,15.1,5.12,19.51,12.6.79,1.33,1.81,2.85,3.12,3.49,3.2,1.59,6.61,2.77,9.98,3.99.68.25,1.57.06,2.34-.07,4.32-.75,8.64-1.51,12.95-2.34,4.66-.89,8.6-3.28,11.95-6.5,3.88-3.73,7.61-7.64,11.28-11.58,3.83-4.1,7.79-8.02,12.55-11.06.79-.5,1.44-1.24,2.43-2.11-.91-.68-1.47-1.22-2.12-1.57-4.08-2.2-8.43-3.6-12.99-4.39-4.91-.86-9.81-1.81-14.73-2.62-1.34-.22-2.75-.08-4.13-.11-.44-.66-.72-1.56-1.33-1.94-3.74-2.29-7.5-4.57-11.37-6.62-3.22-1.71-6.79-2.2-10.44-2.24-3.35-.04-6,1.07-8.56,3.42-5.57,5.13-11.46,9.91-17.33,14.72-1.68,1.38-3.7,2.33-5.57,3.48-.91.56-2.29.48-2.65,1.92,1.86.09,3.66.05,5.44.27,4.5.58,8.79-.25,12.85-2.04,3.08-1.37,5.99-3.15,8.93-4.82,1.55-.89,3-1.95,4.5-2.93ZM172.15,344.11c-1.99,4.34-4.11,8.63-5.92,13.05-1.52,3.69-2.43,7.64-4.06,11.27-1.9,4.21-2.08,8.51-1.5,12.9,1.39,10.7,3.11,21.34,6.27,31.7.93,3.04,1.41,6.22,2.02,9.35.14.71.25,1.69-1.19,1.69-2.59-4.04-3.75-8.7-4.87-13.33-1.18-4.85-2.18-9.74-3.02-14.66-.8-4.65-1.3-9.36-2.08-15.22-1.06,1.83-1.69,2.56-1.94,3.4-1.69,5.74-3.67,11.43-4.83,17.29-1.55,7.82-2.44,15.78-3.61,23.68-.33,2.23.21,4.3.83,6.45,1,3.44,1.66,6.98,2.32,10.5.15.81-.29,1.73-.56,3.11-3.54-2.52-1.24-6.61-3.74-9.11-1.87,8.74-2.89,17.41-3.73,26.11-.13,1.37.14,2.78.27,4.17.24,2.58.5,5.15.79,7.72.1.86-.41,2.04,1.22,2.42,1.63-1.9,3.27-3.9,5.01-5.81,5.32-5.84,9.76-12.16,11.38-20.08.04-.19.11-.39.19-.57.7-1.64,1.17-3.6,3.34-3.8,1.94-.18,2.58,1.61,3.5,2.86,1.27,1.71,1.79,3.98,3.92,5.48.99-1.44,1.76-2.79,2.76-3.95,1.54-1.76,3.45-1.9,5.32-.45,1.05.81,1.96,1.8,3.25,3.01.75-1.93,1.26-3.43,1.91-4.86.66-1.44,1.36-2.9,2.25-4.21,1.04-1.53,2.52-1.56,4.13-.37.87.64,1.11,2.27,2.4,1.86,3.08-4.95,6.04-9.66,8.92-14.42.5-.83.87-1.84.95-2.8.51-6.37.94-12.74,1.38-19.11.12-1.68-.4-3.14-1.59-4.36-.84-.86-1.62-1.76-2.46-2.63-9.18-9.54-15.2-20.98-19.82-33.23-1.56-4.13-2.37-8.43-2.58-12.87-.39-8.65.04-17.17,3.05-25.4.22-.61.11-1.35.19-2.46-4.08,3.76-5.55,5.85-6.29,9.68-1.48,7.65-2.87,15.31-1.54,23.17.6,3.54.9,7.13,1.25,10.71.2,2.05.71,4.18-.69,6.98-.7-1.79-1.3-2.82-1.48-3.91-.62-3.74-1.11-7.5-1.62-11.26-.91-6.59-.07-13.16.26-19.73l.25-.35-.21.39ZM118.09,328.43l.06.07c1.58-1.2,3.06-2.55,4.75-3.56,5.66-3.38,11.38-6.65,17.1-9.94,6.23-3.59,12.48-7.16,18.73-10.71,1.77-1,2.74-2.43,2.18-4.44-1.6-5.78-.87-11.47.35-17.19.18-.84-.09-1.77-.16-2.91-5.95.95-11.42,1.92-16.57,4.23-2.37,1.06-4.81,1.96-7.2,2.97-10.61,4.45-19.98,10.86-28.64,18.34-4.25,3.66-8.21,7.67-11.22,12.42-7.37,11.65-14.41,23.5-19.64,36.31-.44,1.08-.73,2.23-1.03,3.18,1.13,1.88,2.71,2.02,4.32,2.06,6.19.18,12.38.5,18.58.51,8.61.03,17.2-.55,25.53-2.86,6.15-1.7,12.21-3.76,18.27-5.75,5.95-1.95,11.4-4.91,16.15-8.97,5.62-4.8,11.05-9.81,16.54-14.76.7-.63,1.23-1.44,1.78-2.1-.42-.58-.58-1.04-.88-1.18-7.07-3.42-11.61-8.94-13.91-16.41-.26-.84-1.02-1.53-1.66-2.47-1.7.93-3.09,1.67-4.46,2.44-11.13,6.29-22.25,12.6-33.38,18.88-1.73.98-3.44,2.08-5.59,1.83ZM186.73,327.82c-.58.72-.93.99-1.07,1.34-4.88,12.34-5.65,25.02-1.47,37.53,5.43,16.26,14.95,29.96,28.45,40.71,2.17,1.73,4.63,3.13,7.02,4.56,5.14,3.08,10.31,6.09,15.49,9.09.96.56,2.02.96,2.97,1.4,2.71-5.12,5.47-9.77,7.71-14.65,7.21-15.74,9.71-32.02,4.74-48.94-3.51-11.97-9.16-22.97-15.84-33.46-.96-1.51-2.18-2.86-3.39-4.19-1.91-2.11-4.21-3.64-7.23-4.34-2.34,1.31-4.82,2.6-7.19,4.06-2.34,1.44-5.12,2.25-7.19,4.81,2.64,6.85,5.31,13.7,7.94,20.58,2.68,7.01,6.1,13.75,7.86,21.19-.9-.45-1.64-1.02-2.01-1.78-2.46-5.02-5.02-10-7.19-15.15-2.64-6.25-4.9-12.67-7.41-18.98-.72-1.8-1.03-3.93-3.39-5.09-5.9,2.32-12.36.45-18.81,1.29ZM188.94,254.86c6.3.25,12.24.49,18.16.73,1.66-1.54,1.93-3.59,2.53-5.46,1.47-4.56,2.67-9.21,4.37-13.69,1.19-3.14,2.97-6.06,4.59-9.02.31-.57,1.14-.85,2.25-1.64.12,2.26-.58,3.65-1.11,5.1-2.73,7.5-5.45,15-8.11,22.52-.37,1.05-.38,2.24-.57,3.46,4.47,2.28,8.67,4.43,12.79,6.54,6.74-3.93,12.19-8.96,17.96-13.54,1.38-1.1,2.54-2.56,3.56-4.03,3.18-4.59,6.36-9.2,9.33-13.93,2.78-4.42,5.25-9.14,5.67-14.37.55-6.7,2.28-13.43.33-20.2-.32-1.11-.05-2.38-.11-3.58-.07-1.39.02-2.84-.32-4.16-1.51-5.79-3.09-11.56-4.78-17.3-.3-1.02-1.2-1.86-1.78-2.72-2.55,1.19-4.65,2.39-6.89,3.16-9.68,3.34-18.77,7.97-27.44,13.29-16.04,9.82-26.18,24.28-31.6,42.15-.46,1.51-.85,3.14-.78,4.69.29,6.33.75,12.66,1.19,18.99.05.77.36,1.51.74,3.02ZM110.37,179.72c-.2,1.39-.55,2.73-.57,4.07-.08,4.19.02,8.38-.05,12.57-.32,19.2,4.83,37.03,13.2,54.12,4.12,8.41,10.44,14.48,18.61,18.82,5.89,3.13,12.2,4.89,18.74,5.94,1.32.21,2.73-.09,4.11-.15,1.84-2.58,3.59-5.01,5.31-7.45,1.81-2.56,4.21-4.75,5.27-8.03-1.41-1.8-2.71-3.55-4.11-5.23-3.33-3.98-6.78-7.86-10.06-11.89-3.53-4.33-6.93-8.77-10.34-13.2-.42-.55-.89-1.36.5-2.05,10.13,9.19,18.22,20.33,26.85,30.64.8,0,1.21.08,1.58-.01,4.32-1.12,4.49-1.2,4.31-5.67-.42-10.72-2.94-20.9-8.25-30.3-6.2-10.99-15.17-19.46-24.82-27.3-1.23-1-2.64-1.82-4.05-2.55-11.04-5.74-22.74-9.68-34.82-12.55-.18-.04-.38.05-1.43.21ZM267.64,285.8c-1.66,1.18-2.08,1.7-2.58,1.8-3.34.61-6.68,1.17-10.04,1.68-4.93.74-9.86,1.5-14.82,2.1-3.04.37-4.7,1.95-5.08,4.92-.65,5.05-2.54,9.62-5.22,13.92-.48.76-.6,1.75-1.02,3.05,2.48.67,4.54,1.39,6.66,1.76,3.73.65,7.51,1.03,11.26,1.62,9.6,1.5,19.09,1.69,28.32-2.02.92-.37,1.89-.64,2.84-.94,4.26-1.33,8.06-3.45,11.44-6.37,2.57-2.22,5.23-4.34,7.86-6.49,7.75-6.36,14.67-13.56,21.33-21.01.66-.73,1.16-1.6,1.74-2.42-.61-2.76-2.33-4.7-4.06-6.64-3.97-4.46-9.02-7.33-14.59-9.1-9.13-2.9-18.34-5.6-27.6-8.03-3.63-.95-7.58-1.67-11.25-1.27-12.26,1.32-23.85,4.92-34.18,11.9-.77.52-1.3,1.38-2.01,2.15.77,1.05,1.32,1.87,1.94,2.63,2.7,3.33,4.42,7.11,5.25,11.3.39,1.96.67,3.94,1.18,5.87.28,1.08.93,2.07,1.45,3.19,10.08-1.68,19.86-3.42,31.19-3.59ZM120.93,426.05c-.32-.25-.65-.49-.97-.74.37-.66.65-1.4,1.13-1.97,4.6-5.53,9.18-11.07,13.87-16.52,3.78-4.39,7.77-8.59,11.55-12.98,1.68-1.96,3.48-3.99,4.5-6.31,2.97-6.76,5.61-13.66,8.29-20.54.31-.8.14-1.8.21-3.19-1.66.52-2.8.8-3.88,1.21-7.69,2.92-14.85,6.88-21.88,11.11-2.22,1.34-4.44,2.7-6.7,3.97-.61.34-1.45.73-1.9-.35.21-.33.33-.78.62-.96,8.57-5.5,17.13-11.04,26.54-15.07,2.38-1.02,4.61-2.39,6.96-3.5,2.1-1,3.32-2.58,4.27-4.72,2.59-5.83,5.46-11.53,8.21-17.29.31-.66.58-1.33,1.46-3.33-1.87,1.38-2.65,1.88-3.34,2.47-2.89,2.46-5.71,5-8.63,7.43-4.33,3.59-9,6.76-14.29,8.66-7.7,2.77-15.43,5.56-23.34,7.59-6.99,1.8-12.45,5.42-16.37,11.23-4.59,6.8-8.27,14.13-10.98,21.9-.73,2.11-1.5,4.28-1.51,6.12,3.63-3.33,7.28-6.71,10.97-10.06,1.01-.91,1.97-2.07,3.63-1.43,1.36,1.45.73,2.98.11,4.44-1.33,3.12-2.74,6.21-4.14,9.3-3.88,8.53-5.6,17.45-4.77,26.82.06.69.39,1.35.83,2.81.91-1.57,1.42-2.39,1.87-3.25.55-1.06.95-2.22,1.6-3.21.86-1.33,1.81-2.61,2.88-3.77.77-.83,2.75-.22,2.94.91.26,1.56.35,3.16.39,4.74.1,4.19.11,8.38.21,12.57.04,1.7.4,3.34,1.48,5.25.59-1.83.89-3.2,1.49-4.42.29-.58,1.2-1.23,1.79-1.19.61.03,1.35.75,1.71,1.37.48.84.67,1.86.95,2.82,1.03,3.44,2,6.9,3.07,10.33.32,1.02.88,1.97,1.55,3.45.44-1.21.57-1.8.85-2.31,1.62-2.99,3.39-3.17,5.29-.46,1.25,1.77,2.33,3.66,3.52,5.54,2.27-1.22,4.29-2.31,6.06-3.26,1.05-6.79,2.12-13.29,3.06-19.8.94-6.52,1.78-13.05,2.6-19.58.81-6.43,2.28-12.77,3.03-20.05-5.79,4.44-9.77,9.42-14.11,14.01-4.36,4.61-8.47,9.47-12.69,14.22ZM198.06,126.97c-.18,1.29-.37,1.84-.31,2.37.77,7.14,1.6,14.27,2.38,21.41.87,7.96,1.88,15.88,5.71,23.11.32.61.85,1.12,1.84,2.39.19-1.86.42-2.8.35-3.72-.32-3.97-.72-7.94-1.1-11.9-.12-1.26-.5-2.57.99-4.1,3.81,8.94,2.75,17.93,3.47,26.69,3.79-7.62,2.27-15.47,1.13-23.26-1.77-12.08-6.97-22.66-14.46-32.98ZM59.54,129.46c.14,2.54,0,3.75.29,4.85,2.27,8.48,4.13,17.11,7.94,25.08,1.54,3.22,3.53,6.24,5.4,9.3.47.76,1.27,1.32,2.01,2.07.36-.71.67-1.03.67-1.35-.03-5.99.02-11.98-.2-17.97-.1-2.77-.43-5.61-1.21-8.25-.6-2.02-1.94-3.89-3.22-5.62-.8-1.09-2.06-1.88-3.21-2.66-2.44-1.64-4.94-3.19-8.48-5.45ZM35.27,198.2c1.08,0,1.67.11,2.2-.02,5.81-1.35,11.64-2.66,17.41-4.16,2.88-.75,5.77-1.64,8.45-2.9,2.49-1.17,4.91-2.69,6.98-4.5,2.17-1.9,4.14-4.18,4.58-7.57-3.47-.58-6.58-.32-9.71.38-11.27,2.52-20.28,8.94-28.6,16.55-.51.47-.75,1.22-1.33,2.21ZM273.66,233.11c10.09-6.32,27.87-32.69,30.9-41.96-.98-.41-1.98-.84-2.99-1.27.23.38.45.77.68,1.15-2.21,1.99-4.42,3.99-7.39,6.67-.05,1.59-.35,4.37-2.66,6.43-2.43,2.16-5.58,1.63-8.34,2.05-1.57,4.81-2.88,9.41-4.57,13.86-1.68,4.43-3.74,8.72-5.63,13.07ZM130.65,267.01c-1.46,2.09-2.67,3.66-3.7,5.34-1.12,1.84-2.64,3.52-2.77,5.72,1.12,2.84,2.19,5.57,3.35,8.51,7.52-3,14.87-5.94,22.23-8.88.17-.07.35-.23.43-.4.07-.15.02-.37.02-.83-3.16-1.29-6.51-2.48-9.69-4.01-3.2-1.54-6.23-3.43-9.87-5.46ZM4.93,162.56c.56,1.11.75,1.9,1.24,2.38,4.09,4.02,9.18,5.8,14.74,5.15,6.1-.71,12.11-2.13,18.15-3.29.3-.06.51-.55.76-.84-.14-.36-.18-.86-.44-1.06-3.4-2.61-7.22-4.27-11.56-4.21-4.38.06-8.76.28-13.12.62-3.11.24-6.19.78-9.78,1.26ZM313.72,155.69c-1.36-2.23-2.23-4.03-3.43-5.57-2.59-3.31-5.98-3.22-8.44.07-3.01,4.03-2.97,9.6.06,13.81.45.62.91,1.32,1.04,2.04.08.43-.4,1.26-.8,1.4-.7.24-1.55.17-2.32.08-2.54-.31-4.18,1.05-5.41,2.98-1.02,1.6-1.18,3.4-.24,5.11.91,1.64,2.62,1.6,4.21,1.69.39.02.8-.01,1.19-.08,2.09-.37,3.5-1.82,4.87-3.26.3-.31.12-1.07.15-1.43-1.02-1.55-3.29-.24-4.21-2.29,3.58-2.11,5.26-5.4,6.42-8.52-.03-2.21-2.51-3.25-1.24-5.71,1.6.85,3.08,1.63,4.55,2.41,1.2-.91,2.12-1.62,3.57-2.73ZM337.57,4.83c-1.39.72-2.3,1.1-3.1,1.63-5.07,3.3-9.18,7.57-12.51,12.6-3.28,4.97-6.52,9.97-9.74,14.99-.38.59-.51,1.35-.77,2.09.69.12,1.15.36,1.39.22,6.08-3.52,11.63-7.76,15.54-13.64,3.4-5.12,6.23-10.6,9.28-15.95.16-.27-.02-.73-.08-1.94ZM246.92,48.14c-.35-.03-.7-.05-1.05-.08,0,4.36-.21,8.74.04,13.08.56,9.54,1.34,19.06,2.08,28.58.06.75-.42,1.84.97,2.41.4-2.86.07-5.62.92-8.54.57.73.98,1.02,1,1.33.34,4.74.63,9.49.94,14.24.68-3.68,1.24-7.39,1.42-11.11.16-3.37.34-6.84-.26-10.13-1.82-9.96-4.02-19.86-6.07-29.78ZM285.26,54.37c5.16-9.09,8.83-29.43,6.88-37.08-6.04,7.51-10.79,25.31-8.92,34.3.33-1.78.6-3.12.83-4.47.27-1.57.46-3.16.76-4.72.24-1.29-.32-2.82,1.45-4.15,0,2.88.12,5.42-.03,7.96-.16,2.56-.59,5.1-.97,8.16ZM249.95,158.24c.95-.15,1.36-.1,1.64-.28,5.38-3.41,10.72-6.89,16.12-10.27,4.79-2.99,8.96-6.64,12.14-11.33.45-.67,1.72-1.25.71-2.41-6.78,2.68-27.05,15.3-27.73,17.25.47.53.93,1.06,1.48,1.69-1.44,1.77-2.77,3.39-4.36,5.35ZM228.29,129.58c3.18,4.25,2.81,9.4,4.54,14.29.7-3.83-.55-7.23-.92-10.7-1.1-10.35-3.94-20.33-6.57-30.35-.21-.8-.35-2.08-1.78-1.85-.16.18-.37.31-.4.46-.15.98-.32,1.96-.36,2.94-.39,9.71,2.26,18.93,4.54,28.22.05.22.49.34.78.53.06-1.22.11-2.38.16-3.53ZM68.75,212.57c.33.12.67.36.99.34,6.95-.35,13.91-.58,20.85-1.15,3.98-.33,7.8-1.58,11.2-3.79.76-.49,1.75-1.11,1.15-2.37-9.89-1.67-25.32,1.47-34.19,6.95ZM320.15,185.16c-.7-.55-1.23-.82-1.55-1.25-.46-.63-.61-1.58-1.18-2.01-.52-.39-1.63-.61-2.14-.31-2.59,1.53-3.15,5.17-1.24,7.2,2.36,2.51,7.43,3.63,10.56,2.26.52-.23,1.13-.64,1.34-1.12,1.45-3.27,2.8-6.58.73-9.92-4.46-1.02-4.8,2.88-6.53,5.14ZM94.92,162.79c-.25,1.12-.56,1.68-.47,2.18,1.39,8.06,3.92,15.73,8.06,22.83.39.67.9,1.31,1.88.76.93-6.45.39-12.55-3.9-17.94-1.34-1.68-2.15-3.78-3.33-5.61-.48-.75-1.28-1.29-2.24-2.22ZM335.11,168.3c-.98.34-1.64.41-2.11.75-2.11,1.53-2.71,2.93-2.03,4.87.75,2.15,2.16,3.74,4.26,4.71,1.51.69,2.74.32,3.44-1.14,1.43-2.97,1.64-6.11,1.07-9.3-.33-1.84-1.35-3.45-3.05-4.16-1.17-.49-2.66-.42-3.98-.28-.54.06-1,.94-1.55,1.51,1.2.92,2.09,1.61,3.94,3.04ZM195.89,285.76c3.87.59,7.53,1.07,11.31,1.03,1.48-2.62,2.59-5.03,1.78-8.03-1.16-.25-2.13-.41-3.07-.67-7.16-1.94-7.93-.91-10.25,5.84-.11.32.09.75.24,1.83ZM318.18,236.41c-2.33,4.54-2.14,8.31-.76,12.08.48,1.31,2.2,1.87,3.53,1.42,4.79-1.6,7.41-8.8,4.9-13.46-.32-.6-1.75-.75-2.05-.13-.68,1.4-1.2,2.87-1.88,4.27-.13.27-.65.34-1.38.69-.63-1.3-1.27-2.61-2.37-4.87ZM329.49,159.66c.57-.64,1.55-1.24,1.74-2.04.41-1.71.66-3.53.52-5.27-.29-3.48-3.78-6.27-6.98-5.92-1.95.21-3.23,1.46-4.33,2.88-1.2,1.56-2.14,3.23-1.43,5.35,2.1-.33.94-3.31,3.18-3.15q2.56,5.39,7.29,8.15ZM201.76,306.34c-1.81,3.12-4.54,5.54-4.32,9.66,3.05-.02,6.09,1.25,8.22-.96,2.2-2.28,4.55-4.8,4.57-8.7h-8.47ZM329.44,233.03c1.56,2.78,2.74,5.06,4.09,7.24,1.4,2.25,2.87,3.06,4.22,2.57,1.95-.71,2.49-2.48,2.85-4.21.19-.91.05-1.99-.25-2.89-1.29-3.89-3.92-6.33-8.04-6.98-.25-.04-.57.4-.91.65.58,1.12,1.17,2.26,1.97,3.8-1.44-.07-2.36-.11-3.92-.18ZM194.22,276.7c-2.75-1.06-5.12-.92-7.47-.89-1.49.02-2.69.66-3.47,1.93-1.01,1.64-2.47,3.14-1.99,5.52,2.9,2.13,6.19,1.84,9.78,1.39,1.56-2.23,2.66-4.67,3.15-7.95ZM197.05,306.75c-3.1-2.37-5.9-2.02-8.71-2.27-1.78,2.74-2.25,5.57-2.29,8.54,2.02,1.46,3.95,2.3,6.85,1.45,1.2-2.23,2.58-4.8,4.14-7.72ZM333.16,222.51c5.1-2.59,6.02-3.94,5.57-7.73-.3-2.53-1.97-3.89-4.48-3.66-3.01.28-6.5,3.69-6.61,6.67-.02.6.67,1.51,1.26,1.79.6.29,1.49-.02,2.25-.07q1.69-.11,2,2.99ZM312.1,234.53c-4.02,0-7.14,0-10.25,0-1.9,0-2.77,1.25-3.47,2.74-.85,1.83-.05,3.68,1.89,4.17.94.23,2,.4,2.92.21,3.8-.81,6.82-2.72,8.91-7.11ZM320.8,216.28c.07-4.74-1.01-8.03-3.55-10.76-1.58-1.71-3.95-1.38-4.75.77-.46,1.21-.64,2.72-.37,3.97.51,2.31,1.59,4.45,3.46,6.04.21.18.69.06,1.05.07,1.08-1.01-.25-3.39,2.44-3.78.44.94.91,1.94,1.72,3.68ZM191.49,295.16c-.7,1.19-1.19,1.81-1.46,2.53-.88,2.35-.34,3.54,1.87,3.95,2.31.43,4.66.69,7.12,1.05.68-.87,1.36-1.58,1.83-2.41.37-.65.48-1.45.75-2.32-3.03-2.16-6.51-1.67-10.11-2.8ZM205.87,266.93c-1.98,2-3.62,3.85-4.22,6.68,1.14.43,2.01.85,2.92,1.1,5.22,1.39,6.24.78,7.27-4.39.14-.71.02-1.47.02-2.44-2.23-.35-4.12-.65-5.99-.95ZM177.68,301.4c-.44,3.31-.93,6.04.79,8.46.92,1.3,2.32,2.1,4.33,1.44,1.25-2.33,1.55-4.96,1.7-7.67-1.98-1.42-3.97-1.94-6.82-2.23ZM199.94,266.98c-3.19-.43-6.08.13-8.84.83-1.91.49-3.09,2.22-3.34,4.72,1.56.18,2.86.39,4.17.45,1.55.07,3.11.02,4.42.02,1.7-1.93,3.27-3.4,3.59-6.02ZM310.63,220.84c-1.93-3.09-3.17-3.62-5.62-2.58-2.96,1.26-4.61,3.63-4.03,5.79.05.19.11.38.2.55,1.29,2.59,5.19,3.28,7.88,1.39-.59-2.18-3.94-2.13-3.93-5.15h5.51ZM187.48,294.49c-2.82-.63-4.91-1.18-7.04-1.55-1.3-.23-2.36.38-2.82,1.67-.49,1.37.12,2.92,1.52,3.47,1.66.64,3.4,1.08,5.13,1.48.51.12,1.12-.21,1.8-.36.4-1.33.78-2.62,1.4-4.71ZM197.87,289.17c-.64.04-2.05-.02-3.36.3-.55.14-1.23,1.1-1.24,1.69,0,.61.63,1.35,1.18,1.79.41.33,1.11.32,1.69.42,1.94.33,3.88.71,5.84.93,1.67.2,3.12-1.14,3.17-2.74.03-1.04-.96-1.98-2.4-2.13-1.37-.14-2.76-.16-4.88-.27ZM171.48,284.1c1.58-.1,2.75-.02,3.83-.3.7-.18,1.5-.76,1.84-1.38,1.01-1.85,2.44-3.59,2.26-5.86-4.58-1.54-6.24-.19-7.17,3.73-.26,1.1-.45,2.23-.76,3.81ZM185.53,268.06c-6.77-.63-8.43.18-9.38,4.32,6.33,1.15,6.75.97,9.38-4.32ZM211.59,286.94c.75.25,1.46.61,2.21.71,2.1.29,3.06-.36,3.37-2.33.18-1.17.38-2.45.07-3.54-.22-.76-1.2-1.5-2.01-1.86-1-.44-2.06.1-2.5,1.07-.81,1.8-1.46,3.68-1.13,5.95ZM204.33,302.37c2.48,1.1,4.65.85,6.81.52,1.36-.21,2.03-1.29,2.17-2.51.14-1.17-.81-1.68-1.81-2-4.29-1.37-5.18-.93-7.17,3.99ZM211.26,314.04c1.82,1.41,3.21.81,4.22-.62,1.36-1.93,2.41-4.04,2.78-6.3-1.49-1.46-2.82-1.2-3.69.11-1.4,2.11-2.81,4.27-3.3,6.8ZM178.95,288.51c.47.98.57,1.56.79,1.61,2.64.57,5.28,1.14,7.96,1.48.42.05,1.29-.98,1.39-1.6.08-.52-.6-1.63-1.05-1.69-2.86-.39-5.76-.79-9.09.2ZM219.93,312.29c4.9-1.52,5.42-2.09,6.42-6.77-1.63-1.01-3.09-.67-4.12.83-1.11,1.6-2.23,3.26-2.3,5.94ZM214.25,275.84c3.3.71,4.09.38,4.19-1.87.05-1.16.02-2.39-.33-3.47-.18-.55-1.11-1.02-1.79-1.16-.39-.08-1.19.46-1.36.89-.68,1.81-1.45,3.65-.72,5.62ZM224.8,285.47c-.17-.59-.22-1.47-.67-2.04-.44-.55-1.31-1.09-1.96-1.06-.58.03-1.44.76-1.61,1.34-.37,1.31-.5,2.71-.52,4.08-.01.92,1.7,1.98,2.78,1.66.63-.19,1.29-.84,1.59-1.45.33-.67.26-1.54.39-2.53ZM214.45,295.32c1.4-4.27.81-5.19-2.52-4.87-.74.07-1.67.32-2.11.83-.56.65-.72,1.65-1.23,2.94,2.15.4,3.84.72,5.86,1.1ZM192.23,260.6c-3.78.57-7,.97-10.36,3.78,4.28.05,8.02,1.26,10.36-3.78ZM173.97,307.18c0-2.74.12-4.48-.03-6.2-.14-1.64-.96-1.98-3.52-1.64.66,2.47-.27,5.45,3.56,7.84ZM309.49,181.52c-1.05.09-1.89.29-2.69.2-.87-.09-.31-2.11-2.08-1.44-.84,1.95-1.01,3.87.65,5.75,2.45-.53,3.15-2.37,4.12-4.52ZM224.32,278.01c.08-1.39.32-2.92.19-4.41-.05-.59-.93-1.11-1.43-1.66-.52.47-1.37.88-1.48,1.44-.22,1.12-.19,2.35.04,3.48.22,1.08,1.12,1.53,2.69,1.15ZM194.1,321.69c2.41.87,4.59.28,6.72-.69.38-.17.55-.79.89-1.29q-6.05-.83-7.6,1.98ZM220.82,291.8c-1.29-.06-2.32.82-2.34,2.16-.02,1.27.82,1.67,1.95,1.71,1.63.06,2.63-.54,2.72-1.65.09-1.11-1.01-2.16-2.33-2.22ZM204.06,262.55q-6.6-2.16-8.67.72c2.59.51,4.97.36,8.67-.72ZM240.23,161.94c.22.28.45.57.67.85,2.5-2.5,4.99-5,7.48-7.52.13-.13.23-.35.23-.52,0-.16-.16-.32-.37-.71-1.08.91-2.19,1.73-3.15,2.69-1.67,1.68-3.25,3.46-4.86,5.2ZM312.94,165.2c-.34-.59-.46-1.11-.74-1.21-.5-.18-1.27-.35-1.59-.09-.74.58-1.45,1.34-1.83,2.18-.25.56-.08,1.9.2,1.99.82.27,2.14.45,2.62,0,.75-.72.97-1.99,1.35-2.86ZM167.8,302.31q.12-5.65-3.39-7.02c.51,2.55.16,5.16,3.39,7.02ZM190.68,318.62c-1.38-.54-2.22-1.06-3.1-1.14-.61-.06-1.6.3-1.84.78-.29.55-.22,1.71.18,2.09.61.58,1.83,1.17,2.43.92.85-.36,1.38-1.49,2.33-2.64ZM217.01,302.88c1.33-.52,2.55-.9,3.64-1.5.34-.19.54-1.08.4-1.53-.12-.4-.78-.84-1.23-.89-2.3-.22-2.76.39-2.8,3.92ZM171.63,290.46c-.58.85-1.25,1.4-1.28,1.98-.03.69.31,1.58.81,2.05.49.46,1.49.84,2.06.64,1.1-.38,1.2-1.61.74-2.47-.41-.77-1.32-1.27-2.33-2.19ZM179.47,314.95c-1.28,1.5-.23,2.6.73,3.58.32.33,1.22.52,1.57.31.38-.23.63-1.02.59-1.54-.12-1.71-1.27-2.33-2.89-2.36ZM326.06,228.42c-.2-1.23-1.98-2.26-3.15-1.69-.41.2-.88,1-.77,1.35.2.62.72,1.35,1.29,1.59.88.38,1.9.29,2.51-.71.09-.15.08-.36.12-.54ZM319.06,163.1c1.28-.11,2.22-1.15,2.18-2.1-.04-.99-.78-1.33-1.63-1.32-1.36,0-2.58,1.27-2.06,2.23.32.6,1.14.93,1.5,1.2ZM318.8,167.38c-.96-.65-1.54-1.37-2.05-1.32-1.22.11-1.4,1.22-1.23,2.2.08.43.94,1.15,1,1.1.69-.47,1.29-1.08,2.27-1.98ZM228.3,299.05c-.88.1-1.81.06-2.6.37-.34.13-.4.99-.58,1.52.5.17,1.09.59,1.47.45.83-.31,1.96-.55,1.71-2.34ZM212.2,264.21c.02-.31.03-.62.05-.93-.56-.16-1.12-.41-1.69-.44-.49-.03-1,.19-1.5.3.32.19.63.45.98.55.71.22,1.44.35,2.16.52ZM171.99,288.24c.09.15.15.42.26.45.69.16,1.38.26,2.08.35.03,0,.1-.3.16-.46-.66-.18-1.32-.38-1.99-.53-.15-.03-.34.12-.51.19ZM211.03,318.77c-.07-.21-.14-.42-.22-.63-.53.11-1.09.15-1.58.36-.26.11-.4.51-.59.78.33.09.69.33.97.25.5-.15.95-.49,1.42-.75ZM317.91,227.28c.32-.47.69-.88.88-1.37.05-.13-.47-.48-.73-.72-.35.42-.74.81-1.02,1.27-.04.06.47.45.87.82ZM322.78,170.13c-.18-.53-.3-.86-.41-1.2-.37.28-.85.49-1.07.85-.13.21.15.67.24,1.02.42-.23.85-.46,1.24-.67ZM166.38,291.31c.21-.46.54-.95.46-1.03-.34-.34-.81-.57-1.23-.84-.15.29-.5.73-.41.84.3.39.75.67,1.19,1.03ZM227.88,294.23c-.29.27-.54.49-.78.71.24.21.47.59.72.6.24.01.49-.36.73-.56-.23-.25-.45-.5-.68-.75ZM227.96,290.62c.27.18.53.35.8.53.12-.29.39-.62.33-.87-.06-.22-.48-.36-.73-.53-.13.29-.26.58-.39.87ZM315.78,173.28c-.12.31-.25.62-.33.95-.01.04.27.15.42.23.13-.31.27-.62.36-.94,0-.04-.29-.16-.45-.24ZM173.08,311.66c-.04.32-.12.63-.09.94.01.11.39.31.43.27.21-.19.37-.44.55-.67-.29-.18-.59-.36-.88-.55ZM324.35,163.76c-.24-.17-.48-.34-.72-.51-.1.16-.31.34-.28.47.07.3.25.57.39.85.21-.27.41-.54.62-.81ZM314.03,161.2c.23-.21.47-.41.67-.65.03-.03-.16-.24-.24-.37-.24.22-.49.43-.7.66-.02.02.18.23.27.35ZM316.16,229.75c-.11.13-.22.26-.34.38.25.12.51.23.76.35.02-.17.11-.39.04-.5-.08-.13-.31-.16-.47-.23ZM229.01,138.47l.26-.07-.15-.32-.11.39ZM310.9,172.38c-.26-.13-.5-.26-.75-.39.08.17.12.41.25.49.1.06.32-.06.5-.11Z"/>
  <path d="M118.09,328.43c-.24.2-.49.39-.73.59.07-.14.11-.34.22-.4.16-.09.38-.08.57-.12,0,0-.06-.07-.06-.07Z"/>
  <path d="M117.43,429.62c-.25.24-.51.48-.76.72-.11-.27-.38-.69-.3-.78.21-.22.58-.29.88-.41.06.16.12.31.18.47Z"/>
  <path d="M313.43,307.71c1.45-1.5,2.98-2.85,5.14-3.21l-.05-.06c-.76,2.12-2.59,3.07-4.42,4.02-.22-.25-.45-.5-.67-.75Z"/>
  <path d="M318.58,304.5c.23-.2.47-.4.7-.6-.25.18-.5.36-.75.54,0,0,.05.06.05.06Z"/>
  <path d="M271.71,189.39c.65-.42,1.3-.83,1.89-1.21q-1.26-5.67-4.17-8.31c1.16-.55,2.21-1.06,3.27-1.53,2.7-1.22,4.11-3.06,3.03-6.16-.1-.27.24-.7.53-1.46,1.18,1.18,2.23,2.23,3.17,3.17,3.17-.08,2.57-3.47,4.55-4.56,1.49.11.93,1.37,1.15,2.2.25.94.24,2.25.86,2.73,3.13,2.45,4.32,5.63,3.7,9.2,1.3.69,2.13,1.14,3.54,1.88-1.39.77-2.17,1.3-3.03,1.65-.91.38-1.94.47-2.82.89-1.6.77-2.05,1.97-1.64,3.96.16.77.39,1.53.55,2.3.03.15-.15.35-.4.89-.62-.26-1.37-.4-1.85-.83-.58-.51-.89-1.31-1.39-1.93-.31-.4-.74-.71-1.07-1.02-1.98,1.38.21,4.83-3.03,5.28-1.98-1.71-.04-3.77-.53-5.61-.05-.18-.21-.33-.4-.64-2.81-1.34-4.27,2.57-6.94,2.01-.78-1.44.84-1.98,1.12-3.02,0,0-.1.09-.1.09ZM276.45,181.13c-.23.25-.65.5-.64.72.01.25.42.49.66.73.24-.24.66-.49.65-.72-.01-.25-.43-.49-.67-.73Z"/>
  <path d="M261.75,120.52c.73-.51,1.47-1.02,2.4-1.67.24,1.77-.85,2.02-1.61,2.54-.26-.29-.52-.58-.78-.87Z"/>
  <path d="M288.54,78.99c.4-.83.8-1.65,1.2-2.48.54,1.28.55,2.31-1.2,2.48Z"/>
</svg>