<?xml version="1.0" encoding="UTF-8"?>
<svg id="a" data-name="Layer 1" xmlns="http://www.w3.org/2000/svg" width="423.89" height="471.97" viewBox="0 0 423.89 471.97">
  <path d="M149.81,397.46c.1,1,.22,2.01.3,3.01.37,4.61-5.6,6.88-8.76,4.74-1.47-.99-2.69-2.34-4.1-3.6-1.12.86-2.14,1.85-3.32,2.52-3.71,2.11-8.28,1.34-10.95-1.98-1.11-1.38-1.99-3.07-2.53-4.76-.73-2.32-1.49-4.53-2.94-6.57-2.15-3.02-1.67-6.2.51-8.97,1.22-1.56,2.93-2.74,3.91-3.62.33-1.15.55-1.53.54-1.91-.17-6.65,2.75-10.32,9.44-10.59,4.68-.19,8.39-2.21,12.57-4.16-.42-1.38-.71-2.52-1.13-3.62-.94-2.45-2.03-4.84-2.91-7.31-1.65-4.64-2.34-9.4-1.2-14.28,1.11-4.71,2.27-9.4,3.4-14.1.18-.73.3-1.47.46-2.21-.67-.13-1.15-.38-1.37-.23-5.5,3.76-10.46,8.16-15.37,12.44.3,3.18.94,5.99.77,8.76-.61,10.08-1.72,20.1-6.39,29.32-3.02,5.96-5.52,12.12-6.83,18.71-.2.98-.38,2.02-.87,2.87-.35.6-1.2,1.29-1.8,1.26-.49-.02-1.14-.96-1.37-1.61-.25-.73-.06-1.59-.11-2.4-.25-4.62-.31-9.27-.82-13.87-.4-3.65-.5-7.21.22-10.82,1.34-6.75,3.13-13.35,6.15-19.58.42-.87.75-1.77,1.45-3.44-1.4.55-2.16.68-2.7,1.09-6.75,5.14-13.54,10.22-20.15,15.53-2.5,2-4.67,4.45-6.8,6.86-1.88,2.13-3.02,4.7-3.87,7.45-1.91,6.16-3.86,12.33-6.14,18.35-3.33,8.76-8.48,16.5-14.38,23.72-2.46,3.01-4.92,5.89-5.23,9.99-.04.56-.37,1.19-.77,1.59-.38.38-1.03.72-1.54.69-.49-.03-1.22-.46-1.37-.88-.34-.92-.56-1.95-.53-2.93.72-17.84,5.83-34.09,17.32-48.08,7.74-9.42,16.68-17.53,26.42-24.82,1.92-1.43,3.61-3.16,5.41-4.75.16-.11.32-.21.47-.32-.14.12-.28.25-.42.37-7.46,2.54-15,4.81-22.84,5.81-5.38.69-10.72,1.75-16.25.85-3.16-.51-6.46-.11-9.68-.3-1.78-.11-3.59-.44-5.3-.95-1.5-.44-1.81-2.28-.67-3.43.85-.85,1.76-1.7,2.79-2.29,2.45-1.39,4.92-2.8,7.52-3.88,6.17-2.57,12.58-4.39,19.26-5.04,1.2-.12,2.42-.19,3.63-.17,7.47.15,14.94.15,22.4.58,6.35.36,12.01-1.3,17.16-4.79,5.83-3.94,11.14-8.55,17.49-13.73-2.03.1-2.94.04-3.81.2-3.37.61-6.71,1.56-10.11,1.89-5.24.52-10.47.32-15.62-1.14-7.79-2.2-15.7-3.79-23.86-3.77-.98,0-1.98-.29-2.93-.57-.9-.26-1.4-1.8-.77-2.53.77-.89,1.6-1.87,2.62-2.38,6.96-3.51,14.38-5.42,22.18-5.2,8.51.24,16.88,1.34,24.77,4.99,2.71,1.26,5.78,1.77,8.72,2.49,3.75.92,7.23.37,10.19-2.31,3.14-2.84,6.28-5.69,9.38-8.58.36-.34.48-.94,1.07-2.15-8.27,4.09-16.5,4.4-24.77,4.41-1.41,0-2.92.17-4.22-.25-7.77-2.51-15.64-1.03-23.44-.6-4.94.28-9.66-.17-14.28-1.77-5.16-1.78-9.17-5.02-11.98-9.72-.82-1.38-1.66-2.76-2.63-4.38-1.31-.07-2.75-.42-4.05-.16-10,2.03-19.69.37-29.32-2.22-11.82-3.18-22.69-8.44-32.92-15.07-3.22-2.09-6.37-4.28-9.52-6.48-.82-.57-1.65-1.23-2.21-2.03-.4-.57-.56-1.46-.45-2.16.05-.36.9-.62,1.41-.88.16-.08.4-.06.6-.04,4.43.63,8.36-1,12.23-2.78,3.3-1.52,6.52-3.22,9.81-4.76,2.56-1.19,5.14-2.37,7.79-3.34,5.2-1.91,10.46-2.56,16.05-1.36,5.76,1.24,11.34,2.87,16.7,5.29,1.23.56,2.47,1.57,4.2.19-.99-3.98-2.66-7.18-7.44-7.94-3.38-.53-6.72-1.39-10.01-2.33-13.98-4.01-25.33-12.32-35.73-22.1-4.28-4.02-8.25-8.36-11.3-13.4-1.45-2.4-2.69-4.99-3.56-7.65-.97-2.95.9-4.75,3.88-4.08.79.18,1.59.37,2.31.7,9.83,4.47,20.1,3.83,30.36,2.44,9.68-1.3,19.3-1.97,28.84.79,2.71.78,5.34,1.83,8.01,2.76,4.38,1.53,8.18-1.03,8.32-5.62.01-.4-.08-.8-.13-1.2-.7-6.68,2.92-10.57,8.52-13.18,1.09-.51,2.22-.94,3.27-1.38,1.13-2.03.93-4.07.34-5.98-1.06-3.44.48-5.86,2.81-8,1.76-1.61,3.67-3.06,5.57-4.63-.57-.43-.85-.83-1.13-.83-12.75.35-25.43-.91-38.13-1.48-4.64-.2-9.29,0-13.93,0-1.21,0-2.43.06-3.63-.05-1.58-.15-2.33-1.77-1.41-3.14.78-1.16,1.63-2.35,2.68-3.25,4.74-4.08,9.54-8.1,14.38-12.07,1.24-1.02,2.64-1.92,4.1-2.58,11.14-5.05,22.69-8.57,35.05-8.26,4.41.11,8.8,1.09,13.2,1.66,1.13.15,2.26.24,4.68.48-1.84-1.56-2.71-2.32-3.6-3.04-11.81-9.62-20.95-21.24-26.74-35.39-1.22-2.99-2.61-5.91-3.95-8.85-2.13-4.68-5.05-8.71-9.36-11.67-.95-.65-1.68-1.6-2.9-2.79,1.03-.54,1.64-1.07,2.29-1.14.98-.11,2.03-.02,3,.19,8.88,1.89,17.77,3.77,26.62,5.76,11.29,2.54,21.13,7.74,29.51,15.83,7.02,6.78,13.35,14.09,18.41,22.41,4.19,6.89,7.95,14.05,11.9,21.1,2.65,4.73,4.97,9.66,8.48,14.44.96-.88,1.86-1.38,2.28-2.14,1.77-3.17,3.4-6.42,5.07-9.65,2.61-5.05,6.42-7.07,11.95-5.64,5.26,1.36,10.39,3.27,15.56,4.97,1.28.42,2.52.95,4.53,1.72-1.19-4.14-3.16-6.76-5.47-9.28-4.88-5.31-11.24-7.64-18.35-9.49-1.12,1.29-2.23,2.68-3.45,3.96-2.12,2.22-3.83,2.38-6.44.63-1-.67-2.02-1.41-2.75-2.34-1.86-2.37-3.44-4.91-5.96-6.76-1.39-1.03-1.37-2.93-.59-4.43.78-1.5,2.13-1.72,3.6-1.67,2.22.07,4.43.17,6.65.26,3.45.14,6.4,1.17,7.75,4.7.72,1.89,2.18,2.82,3.9,3.53,3.54,1.46,7.08,2.92,10.65,4.39.87-1.17-.26-1.8-.76-2.53-3.47-4.96-6.93-9.94-10.51-14.82-1.17-1.6-2.46-3.3-4.08-4.37-5.57-3.66-11.3-7.07-16.99-10.54-.84-.51-1.82-.79-2.9-1.24-1.3,1.06-2.52,2.08-3.77,3.07-1.84,1.45-3.84,1.45-5.57.04-1.37-1.12-2.75-2.48-3.51-4.04-1.41-2.87-2.37-5.94-4.03-8.72-.92-1.53.54-3.62,2.26-3.16,2.66.72,5.13.35,7.69-.19.96-.2,2.03-.13,3.02,0,3.14.42,5.09,2.51,5.29,5.64.09,1.4.01,2.81.01,4.55,4.06,2.96,9.03,4.69,13.37,7.34,1.21-.95.44-1.66.08-2.28-3.64-6.29-7.28-12.58-10.99-18.83-1.03-1.73-2.04-3.57-3.47-4.93-3.8-3.59-7.83-6.94-11.55-10.19-1.08.06-1.69.02-2.27.15-5.55,1.19-8.92-.14-11.89-4.63-1.73-2.62-2.26-5.59-2.61-8.6-.13-1.1,1.43-2.52,2.45-2.08,2.34,1.02,4.72.67,7.12.78,3.73.17,6.19,2.51,7.14,6.29q1.43,5.72,6.95,9.84c1.12-.41.69-1.2.44-1.91-2.3-6.68-4.63-13.34-6.91-20.02-.92-2.71-2.16-4.92-4.7-6.74-6.48-4.65-6.94-13.16-1.25-18.87,1.23-1.23,1.83-2.5,2.32-4.07.5-1.61,1.67-2.17,3.26-1.98,1.4.16,2.21.99,2.32,2.35.16,1.83.59,3.5,1.44,5.18,2.23,4.41,2.29,9.06.13,13.44-1.58,3.21-1.36,6.05-.11,9.23,2.58,6.58,4.89,13.26,7.35,19.88.49,1.31,1.15,2.55,1.7,3.77,1.58.04,1.03-1.05,1.1-1.65.31-2.8.63-5.61.78-8.42.09-1.78-.09-3.58-.17-5.37-.1-2.2-.47-4.43-.28-6.61.21-2.43,1.16-4.63,3.3-6.22,1.26-.94,2.11-2.43,3.37-3.37.69-.52,1.88-.65,2.79-.52,1.1.16,1.53,1.17,1.56,2.28.07,2.41.15,4.81.22,7.22.08,2.84.04,5.64-1.14,8.32-1.01,2.28-2.13,4.38-4.83,5-1.93.45-2.53,1.91-2.55,3.63-.05,4.03-.03,8.07.04,12.1.01.77.27,1.61.63,2.3,4.31,8.19,8.88,16.23,14.42,23.58,1.43-.43.97-1.32.88-2.03-.12-1-.5-1.99-.5-2.98-.02-5.54-.96-10.78-4.04-15.56-.83-1.29-1.05-3.04-1.32-4.62-.36-2.12.12-4.19,2.06-5.32,1.92-1.11,2.73-2.71,3.41-4.67.24-.68,1.52-1.32,2.38-1.39,1.09-.09,1.78.89,1.84,2,.1,1.9.71,3.44,2.16,4.8,2.7,2.53,2.83,5.87,1.66,9-3.07,8.25-2.22,16.68-1.63,25.11.11,1.59.49,3.24,1.14,4.69,3.07,6.77,6.25,13.5,11.36,19.01,1.67-.49,1.17-1.68,1.09-2.54-.26-2.81-.52-5.64-1.07-8.4-.3-1.52-.93-3.11-1.84-4.35-3.69-5.01-3.54-10.04-.62-15.3.76-1.37,1.1-2.97,1.67-4.45.59-1.55,1.79-2.42,3.17-2.31,1.45.11,2.24,1.14,2.34,2.37.19,2.31,1.17,4.08,2.53,5.94,4.43,6.07,3.47,11.36-2.6,16.18-.3.24-.52.59-.98,1.12-.08,10.84,2.12,21.38,6.99,31.34,2.04,4.17,4.21,8.28,6.27,12.44.94,1.91,2.24,3.48,4.38,3.85,7.11,1.22,11.9,5.6,15.79,11.28.22.33.52.61.83.85.14.11.39.08.82.16,1.95-4.56,2.7-9.02.3-13.84-3.03-6.08-3.89-12.64-3.63-19.44.4-10.32-.3-20.59-2.7-30.68-.75-3.14-1.86-6.18-2.7-9.3-.69-2.55.79-4,3.28-3.18,1.72.57,3.4,1.3,5,2.15,1.58.84,3.04,1.91,4.77,3.03,1.18-1.6.54-3.15.28-4.61-1.31-7.35-2.74-14.68-4-22.04-.34-1.96-.34-4-.31-6.01.02-1.3,1.89-2.07,2.7-1.09,1.39,1.68,2.86,3.43,3.72,5.4,3.29,7.61,5.82,15.49,7.34,23.66.36,1.96.74,3.91,1.37,5.86,1.03-7.88,1.82-15.75,1.57-23.7-.06-1.9-.74-3.46-1.57-5.11-1.36-2.68-2.53-5.48-3.59-8.29-1.7-4.53-3.17-9.16-4.87-13.69-3.52-9.35-5.18-19.06-5.91-28.97-.06-.8-.02-1.61.07-2.4.14-1.16,1.96-1.96,2.84-1.15,1.16,1.08,2.34,2.25,3.14,3.6,3.1,5.22,5.88,10.59,7.19,16.6.33,1.53.82,3.02,1.26,4.59,1.72-.82,1.33-2.2,1.46-3.32.65-6.05,2.07-11.92,3.94-17.7,1.92-5.93,5.56-10.71,9.9-15.02.4-.4,1.05-.54,1.52-.77,1.33.38,1.55,1.3,1.35,2.37-.18.99-.43,1.97-.73,2.93-3.92,12.52-7.89,25.03-11.76,37.56-.71,2.3-1.29,4.69-1.5,7.07-.56,6.43-.61,12.89,0,19.33.07.71.22,1.41.53,3.36.69-2.2,1.05-3.11,1.26-4.05,2.06-9.24,6.46-17.36,11.98-24.94,1.9-2.61,3.9-5.15,5.9-7.69.62-.79,1.27-1.63,2.1-2.13.58-.35,1.55-.34,2.23-.13.36.11.72,1.03.65,1.53-.2,1.38-.47,2.8-.99,4.09-3.23,8.05-6.48,16.1-9.85,24.1-1.41,3.35-3,6.62-4.69,9.84-1.68,3.21-3.36,6.46-5.45,9.4-2.05,2.88-3.42,5.86-3.87,9.37-.87,6.8-1.94,13.58-2.81,20.38-.45,3.52,1,6.57,2.72,10.25,1.05-1.49,1.77-2.4,2.37-3.38,4.65-7.6,10.07-14.65,15.75-21.48,1.4-1.68,3.17-3.06,4.87-4.46.7-.58,2.33.39,2.24,1.29-.12,1.19-.21,2.43-.65,3.52-5.23,12.95-10.57,25.84-20.73,35.94-1.38,1.37-1.98,2.93-2.01,4.86-.28,18.9-3.53,37.33-8.78,55.44-.1.35-.01.76-.01,2.01,1.72-2.75,3.13-4.85,4.37-7.05,3.47-6.16,6.95-12.29,11.27-17.93,1.93-2.52,3.17-5.61,4.54-8.53,4.82-10.31,7.59-21.27,9.95-32.34,1.77-8.31,3.84-16.49,7.41-24.27,5.91-12.9,15.16-22.8,27.05-30.27,7.01-4.41,14.31-8.35,21.42-12.59,3.12-1.86,6.09-3.96,9.14-5.92.67-.43,1.38-.82,2.11-1.13.89-.37,2.21.47,2.26,1.41.03.6.08,1.22-.06,1.79-.33,1.37-.68,2.75-1.16,4.08-3.24,8.96-5.22,18.22-6.9,27.57-.5,2.77-1.25,5.51-2.05,8.21-1.41,4.75-4.06,8.78-7.65,12.18-1.9,1.8-3.98,3.43-5.94,5.17-5.59,4.96-11.15,9.94-16.73,14.9-3.63,3.22-7.33,6.35-10.9,9.63-3.42,3.14-6.93,6.22-10.02,9.67-7.28,8.12-14.45,16.35-21.43,24.73-4.51,5.42-7.87,11.63-11.08,17.83,1.61,1.34,2.56.07,3.52-.37,5.32-2.44,10.5-5.18,15.88-7.46,8.64-3.66,17.67-5.66,27.11-5.55,1.58.02,3.17-.18,5.11-.29.67-1.97,1.36-3.83,1.93-5.72,2.19-7.15,4.64-14.21,8.06-20.88.91-1.78,2.01-3.5,3.22-5.09.35-.47,1.43-.6,2.13-.51.42.05.93.77,1.08,1.29.23.75.29,1.6.22,2.38-.65,7.64-1.3,15.28-2.05,22.91-.27,2.77-.83,5.52-1.29,8.46,1.7.85,3.09,1.55,4.66,2.33,1.05-.78,2.07-1.4,2.9-2.21,1.16-1.12,2.09-2.48,3.26-3.59,5.64-5.36,8.36-12.28,10.42-19.51,1.05-3.68,1.74-7.47,2.64-11.19.71-2.94,1.43-5.88,2.24-8.8,2.55-9.13,5.13-18.26,7.74-27.38.33-1.15.83-2.26,1.36-3.34.12-.25.69-.42,1.03-.4.34.03.8.27.96.55.28.51.49,1.12.51,1.7.05,1.61.13,3.25-.07,4.84-1.51,11.8-2.41,23.7-6.02,35.14-.24.75-.42,1.51-.63,2.29,1.75.73,2.21-.73,2.84-1.53,5.25-6.68,9.84-13.81,14.01-21.21,4.56-8.09,9.14-16.17,13.75-24.24,4.24-7.43,10.01-13.67,15.81-19.86.94-1.01,2.2-1.76,3.41-2.46.37-.21,1.26-.01,1.57.32.32.35.25,1.08.3,1.64.02.18-.11.39-.21.56-4.06,6.74-7.93,13.61-12.28,20.16-2.43,3.67-5.54,6.92-8.55,10.17-2.07,2.24-3.99,4.52-5.48,7.19-3.65,6.52-7.42,12.97-11.12,19.46-.27.48-.4,1.04-.62,1.61,1.4.41,1.87-.72,2.43-1.36,3.47-4,7.53-7.29,11.93-10.22,3.36-2.24,6.55-4.74,9.99-6.86,2.03-1.25,4.32-2.13,6.59-2.91,1.48-.51,2.86,1.16,2.16,2.57-.7,1.43-1.46,2.96-2.57,4.06-2.72,2.69-5.46,5.42-8.55,7.64-6.23,4.47-12.66,8.69-19.1,12.86-2.53,1.64-5.28,2.97-8.02,4.25-2.81,1.32-5.07,3.16-7.03,5.58-4.05,5.01-8.29,9.87-12.51,14.85,1.14.68,1.77-.39,2.53-.77,8.14-4.04,16.25-8.14,24.39-12.18,1.26-.62,2.59-1.21,3.96-1.49,1.86-.39,3.86-1.86,5.63.11.93,1.03.04,2.54-2.81,4.71-1.61,1.22-3.27,2.37-4.96,3.47-8.98,5.83-17.97,11.64-26.96,17.45-1.01.65-2.03,1.27-3.11,1.94,3.13,2.58,7.58,3.8,16.87,5.6,5.93,1.15,11.5-1.29,17.47-1.31-.05.87.12,1.61-.16,1.93-.66.73-1.5,1.33-2.34,1.86-5.31,3.32-10.64,6.6-15.96,9.9-3.46,2.15-7.08,3.87-11.13,4.61-.75.14-1.45.52-2.57.94,1.21,1.71,2.29,3.09,3.2,4.57.92,1.5,1.67,3.1,2.58,4.83,2.05-1.33,3.84-2.62,5.74-3.7,2.37-1.34,4.93-2.18,7.36-.22,2.38,1.92,2.28,4.59,1.62,7.23-.34,1.35-.98,2.62-1.45,3.84.82,1.97,2.57,1.92,4.08,2.29,1.36.34,2.74.62,4.03.91,1.27-.87.57-1.81.32-2.71-.47-1.74-1.24-3.46-1.34-5.23-.24-4.35,2.9-6.39,6.73-4.44,1.41.72,2.65,1.83,3.84,2.89,1.03.92,1.88,2.03,2.73,2.96,1.78-.2,1.75-1.75,2.52-2.59,1.5-1.61,2.81-3.49,4.58-4.72,2.93-2.05,6.14-.57,6.84,2.97.52,2.61.3,5.22-.64,7.75-.62,1.67-1.2,3.35-1.76,4.93,1.41,1.32,2.45.03,3.56,0,2.4-.08,4.84-.45,7.2-.15,2.38.31,3.92,2.08,4.31,4.5.34,2.06-.89,3.57-2.49,4.5-2.43,1.4-5,2.6-7.6,3.67-1.82.75-3.8,1.12-6.08,1.77,1.39,1.51,2.71,2.71,3.74,4.11,2.38,3.23,1.57,6.2-2.1,7.81-1.45.64-3.02,1.02-4.89,1.64.22,4.73-1.68,8.86-4.41,12.99,1.76.87,3.21,1.5,4.57,2.29,2.67,1.55,4.92,3.56,6.19,6.45,1.3,2.98-.14,5.81-3.34,6.46-1.37.28-2.81.18-4.22.25-1.38.06-2.76.11-4.59.19.35,2.28.74,4.2.93,6.14.39,4.09-1.12,6.72-4.64,8.31-2.37,1.07-4.31.73-5.94-1.34-.98-1.25-1.77-2.71-2.39-4.18-.7-1.66-1.1-3.44-1.76-5.58-2.66,1.07-4.28,3.52-6.67,4.8-2.49,1.33-4.95,2.7-7.64,4.17-.88,2.03-1.88,4.2-.99,6.66,2.09,1.21,4.03.41,6.01.19,8.04-.92,16.11-1.56,24.06.6,1.91.52,3.76,1.44,5.45,2.47,1.55.94,1.39,3.2-.34,3.91-2.19.9-4.56,1.37-7.11,2.09,1.11,1.37,3,1.64,4.51,2.43,4.55,2.4,8.45,5.52,11.31,9.83,1.96,2.95,1.84,3.54-1.05,7.01,1.75,2.78,3.59,5.64,5.37,8.53,1.09,1.77,1.87,3.56.52,5.63-.93,1.43.1,2.75.7,3.96,1.47,2.97,2.17,6.03,2,9.36-.43,8.23,3.39,13.85,10.82,17.16.37.16.73.35,1.09.53v2.42c-1.17.17-2.5.78-3.48.43-5.39-1.9-11.07-2.18-16.61-3.2-3.57-.66-7.08-1.58-10.59-2.37-.97,1.19-1.72,2.84-2.96,3.42-1.31.61-3.15.47-4.67.19-1.76-.33-3.44-1.13-5.12-1.8-1.68-.67-3.32-1.42-5.1-2.19-1.84,1.36-3.6,2.66-5.25,3.88-.62,2.16.71,3.63,1.35,5.28,1.02,2.63,2.21,5.2,3.1,7.87.43,1.3.52,2.78.44,4.16-.11,1.94-1.18,2.63-3.76,2.81-.39.03-.78.09-1.61.18-.37,2.22-.84,4.56-1.15,6.92-.54,4.25-1.54,8.37-3.77,12.05-2.24,3.7-2.94,7.45-1.28,11.54.22.55.25,1.18.32,1.78.11,1.02-1.21,2.02-2.05,1.47-1.33-.87-2.76-1.74-3.79-2.92-4.04-4.61-8.86-8.23-13.88-11.65-1.99-1.36-3.84-2.92-5.66-4.33-.56.13-1.03.11-1.31.33-2.06,1.64-3.75.9-5.29-.78-1.35-1.47-2.65-2.99-3.9-4.41-5.43,1.82-6.57,1.63-10-2.54-1.78-2.16-3.15-4.67-4.64-7.06-.94-1.5-1.77-3.07-2.57-4.47-3.02.03-4.94,1.67-7.05,2.77-4.32,2.24-8.72,4.13-13.56,5.04-4.04.76-7.98,1.06-12.01.11-1.52-.36-3.12-.37-5.03-.57.59,3.24,1.99,5.7,3.04,8.29,2.13,5.23,4.29,10.46,6.32,15.73,1.61,4.18,2.41,8.53,2.39,13.03-.02,4.24.09,8.48.04,12.72-.05,4.03-.38,8.05.84,12.02.59,1.92-.74,3.21-2.7,2.8-6.14-1.31-11.17-4.57-15.29-9.22-5.39-6.09-9.6-12.96-13.28-20.2-3.54-6.98-5.26-14.37-5.49-22.15-.04-1.21-.03-2.42-.03-3.63,0-3.43,0-6.86,0-11.07-1.01,1.59-1.27,2.82-1.7,3.96-3.18,8.6-7.74,16.44-13.45,23.58-4.34,5.42-9.66,9.87-15.97,12.77-6.6,3.04-11.09,7.91-14.34,14.19-1.2,2.33-2.42,4.66-3.7,6.95-.59,1.04-1.29,2.04-2.08,2.94-.76.87-2.54.67-3.21-.34-.44-.66-.93-1.39-1.04-2.14-.95-6.38-2.14-12.76-2.64-19.18-1.11-14.34,2.86-27.59,9.61-40.08,1.91-3.54,4.23-6.87,6.37-10.29.74-1.18,1.49-2.35,2.39-3.76-2.98-3.02-6.56-4.67-10.48-6.61-.33,2.61-.13,5.1-1.05,7.06-.97,2.07-3.01,3.63-4.86,5.72.19,1.41.58,3.19.64,4.98.16,5.49-3.69,8.16-8.8,6.15-1.48-.58-2.88-1.39-4.71-2.3-.63,1.59-1.19,2.97-1.74,4.36,1.33,1.38,2.52,2.46,3.54,3.7,2.95,3.59,3.88,7.5,1.36,11.72-.77,1.28-1.1,2.52-.8,4.01.24,1.17.34,2.42.23,3.61-.44,4.62-3.41,7.24-8.09,7.18-1.39-.02-2.78-.23-4.24-.35-.88.95-1.64,1.89-2.51,2.71-4.69,4.38-9.73,4.78-14.67.8-1.52-1.22-3.09-1.68-4.81-2.25-5.35-1.77-7.69-5.59-6.67-11.21.35-1.92.3-3.51-.54-5.22-1.71-3.44-1.11-6.61,1.23-9.6.84-1.08,1.82-2.34,1.97-3.61.58-4.73,3.45-7.06,7.72-8.2.37-.1.71-.33,1.42-.68-1.15-2.87-2.31-5.78-3.47-8.7-.09-.15-.18-.3-.26-.44.1.13.21.27.31.4ZM372.94,236.26c.12.08.24.16.37.24l-.41-.2c-.44-.22-.88-.45-.27-.14-.65-.2-.17-.05.31.1ZM383.95,139.42c2.3-1.21,4.66-2.29,6.87-3.64,4.31-2.64,4.27-2.7,6.18-5.69-4.75,3.24-9.46,5.48-13.21,9.15-.7.38-1.4.76-2.1,1.14.14.23.28.45.42.68.62-.54,1.23-1.09,1.85-1.63ZM354.72,156.24c3.39-5.78,5.67-15.46,5.37-22.75-3.4,8.61-4.8,14.67-5.3,22.8-.22.28-.46.54-.64.84-.08.14-.06.34-.08.52.19-.12.48-.19.53-.35.11-.33.09-.7.12-1.06ZM143.75,299.27c2.81-.08,5.71.2,8.42-.36,2.7-.56,5.27-1.86,7.8-3.05,1.16-.55,2.73-1,2.74-3.05-1.55-.55-3.05-.5-4.58.19-4.77,2.13-9.55,4.23-14.33,6.34l-2.3.28c.06.2.12.39.17.59.69-.31,1.38-.62,2.07-.93ZM280.83,47.27c-3.55,2.91-5.27,7.05-7.29,10.95-3.4,6.56-4.13,9.33-3.6,12.82,2.6-5.14,5.16-9.91,7.44-14.82,1.35-2.9,2.27-6.01,3.38-9.02.13-.1.28-.17.38-.3.07-.09.06-.23.09-.35-.13.24-.26.47-.39.71ZM274.76,345.28c.4.83.8,1.65,1.2,2.48.03.6.13,1.21.09,1.81-.38,5.25-1.86,6.63-7.1,6.69-.57,0-1.14.12-1.9.21-.6,3.13,1.61,6.18.15,10.09-2.2-4.56-2.94-8.67-3.71-12.75-.9-4.75-1.66-9.52-2.6-14.27-.12-.61-.85-1.5-1.37-1.56-1.04-.12-1.19.91-1.11,1.72.38,4.01.79,8.02,1.24,12.02,1.05,9.46-.44,18.49-4.54,27.09-.68,1.43-1.18,2.94-1.87,4.69,2.1,3.25,4.17,6.46,6.26,9.66,3.45,5.29,8.39,8.78,14.22,10.78,7.57,2.6,15.03,2.86,21.74-2.67,1.7-1.4,3.73-2.4,5.54-3.68,1.47-1.04,3.07-2.05,4.22-3.39,4.76-5.54,8.77-11.59,11.17-18.56,1.19-3.45,1.76-7.03,1.56-10.71-.6-11.16-3.94-21.35-10.61-30.4-1.59-2.15-3.39-4.06-5.86-5.11-5.01-2.11-10.02-4.27-15.15-6.07-2.41-.85-5.09-.93-7.9-1.4-.85,1.6-1.55,2.93-2.33,4.4,1.54,1.53,2.75,2.87,4.1,4.06,1.32,1.16,2.82,1.49,4.44.46,1.02-.64,2.05-1.31,3.15-1.79,2.44-1.08,4.5.29,4.48,2.99,0,.99-.21,2-.5,2.94-.33,1.06-.86,2.06-1.25,2.96,1.82,1.53,3.29,2.78,4.77,4.02-1.06.53-1.88.55-2.48.2-3.31-1.9-6.61-3.84-9.85-5.87-2.9-1.81-5.71-3.77-8.59-5.62-.28-.18-.76-.06-1.5-.09-.65.97-1.4,2.08-2.27,3.36,1.39,2.18,2.69,4.21,3.97,6.25,1.29,2.05,2.53,4.13,3.86,6.15,1.44,2.19,3,4.31,4.42,6.51,1.25,1.94,3.08,3.55,4.17,6.53-2.89-1.13-4.06-3-5.42-4.65-1.91-2.31-3.81-4.65-5.71-6.97-.4-.82-.8-1.65-1.2-2.47-1.52-2.76-2.96-5.57-4.6-8.25-.68-1.11-1.91-1.24-3.18-.75-2.54.99-3.35,2.67-2.14,5.14.67,1.38,1.73,2.56,2.59,3.8,2.68,0,5.04,0,7.39,0ZM131.66,381.76c-1.81.05-3.61.07-5.42.15-1.73.08-3.06.93-4.04,2.3-.83,1.16-1.57,2.38-.51,3.97.46.11,1.03.4,1.58.36,1.86-.12,3.73-.29,4.5,1.96.64,1.88-.68,2.86-1.83,4.06-1.81,1.9-1.41,3.93.79,5.57,1.55,1.15,3.08.81,4.57-.98,1.16-1.38,2.3-2.79,3.56-4.07.48-.49,1.27-.67,2.22-1.15.43,1.3.68,2.23,1.05,3.12.61,1.47,1.15,3,2,4.33,1.09,1.71,2.85,2.11,4.79,1.66,1.16-.27,2.07-1.55,1.96-2.7-.43-4.67-3.72-7.78-8.67-8.18-4.02-.32-6.33-2.36-6.82-6.26-.17-1.37.12-2.8.2-4.2,1.73-2.01,3.57-4.42,6.48-3.6,3.62,1.03,6.6-.53,9.58-1.02,1.68-2.27,2.03-4.34,1-6.58-.71-1.56-1.75-2.73-3.58-2.86-1.93-.13-3.6.37-4.6,2.22-.63,1.17-1.28,2.34-2.05,3.77-1.2-.72-2.09-1.14-2.85-1.73-2.8-2.19-4.8-2.2-7.35.04-1.51,1.33-1.52,3.45.37,4.46,2.29,1.23,3.22,2.89,3.05,5.35ZM254.05,128.47c.67,1.44,1.66,2.83,1.95,4.34.8,4.15,1.63,8.34,1.87,12.54.49,8.46.6,16.94.89,25.41.03.78.15,1.56.23,2.34.8-.59,1.02-1.26,1.13-1.95,1.93-11.99,3.14-24.03,2.33-36.18-.24-3.6-.93-7.21-1.81-10.71-.99-3.91-2.34-7.73-3.7-11.53-2.51-7.04-7.06-12.64-12.7-17.41-.71-.6-1.61-1.34-2.58-.38,1.02,5.99,2.07,11.92,3.03,17.87,1.16,7.21.97,14.49,1.01,21.76.02,2.82-.12,5.76.63,8.42,2.24,7.91,5.78,15.33,9.78,24.07-.16-9.02.55-16.62-.5-24.23-.66-4.78-1-9.61-1.49-14.42l-.08.06ZM386.31,333.19c-5.21.83-10.18-1.46-16.16-1.38,1.27,1.13,1.95,1.79,2.69,2.37,3.98,3.09,8.01,6.12,11.93,9.28,1.06.85,1.84,2.06,2.74,3.1-.95.04-1.89.08-3.32.15,1.29,2.53,2.44,4.62,3.44,6.78.94,2.06,2.55,4,1.79,6.95-2.7-1.81-3.38-4.46-4.53-6.73q-7.02-13.86-20.05-22.44c-2.98-1.96-5.96-3.93-10.24-5.96,2.75,3.36,4.8,5.79,6.76,8.29,3.73,4.76,3.7,4.78,4.57,8.75-1.65-1.74-2.93-2.96-4.06-4.31-2.71-3.26-5.31-6.61-8.04-9.86-1.14-1.36-2.19-2.96-4.89-3.16-1.72,1.39-4.52,2.08-6.44,4.71,1.88,1.09,3.46,1.93,4.97,2.88,4.44,2.79,8.94,5.51,13.26,8.48,4.68,3.23,8.77,7.15,11.91,11.94.86,1.32,1.47,2.84,1.97,4.35.37,1.12-.96,2.56-2.11,2.35-1.71-.31-3.4-.8-5.61-1.34,2.3,2.73,4.32,4.95,6.14,7.32,2.07,2.7,1.63,6.11,2.03,9,5.77,4.07,7.51,4.83,11.17,4.76-.86-1.33-1.66-2.47-2.34-3.67-.49-.87-1-1.81-1.16-2.77-.11-.68.15-1.7.64-2.11.47-.4,1.5-.43,2.16-.23.73.22,1.37.82,1.98,1.35,6.79,5.89,15.14,6.89,23.47,7.9.2-.47.38-.7.32-.81-2.56-4.9-4.22-9.96-3.61-15.62.11-1.03-.52-2.48-1.31-3.2-1.57-1.44-3.37-2.78-6.23-2.89.95,4.89,4.12,8.82,4.35,14.43-2.27-1.98-2.82-3.93-3.61-5.72-1.14-2.58-2.23-5.19-3.37-7.77-.99-2.24-2.41-4.03-4.41-5.61-2.15-1.7-3.76-4.08-5.61-6.17.57.17,1.21.24,1.71.53,4.17,2.46,8.3,5,12.49,7.42.72.42,1.57,1.48,2.81.21-.6-1.21-1.2-2.47-1.85-3.7q-1.98-3.73-.67-8.33c-1.84-2.24-3.85-4.74-5.93-7.18-1.04-1.23-2.32-2.28-3.26-3.57-.37-.51-.42-1.7-.07-2.15.37-.47,1.42-.62,2.14-.54.76.08,1.46.66,2.22.9.77.24,1.52,1.43,2.58.1-1.8-2.85-4.53-4.6-7.36-6.1-2.85-1.51-5.87-2.69-8.83-3.98-1.48-.64-3.02-1.14-4.46-1.86-.44-.22-.99-1.12-.85-1.4.3-.62.95-1.37,1.56-1.49,1.37-.26,2.81-.16,4.22-.2,2.42-.07,4.85-.08,7.27-.21.73-.04,1.65-.13,1.59-1.64-3.95-1.81-8.27-2.48-12.71-2.81-6.1-.46-12.08.67-18.1,1.23-.94.09-2.21.44-2.68,1.12-1.91,2.74-4.51,5.03-6.06,8.41,3.46,1.96,6.29,4.31,9.81,5.37,4.83,1.45,9.76,2.56,14.57,4.05,2.86.89,6.08.57,8.6,2.55l.06-.07ZM263.84,198.75c1.51-.57,3.05-1.04,4.51-1.72,10.15-4.72,20.9-7.36,31.88-9.21,3.07-.52,4.3-.31,7.26.83-5.43,1.03-10.77,1.92-16.05,3.07-5.33,1.16-10.67,2.36-16.05,5.09.81.16,1.01.25,1.2.23.8-.1,1.6-.22,2.39-.34,8.08-1.23,16.11-1.26,23.96,1.27,5.95,1.92,11.86,3.97,17.77,6.02,5.53,1.93,11.12,3.57,16.91,4.62,8.14,1.48,15.64,0,22.69-4.16,2.26-1.33,4.43-2.82,6.59-4.31.71-.49,1.95-.78,1.36-2.33-5.83-.27-11.51-1.62-17.05-3.53-7.44-2.56-14.93-5-22.26-7.82-10.13-3.9-20.48-4.17-30.99-2.42-11.53,1.92-21.84,7.04-31.93,12.63-.85.47-1.51,1.3-2.25,1.97-.54.21-1.09.4-1.61.65-.15.07-.24.29-.35.44.26.06.61.26.76.15.47-.32.86-.76,1.28-1.15ZM50.35,218.12c2.19.24,4.41.32,6.56.75,3.36.68,6.65,1.7,10,2.41,2.31.49,4.19-.53,4.65-2.79.92-4.48,1.87-8.99,1.86-13.29-.43-.5-.54-.69-.71-.79-.52-.3-1.05-.6-1.61-.84-9.5-4.12-19.36-5.3-29.63-4-5.79.73-11.66,1.34-17.48,1.26-5.84-.08-11.64-1.2-17.12-3.48-.48-.2-1.12-.03-2.03-.03.08.93-.09,1.79.23,2.38,1.36,2.47,2.66,5.01,4.35,7.25,8.56,11.27,19.32,20.03,31.66,26.84,5.69,3.14,11.85,5.13,18.17,6.61,1.75.41,3.59.92,4.77-.48.79-5.51,1.52-10.65,2.31-16.17-1.82-1.97-4.85-1.93-7.45-2.85-2.82-1-5.98-.97-8.51-2.85l-.05.07ZM292.88,147.76c4.11-3.56,8.19-7.15,12.33-10.69,9.97-8.52,19.1-18.01,29.63-25.89.8-.6,1.51-1.34,2.24-2.03,3.3-3.11,5.72-6.8,7.04-11.14.76-2.5,1.39-5.06,1.91-7.62,1.58-7.71,2.91-15.47,5.53-22.93.25-.72.54-1.57-1.07-2.05-1.44,1.62-2.99,3.43-4.6,5.18-2.59,2.82-5.21,5.6-7.81,8.4-.2-.18-.4-.36-.61-.54,1.65-4.04,5.71-6.51,7.7-11.67-8.99,5.38-17.33,9.88-25.12,15.18-8.25,5.62-14.82,13.04-19.6,21.89-3.56,6.59-6.13,13.56-7.98,20.83-2.29,8.97-4.85,17.88-7.27,26.82-.14.53-.09,1.12-.19,2.63,1.11-1.48,1.76-2.2,2.25-3.01,3.88-6.36,7.68-12.78,11.62-19.11,4.47-7.19,9.04-14.31,13.63-21.42.4-.62.79-1.98,2.39-1.03-.61,1.11-1.15,2.17-1.75,3.19-5.81,9.91-11.64,19.81-17.44,29.73-1.01,1.73-1.86,3.56-2.78,5.34-.38.37-.77.74-1.14,1.13-.12.13-.17.32-.25.48.26-.05.68-.01.77-.16.26-.46.39-.99.56-1.5ZM356.78,387.01c-1.04-.61-2.12-1.17-3.12-1.84-1.17-.79-2.21-1.77-3.41-2.52-.9-.57-1.39-2.05-3.18-1.35,2.41,5.36,4.82,10.66,7.19,15.98,1.15,2.58,2.26,5.17,3.32,7.78.26.65.69,1.54-.93,1.84-.43-.74-.95-1.55-1.38-2.4-1.48-2.87-2.91-5.76-4.4-8.63-.34-.66-.69-1.49-1.98-.94-.08,2.9-.13,5.92-.29,8.92-.04.68-.03,1.73-1.39,1.53-1.45-1.68-.82-3.78-.99-5.71-.45-5.01-.75-10.05-1.38-15.04-.51-4.05-3.15-8.36-6.51-11.31-.47.94-.9,1.82-1.34,2.7-1.94,3.87-2.68,7.75-1.88,12.23.77,4.31.34,8.84.36,13.28,0,.68-.05,1.7-1.68,1.44-2.17-4.57-.3-10.19-2.87-15.16-2.69,2.19-4.99,4.44-7.65,6.12-2.67,1.69-5.7,2.82-8.51,4.17,1.48,6.44,3.41,9.63,7.59,12.69.34-.18.75-.29,1.01-.55,2.61-2.59,3.55-2.67,5.73-.27,1.32,1.45,2.53,2.99,3.84,4.55.5-.66.75-.95.96-1.26.11-.16.11-.4.22-.56,1.12-1.52,2.32-1.74,3.45-.64.29.28.61.56.8.9,2.64,4.77,7.04,7.67,11.29,10.76,2.12,1.54,4.07,3.31,6.1,4.96.73.59,1.49,1.15,2.33,1.8,1.01-2.81,1.58-5.41,2.82-7.64,2.73-4.88,3.93-10.1,4.53-15.57.22-2,.63-3.98,1.04-5.95.33-1.57,1.38-2.36,3-2.48.56-.04,1.1-.34,2.06-.66-.61-1.8-1.09-3.51-1.77-5.14-1.09-2.61-2.43-5.11-3.42-7.75-.55-1.45-1.06-3.16-.79-4.61.39-2.04,2.64-1.31,4.07-1.83.33-.12.55-.52.99-.97-.33-3.22-4.04-4.8-4.6-7.82,1.57-2.23,3.52.96,5.1-.84-.68-2.67-2.32-4.68-4.26-6.47-2.67-2.46-5.46-4.8-8.08-7.31-.94-.9-1.57-2.13-2.77-3.81,1.88,0,3.11-.33,4.04.06,2.79,1.17,5.44,2.66,8.18,3.93.79.36,1.74,1.12,2.85-.33-1.53-1.98-2.96-4.19-4.74-6.05-7.07-7.4-15.74-12.57-24.69-17.28-1.18-.62-2.72-.83-4.07-.75-2,.11-3.96.75-5.96.98-2.13.25-4.29.29-7.24.47,1.13,1.05,1.63,1.59,2.2,2.04,5.52,4.33,9.83,9.57,12.09,16.28.71,2.1,2.04,3.35,3.93,4.31,4.32,2.19,8.61,4.44,12.87,6.75.95.52,2.33.87,2.09,2.93-.97-.26-1.92-.38-2.74-.77-4-1.93-7.95-3.95-11.95-5.88-.81-.39-1.76-.49-2.84-.77-.14,2.25-.01,4.09-.4,5.82-.75,3.31.46,5.96,2.43,8.38,1.27,1.56,2.66,3.05,4.15,4.39,3.75,3.37,7.58,6.64,11.38,9.96-.27.3-.54.6-.8.91ZM120.88,267.54c1.01.08,2.05,0,3.01.26,8.03,2.09,15.73.57,24.31-1.92-3.08-.6-5.25-1.02-7.42-1.45-5.76-1.13-11.49-2.53-16.64-5.38-7.76-4.3-15.35-8.89-22.95-13.48-1.43-.86-2.8-1.37-4.45-1.62-6.18-.92-12.01.9-17.87,2.22-1.64.37-3.38,1.58-4.46,2.91-2.79,3.43-3.59,7.54-3.31,11.94.23,3.67,1.54,6.61,4.71,8.65,2.35,1.51,3.54,3.77,4.02,6.49.39,2.18.79,4.37,1.35,6.52,2.19,8.32,7.31,13.82,15.81,15.76,2.33.53,4.81.65,7.21.57,7.25-.26,14.5-1.02,21.74-1,7.82.03,15.22-1.6,22.48-4.19,6.7-2.39,12.86-5.84,18.53-10.12,1.1-.83,2.42-1.81,2.85-3,.59-1.64.57-3.56.56-5.36,0-1.48.95-3.19-.9-4.61-2.28.52-4.29,1.89-6.45,2.9-6.64,3.13-13.64,5.1-20.96,5.39-6.65.26-13.33.21-19.98-.14-7.97-.42-15.38-2.88-21.98-7.5v.02c1.35.29,2.83.33,4.06.91,7.69,3.56,15.78,4.51,24.14,4.12,2.81-.13,5.64.04,8.45-.06,4.42-.16,8.79-.55,13.14-1.6,7.74-1.87,14.55-5.7,21.43-9.42.18-.1.12-.64.21-1.22-.84.14-1.78.03-2.33.44-3.57,2.72-7.73,3.09-11.97,3.37-2,.13-3.98.54-5.97.8-7.17.94-14.29,2.32-21.59,1.8-3.26-.24-6.37-.76-9.15-2.57l.37-.46ZM312.32,301.74l-.06-.08c-1.03.56-2.01,1.31-3.11,1.66-2.88.92-5.85,1.58-8.72,2.52-4.2,1.37-7.2,4.04-8.97,8.8,2.06.23,3.59.48,5.12.55,1.81.09,3.64-.05,5.45.05,1.42.07,3.02-.46,4.47.85-1.82,1.52-3.68,1.26-5.45,1.32-4.85.17-9.69.3-14.54.46-.2,0-.43.03-.58.13-.09.06-.04.31-.07.68,1.13.27,2.31.46,3.43.82,5.93,1.95,12.01,3.55,17.72,6.02,6.64,2.88,13.39,4.21,20.57,4.26,12.3.1,20.26-6.78,26.78-16.12.67-.96,1.13-2.18,1.33-3.35,1.33-7.52,2.85-14.92,1.5-22.76-1.81-10.44-7.77-17.45-16.36-22.73-1.85-1.14-4.03-2.35-6.11-2.43-6.24-.24-12.6-.6-18.73.3-12.13,1.79-22.29,8.05-31.47,15.9-1.16,1-1.87,2.56-2.7,3.91-3.49,5.69-4.05,12.56-7.63,17.97,1.04,1.46,1.99,1.13,2.86.55,3.87-2.56,7.64-5.3,11.59-7.72,3.25-1.99,6.45-4.2,10.33-4.9,0,0-.06-.07-.06-.07-.47.63-.82,1.44-1.43,1.86-2.14,1.48-4.39,2.82-6.57,4.24-3.87,2.52-7.77,4.99-11.56,7.62-2.04,1.41-2.35,2.85-1.47,4.62.85,1.71,2.27,2.35,4.59,1.79,1.73-.42,3.4-1.09,5.1-1.66.51-1.25.78-2.5,1.46-3.43.92-1.26,2.02-2.48,3.3-3.35,1.85-1.27,3.07-.89,4.61,1,.74.9,1.43,1.83,2.22,2.85,1.55-.28,2.9-.55,4.27-.77,2.96-.48,5.92-.93,8.88-1.39ZM214.13,296.79c2.03.86,4.11,1.62,6.09,2.6,5.26,2.6,10.59,4.98,16.32,6.36.96.23,1.99.34,2.96.24.45-.05.93-.68,1.22-1.15.15-.25.04-.86-.18-1.1-1.64-1.77-3.52-3.34-4.97-5.25-1.83-2.41-3.37-4.95-6.43-6.14-1.74-.67-2.04-2.36-1.57-4.11.41-1.51.84-3.02,1.2-4.29-2.6-3.36-4.97-6.37-7.27-9.43-.43-.57-.98-1.34.27-2.16,2.19,1.66,3.78,4,5.63,6.08,2.15,2.41,4.08,5.07,7.47,5.24,2.61,5.35,6.02,9.47,12.48,15.14,2.03-.49,4-1.31,5.88-3.15-1.5-5.83-.04-12.04-2.64-17.77-.3-.66-.22-1.65.03-2.36.71-2.02-.23-3.53-1.33-5.01-2.3-3.1-4.35-6.34-5.44-10.07-.79-2.7-1.5-5.44-2.06-8.2-.45-2.24-1.2-4.3-2.83-5.9-3.06-3.03-6.49-5.53-10.91-6.06-4.8-.58-9.63-.88-14.43-1.47-5.77-.71-10.2,1.5-13.87,5.77-1.97,2.29-4.08,4.48-6.1,6.72-2.2,2.44-4.76,4.33-7.89,5.43-1.14.4-2.24.92-3.33,1.44-2.09.98-3.38,2.59-4.43,4.71-4.18,8.4-4.16,17.09-2.23,25.97.53,2.43,1.82,4.45,3.59,6.19,2.45,2.41,4.9,4.81,7.26,7.29,2.14,2.24,4.75,3.69,7.54,4.93,6.81,3.02,14.15,2.66,21.2,3.8,1.24-1.18,2.17-2.25,3.28-3.09,2.74-2.07,4.58-2.01,6.71.76,2.75,3.6,6.4,3.87,10.3,3.33,1.56-.21,2.39-1.41,1.72-3.59-1.62-.58-3.52-1.19-5.36-1.93-6.35-2.55-12.86-4.79-18-9.6l.12-.14ZM176.49,256.15c-.73-.42-1.53-.99-2.41-1.36-4.09-1.72-8.32-3.16-12.29-5.13-4.32-2.15-8.62-4.48-12.55-7.28-7.47-5.32-12.58-12.46-14.78-21.49-.17-.71-.09-1.48-.14-2.5,2.3,1.1,2.42,3.13,3.16,4.69,4.44,9.44,10.97,16.93,20.32,21.71,5.74,2.94,11.66,5.54,17.52,8.24,1.09.5,2.28.84,3.46,1.05,1.18.21,2.46.25,3.16-1.54-.62-1-1.22-2.27-2.1-3.31-2.24-2.6-4.51-5.18-6.94-7.6-5.58-5.56-11.28-10.99-16.88-16.53-1.05-1.03-2.49-1.9-2.71-3.65.45-.06.69-.17.8-.09,1.13.82,2.31,1.61,3.35,2.53,9.4,8.27,18.72,16.64,27.1,25.97.79.88,1.73,2.11,2.96,1.05.57-.49.69-1.89.5-2.76-.38-1.76-.96-3.52-1.73-5.15-3.03-6.37-5.98-12.8-9.32-19.01-2.76-5.15-6.04-10.03-9.03-15.06-.44-.74-1.39-1.6-.07-2.83,1.07,1.21,2.18,2.34,3.15,3.58,7.28,9.3,12.83,19.56,16.97,30.6.28.76.54,1.53.9,2.25.38.75.24,1.99,2.06,1.97-.31-3.29-.3-6.55-.98-9.66-1.86-8.47-4.28-16.82-5.97-25.32-1.84-9.24-5.71-17.62-9.74-25.99-2.11-4.38-5.44-7.53-9.96-9.26-7.16-2.75-14.39-5.31-21.55-8.05-3.73-1.43-7.05-.76-10.38,1.2-4.84,2.84-8.69,6.48-10.98,11.71-3.11,7.11-7.7,13.09-13.39,18.43-4.56,4.29-7.84,9.73-10.21,15.59-.52,1.29-.86,2.71-1.02,4.09-.84,7.18.08,14.06,3.41,20.59,1.61,3.17,3.74,5.7,6.84,7.46,4.04,2.3,8.11,4.54,12.03,7.04,11.24,7.16,23.68,10.01,36.79,10.65,5.3.26,10.47-.56,15.57-1.91,2.41-.64,4.52-1.79,5.1-4.92ZM236.5,321.04c-2.39,0-4.82.28-7.17-.05-7.59-1.08-15.15-2.41-22.72-3.6-2.19-.34-4.39-.63-6.59-.81-6.69-.54-13.29.49-19.92,1.08-12.16,1.07-20.14,11.51-17.44,23.34,1.35,5.92,3.41,11.61,6.74,16.78,2.07,3.22,3.92,6.6,5.86,9.9,4.49,7.6,10.46,13.23,19.48,15.05,3.56.71,7.02,1.79,10.12,3.87,7.21,4.86,15.52,6.6,23.87,8.21,4.89.95,9.09-.41,12.92-3.61,8.33-6.96,12.77-16.11,14.54-26.5,1.36-7.99.5-16.12-.11-24.18-.07-.95-.41-2.14-1.06-2.71-.83-.71-2.14-1.24-3.19-1.17-.7.05-1.66,1.19-1.9,2.02-.75,2.54-1.03,5.17.06,7.72.81,1.9,1.26,3.83.86,5.9-.52,2.71-2.76,4.16-5.4,3.27-1.62-.55-3.1-1.52-4.51-2.23-3.29,4.36-6.43,8.55-9.62,12.71-.43.56-.94,1.48-2.17.32,1.52-2.29,3.17-4.58,4.6-6.99,3.61-6.07,7.18-12.16,10.62-18.32,1.06-1.89,2.06-3.94,1.75-6.52-1.01-.8-2.08-1.69-3.21-2.51-.29-.21-.76-.18-1.35-.31-2.71,2.49-5.43,5.16-8.35,7.6-2.79,2.33-5.76,4.44-8.7,6.58-3.1,2.26-6.24,4.47-9.4,6.66q-6.77,4.71-10.17,4.95c1.12-1.1,1.88-2.02,2.8-2.73,3.05-2.32,6.14-4.61,9.26-6.83,4.28-3.05,8.64-5.98,12.9-9.05,1.74-1.26,3.72-2.35,4.86-4.8-2.73-1.14-4.76-.91-6.65,1.19-1.33,1.48-3.18,1.62-5.06,1.15-1.87-.47-3.36-1.31-3.79-3.42-.11-.54-.57-1.01-1.01-1.75-2.75-.09-5.56-.19-8.37-.26-3.64-.08-7.27-.09-10.91-.24-.8-.03-1.97.1-2.17-1.37,6.33,0,12.57,0,18.81,0,5.5,0,10.79-1.31,16.07-2.62,1.55-.38,3.05-1.07,4.48-1.78,1.53-.76,1.54-1.46.33-3.95ZM195.42,238.37c.59-1,1.26-1.95,1.73-2.99,3.57-7.76,5.62-15.97,6.95-24.37.63-3.98,1.02-8,1.58-12,.13-.94.29-2.02,1.99-1.95.92,3.58.03,7.15-.45,10.68-.48,3.59-1.07,7.19-1.9,10.71-.88,3.72-1.96,7.42-3.22,11.03-1.18,3.36-2.71,6.6-4.57,11.04,1.95-1.29,2.84-2.02,3.85-2.52,2.15-1.07,4.29-2.3,6.57-2.92,1.9-.51,4.08-.61,6.01-.24,5.86,1.09,9.58-2.02,12.95-6.05,1.68-2.01,3.3-4.08,5.04-6.05,9.61-10.94,14.77-23.38,13.66-38.22-.48-6.44-2.29-12.28-5.75-17.62-3.05-4.72-7-8.33-12.87-9.24-3.45-.53-5.84-2.58-7.51-5.56-.49-.88-1.09-1.71-1.5-2.63-1.92-4.3-5.24-7.21-9.5-8.87-5.25-2.05-10.64-3.75-15.99-5.56-.75-.25-1.6-.21-2.4-.32-3.18-.41-5.34.71-6.78,3.75-2.86,6.02-6.19,11.78-10.64,16.85-.88,1-1.8,2.59-1.64,3.76.79,5.55,1.95,11.06,2.99,16.58.03.18.2.35.32.51,3.18,4,5.07,8.7,7.21,13.26.37.8.4,2.04,2.21,1.86-.52-6.38.94-12.88-1.73-19.07-.59-.35-1.07-.79-1.63-.93-2.17-.55-3.59-1.85-4.05-4.03-.51-2.48-.05-4.83,1.45-6.9,1.16-1.6,2.98-2,4.86-1.17,3.19,1.42,4.74,3.79,4.12,7.2-.41,2.25-.45,4.4-.03,6.59,1,5.22.87,10.44.1,15.66-.94,6.39-1.56,12.74.66,19.07.86,2.45,1.08,5.13,1.66,7.68.21.92.63,1.79.95,2.69,1.09-5.74,1.57-11.36,1.86-16.99.27-5.24.29-10.49.51-15.73.07-1.53-.26-3.29,1.45-4.34,1.52,4.17,1.97,7.02,1.56,11.75-.85,9.85-1.91,19.68-2.64,29.53-.38,5.22.32,10.42,1.68,15.5.04.14.32.22.84.54ZM309.47,244.36c-.87-3.6-2.77-6.46-4.27-9.49-1.47-2.96-3.7-5.21-6.47-7.04-5.11-3.37-10.63-5.7-16.49-7.4-2.89-.84-5.57-.87-8.19.56-3.22,1.75-6.54,1.76-9.97.81-9.43-2.61-17.93-.05-26.01,4.73-2.83,1.67-5.08,3.99-6.83,6.75-.5.78-.7,1.76-1.14,2.89,1.37.68,2.41,1.22,3.47,1.71,7.07,3.26,11.7,8.2,12.53,16.4.55,5.49,2.98,10.42,6.28,14.9,1.11,1.51,2.11,2.63,4.26,2.9,2.69.34,3.97,2.75,3.4,5.33-.21.97-.56,1.97-1.08,2.81-1.16,1.86-1.11,3.83-.79,5.85.31,1.98.68,3.94,1.08,6.25,1.59-1.88,1.69-3.87,2.05-5.76.38-1.98.76-3.96,1.11-5.94.38-2.18.74-4.37,1.08-6.56.3-1.99.6-3.99.83-5.99.23-2,.38-4.01.54-6.02.16-2.01.27-4.03.44-6.04.19-2.21.47-4.41.6-6.62.12-2.01-.03-4.05.18-6.05.18-1.75-.86-3.75.98-5.34.17.64.42,1.2.45,1.76.63,12.12.06,24.19-1.72,36.19-.8,5.38-1.8,10.73-2.65,16.1-.14.9-.49,2.06,1.28,2.42.56-.94,1.31-1.89,1.74-2.97,3.38-8.45,6.04-17.1,7.24-26.16.1-.79-.36-1.97,1.51-2.31,0,1.72.07,3.31-.02,4.88-.09,1.4-.35,2.79-.55,4.19-.21,1.42-.87,2.85.08,4.94,4.18-10.24,10.99-17.54,19.43-23.35,3.81-2.62,7.97-4.74,11.97-7.09,1.18-.69,2.34-1.42,3.68-2.24ZM163.5,140.48c-.56-1.92-.64-2.72-1-3.37-4.68-8.48-9.14-17.1-14.18-25.37-5.17-8.49-11.78-15.87-19.23-22.48-5.83-5.17-12.31-9.22-19.86-11.24-7.01-1.88-14.12-3.41-21.19-5.03-1.9-.44-3.86-.65-5.87-.98,0,.81-.16,1.31.02,1.56,4.35,5.92,7.05,12.67,9.87,19.37,5.12,12.16,13.05,22.26,22.85,30.93,5.62,4.97,12.03,8.84,18.79,12.11,1.45.7,2.96,1.46,4.63.8,2.55-1.02,5.07-2.12,7.95-3.34-1.01-1.26-1.68-2.24-2.5-3.08-4.67-4.75-9.41-9.44-14.05-14.23-.67-.69-2.18-1.22-1.23-3.04,1.07.85,2.06,1.53,2.91,2.35,3.5,3.36,7.16,6.57,10.37,10.19,4.62,5.21,9.92,9.39,16.18,12.37,1.43.68,2.89,1.31,5.52,2.49ZM196.9,462.56c1.21-1.7,1.88-2.44,2.32-3.3,3.94-7.64,9.68-13.1,17.73-16.53,7.15-3.05,12.9-8.17,17.42-14.6,3.61-5.13,6.85-10.47,9.48-16.16,2.57-5.56,3.82-11.46,4.11-17.55.04-.89-.3-1.8-.57-3.3-1.96,1.39-3.42,2.38-4.83,3.44-2.62,1.97-5.46,3.8-8.71,3.95-3.73.17-5.81,2.18-7.84,4.84-7.07,9.32-14.36,18.48-20.51,28.46-.39.64-.96,1.17-1.84,2.23,0-1.19-.19-1.82.03-2.25,1.29-2.51,2.48-5.09,4.06-7.42,5.09-7.51,10.35-14.91,15.5-22.38.75-1.09,1.27-2.35,2.11-3.94-3.36-.94-6.24-1.81-9.14-2.54-1.49-.38-2.79.19-3.78,1.35-.91,1.07-1.81,2.17-2.65,3.3-4.49,6.03-7.83,12.7-10.57,19.67-5.32,13.53-6.26,27.36-2.34,42.73ZM7.33,261.67c12.57,9.21,25.33,15.92,39.37,20.16,8.62,2.61,17.41,3.15,26.33,2.56,1.64-.11,3.24-.26,4.4-2.25-.26-1.65-.35-3.71-.97-5.58-.48-1.45-1.42-2.91-2.54-3.95-2.23-2.06-4.74-3.6-7.99-3.85-6.82-.51-13.62-1.37-20.44-1.89-4.18-.32-8.37-.34-13.53-2.47,2.33-.1,3.46-.24,4.58-.18,5.02.29,10.05.62,15.07.97,1.81.13,3.6.41,5.41.56,2.61.21,5.22.43,7.83.49.9.02,1.81-.44,2.96-.75-.45-3.25-.4-6.25-1.4-9.06-6.22-3.86-12.89-6.14-19.85-7.44-4.59-.86-9.27-.62-13.7,1.18-2.99,1.21-5.91,2.57-8.87,3.87-4.61,2.03-9.22,4.06-13.82,6.1-.7.31-1.36.72-2.82,1.51ZM51.06,153.56c2.37.21,3.75.36,5.14.44,7.45.42,14.9.86,22.35,1.21,7.05.32,14.1.57,21.15.75,1.8.05,3.62-.23,5.4-.5,2.33-.36,3.99-1.61,5.16-3.75,1.05-1.93,2.46-3.66,3.71-5.49.52-.77,1.7-1.27.96-2.75-8.06-.92-16.34.31-24.53-1.08.92-.41,1.86-.63,2.79-.63,11.89.1,23.81-1.05,35.67.52,2.27.3,3.9-.37,5.1-2.24-5.68-6.71-28.52-10.47-41.07-8.6-16.01,2.39-30.73,7.89-41.84,22.13ZM253.58,389.28c-.44,1.35-.75,1.87-.77,2.4-.3,9.48-.79,18.96-.77,28.44,0,5.86,1.09,11.69,3.42,17.13,3.68,8.6,8.6,16.49,14.93,23.38,2.14,2.33,4.98,4.04,7.61,5.89.7.49,1.79.44,2.54.6.46-.73.85-1.06.85-1.39.03-6.46.28-12.93-.06-19.37-.28-5.22-.92-10.46-3.14-15.34-3.51-7.72-6.93-15.48-10.47-23.18-2.06-4.47-5.27-8.01-9.73-11.39.64,5.97,2.51,11.02,3.86,16.19,1.36,5.19,3.26,10.26,3.52,15.71-3.45-5.76-4.66-12.3-6.48-18.6-1.89-6.52-2.95-13.27-5.31-20.48ZM308.59,204.12c-1.67-.79-2.52-1.29-3.43-1.61-9-3.12-18.28-3.27-27.42-1.43-6.46,1.3-12.74,3.7-18.96,5.99-2.78,1.03-5.32,2.84-7.76,4.59-3.43,2.46-6.68,5.18-9.98,7.82-1.22.97-2.36,2.04-3.68,3.19.56.21.76.38.89.33.57-.21,1.12-.46,1.66-.72,8.02-3.83,16.26-5.82,25.15-3.39,2.57.71,5.18.53,7.65-.74,3.82-1.96,7.75-1.9,11.72-.46,3.21,1.17,6.42,2.34,9.64,3.5,1.29.47,2.6.9,4.17,1.44,4.41-5.53,6.75-11.96,10.36-18.5ZM342.07,213.01c-6.75-1.67-13.23-3.07-19.58-4.92-2.97-.87-4.99-.24-6.97,1.92-3.95,4.3-8.04,8.49-12.02,12.76-.63.68-1.02,1.59-1.53,2.42,1.64,1.72,3.16,3.06,4.36,4.64,1.21,1.59,2.27,3.35,3.09,5.17,2.86,6.35,6.92,11.75,12.24,16.26,2.46,2.08,2.54,2.18,5.92-.45-.17-.33-.31-.7-.53-1-2.17-3.01-2.25-5.13.19-7.35,1.46-1.33,3.36-2.16,5.03-3.26.78-.51,1.99-.66,1.88-2.28-1.11-.59-2.37-1.18-3.54-1.92-1.7-1.07-3.46-2.09-4.96-3.41-1.52-1.33-2.86-3.03-2.11-5.28.79-2.38,2.69-3.57,5.1-3.53,2.39.04,4.78.42,7.16.71,1.14.14,2.27.43,3.99.77-.41-4.34-.08-8.11,2.27-11.25ZM96.41,239.69c-.92-2.81-1.95-5.43-2.63-8.14-.63-2.52-.93-5.13-1.33-7.71-.42-2.7.69-5.53-.55-8.6-1.66.85-2.99,1.62-4.4,2.24-1.45.63-3.01.18-3.57-1.25-.57-1.45-1.02-3.08-.97-4.6.13-3.34,1.97-4.3,5.31-3.25,1.49.47,3.07.75,4.63.86.71.05,1.74-.29,2.16-.83,2.42-3.1,4.98-6.15,6.17-10.25-2.57-.91-4.83-1.7-6.82-2.4-2.89,1-5.52,1.9-8.26,2.84-1.64,1.52-3.23,3.4-5.2,4.74-2.76,1.87-3.9,4.51-4.5,7.54-.23,1.18-.3,2.39-.41,3.6-.32,3.5-1.57,6.51-3.9,9.26-5.23,6.19-5.7,14.65-1.52,21.91.08.14.34.17.86.41,7.19-4.97,15.75-5.5,24.91-6.36ZM309.92,331.98c1.06,1.88,2.02,3.82,3.21,5.62,3.04,4.61,4.86,9.7,6.23,15,3.26,12.56,1.81,24.37-5.41,35.31-1.11,1.68-2.27,3.34-3.31,5.06-.47.78-1.27,1.67,0,2.67,1.48-.46,3-.97,4.54-1.39,6.16-1.7,10.51-5.69,14.07-10.81,4.53-6.52,6.51-13.89,6.79-21.62.27-7.47-1.91-14.24-7.24-19.9-5.01-5.32-11.18-8.4-18.87-9.92ZM154,376.03c1.47-.28,2.05-.37,2.62-.5,5.34-1.2,8.36-5.98,13.54-8.22-1.25-2.25-2.22-4.21-3.38-6.04-3.92-6.21-6.35-12.95-7.89-20.12-1.02-4.75-.82-9.23,1.44-13.49,1.32-2.48,1.5-4.95.95-7.6-.92-4.41-.78-8.8.17-13.19.32-1.47.47-2.98.91-5.79-4.56,5.77-9.81,8.96-13.51,13.83.65,1.53,1.17,2.82,1.74,4.09,1.91,4.32,2.69,8.88,2.33,13.55-.82,10.61-1.77,21.22-2.69,32.07,2.75,2.94,3.79,6.76,3.78,11.41ZM156.32,443.45c2.57,2.99,4.87,1.65,6.96.55,1.73-.91,2.39-2.66,2.15-4.65-.12-1-.57-2.05-.35-2.96.2-.83.97-1.73,1.74-2.14.48-.26,1.58.15,2.1.6.74.64,1.13,1.67,1.8,2.4,1.99,2.16,4.4,2.66,5.8,1.28,1.51-1.48,1.73-4.9.38-6.72-.35-.47-.9-.8-1.35-1.19-.45-.39-.95-.75-1.33-1.19-.77-.89-.11-2.76,1.08-2.86,1.55-.14,3.13-.03,4.78-.03,1.87-3.23.85-5.88-1.26-8.33-2.41-2.79-5.17-1.17-7.6-.46-1.65-1.15-3.11-2.15-4.56-3.18-1.42-1.01-2.81-2.04-4.24-3.08-.67,1.13-1.17,1.97-1.6,2.7-2.72.21-4.33-1.6-6.34-2.4-2.43-.97-3.11-.68-5.1,2.38.83,1.08,1.78,2.1,2.48,3.27.63,1.06-.04,2.64-1.18,2.99-.76.23-1.57.32-2.37.36-2.18.11-3.17,1.51-3.75,3.36-.47,1.48.49,2.76,2.13,2.81.39.01.78-.17,1.18-.25,1.14-.23,1.99.23,2.46,1.24.58,1.24.24,2.4-.71,3.29-.87.83-1.99,1.41-2.8,2.29-1.67,1.84-1.43,4.25.43,5.9,1.76,1.57,3.45,1.42,5.3-.45,1.26-1.27,2.45-2.63,3.82-3.77.88-.73,2.66.3,2.67,1.5,0,.78-.04,1.64-.35,2.33-.65,1.44-1.49,2.8-2.37,4.41ZM168.62,170.84c0-1.06.22-1.9-.04-2.54-.91-2.23-1.91-4.44-3.03-6.58-1.15-2.21-2.64-3.9-5.48-4.17-3.12-.3-4.92-2.61-6.11-5.3-.92-2.07-.3-4.04,1.16-5.59,1.26-1.35,2.96-1.06,4.53-.42,3.59,1.45,6.32,3.57,6.28,7.94,0,.63.5,1.27.83,2.05,1.8-1.37,2.64-2.86,1.84-4.49-1.62-3.29-3.66-6.18-7.49-7.46-2.45-.81-4.83-2.04-6.98-3.48-4.55-3.04-9.06-3.03-13.66-.4-.76.44-1.26,1.34-2.05,2.21,2.38,2.08,4.86,3.49,5.76,6.45,1.23,4.04,2.93,7.93,4.22,11.96.69,2.16,2.03,3.32,4.05,4.08,4.53,1.71,9.02,3.55,13.54,5.29.7.27,1.5.27,2.65.46ZM281.59,277.35c3.99-2.85,7.88-6.03,12.14-8.58,4.47-2.67,9.14-5.19,14.02-6.93,4.64-1.65,9.67-2.2,14.94-3.32-2.04-2.13-3.94-4.13-5.86-6.1-.56-.57-1.16-1.12-1.81-1.59-2.3-1.63-4.76-2.18-7.34-.71-3.84,2.19-7.74,4.29-11.44,6.7-5.43,3.54-10.15,7.91-13.88,13.25-.8,1.15-1.6,2.33-2.15,3.61-.63,1.43-.34,2.76,1.38,3.68ZM168.36,409.81c3.87,1.57,5.31,1.03,5.47-1.95.24-4.47.35-8.72-4.8-11.24-3.64-1.77-5.6-7.73-4.49-10.98,1.02-3,5.43-6.38,10.45-5.29.39.09.77.29,1.17.3.7.02,1.4-.06,2.09-.1.3-2.57-1.47-3.54-2.65-4.79-.81-.85-1.78-1.71-2.86-2.12-2.75-1.05-5.11.58-5.5,3.52-.15,1.1-.49,2.16-.88,3.84-3.78-1.54-7.35-2.62-10.02,1.52.66,1.04,1.37,1.99,1.88,3.04.59,1.2.4,2.38-.79,3.17-.83.55-1.94.79-2.58,1.49-.55.6-.61,1.64-1,2.81,1.43.22,2.41.3,3.35.54,2.5.64,3.18,2.43,1.68,4.48-.69.94-1.54,1.75-2.32,2.63.88,2.92,2.84,3.97,5.65,4.48.64-.76,1.22-1.59,1.94-2.28.93-.89,2.22-1.46,3.25-.57.81.7,1.43,1.96,1.55,3.03.14,1.34-.33,2.75-.58,4.47ZM122.12,169.29c2.97-2.17,5.88-3.85,8.33-6.09-.79-2.74-2.59-3.62-4.87-4.31-2.81-.85-3.85-2.84-3.33-5.55.34-1.78.78-3.76,2.84-4.27,1.77-.43,3.01.85,4.07,2.11,2.59,3.07,5.17,6.15,7.87,9.36,1.07.15,2.27.28,3.46.48,1.34.22,2.67.5,4.07.77-.09-4.36-.67-5.86-3.33-6.22-4.02-.55-5.96-2.98-7.17-6.43-.32-.9-.57-1.82-.76-2.41-3.47,0-6.52.37-9.44-.08-4.99-.77-8.14,1.31-10.3,5.51-.55,1.06-1.05,2.15-1.56,3.21,2.05,5.59,6.57,9.12,10.11,13.92ZM53.91,347.12c7.15,1.69,13.99,2.09,20.73,1.28,10.22-1.24,20.24-3.62,29.69-7.91.76-.34,2.12-.25,1.74-1.95-2.41,0-4.83-.06-7.24.02-1.61.06-3.2.4-4.81.48-3.42.18-6.87.61-10.27.36-9.15-.66-17.56,1.95-25.83,5.32-1.43.58-2.69,1.59-4.02,2.41ZM369,274.39c.1-.61.23-.85.16-.98-.61-1.03-1.29-2.01-1.88-3.04-.69-1.21-1.55-2.4-1.91-3.72-1.07-3.91,1.55-6.84,5.55-6.38,2.73.31,4.97,1.59,6.72,3.67,1.01,1.19,1.89,2.48,2.87,3.77,2.69-3.08,5.17-5.92,7.9-9.04-1.29-1.4-1.1-3.66-3.22-4.78-.94,1.38-1.78,2.74-2.76,3.98-.74.93-1.55,1.98-2.57,2.48-.97.47-2.38.64-3.36.29-.63-.22-.91-1.6-1.22-2.5-.41-1.23,1.18-2.67-.51-3.96-7.29,3.17-14.64,6.37-21.99,9.58-.17.07-.3.27-.4.44-.1.17-.14.38-.3.83.74,4.28,2.96,7.9,6.22,10.73,3.71-.47,7.08-.91,10.71-1.37ZM216.06,315.64c-.05-.37-.09-.74-.14-1.11-4.39-.51-8.79-.98-13.18-1.56-7.78-1.03-14.89-3.53-20.37-9.53-1.22-1.34-2.51-2.64-3.89-3.81-3.31-2.81-5.92-6.05-7.13-10.3-.06-.21-.62-.27-1.35-.56-.09,1.05-.39,2.02-.18,2.88.28,1.15.92,2.23,1.47,3.31,2.83,5.59,3.75,11.44,2.53,17.62-.14.69.07,1.45.13,2.28.98,0,1.57.05,2.16,0,4.21-.4,8.42-.96,12.64-1.22,7.88-.47,15.72-.13,23.45,1.76,1.24.3,2.58.17,3.87.24ZM327.34,255.74c1.01.75,1.7,1.61,2.56,1.83,2.32.59,4.7,1.16,7.08,1.29,4.23.24,8.45.15,12.45,2.02.96.45,2.45.42,3.47.02,7.11-2.77,13.88-6.25,20.31-10.48-1.02-.12-2.05-.09-2.76.41-6.05,4.2-11.46,2.29-16.66-1.63-1.1-.83-2.03-1.88-3.39-3.16-.58,1.5-.89,2.64-1.43,3.66-1.13,2.11-2.15,4.35-3.66,6.17-1.57,1.9-3.86,3.4-6.4,2.11-2.34-1.2-1.91-3.7-1.71-5.95.11-1.21,1.2-2.49-.04-4.01-3.33,2.51-7.01,4.19-9.81,7.72ZM135.71,314.03c-15.98-5.52-26.09-7.16-36.42-5.76-2.84.39-5.9.59-8.81,2.93,1.21.45,1.89.81,2.61.95,4.92.91,9.89,1.6,14.77,2.7,3.94.89,7.87,1.56,11.9,1.55,5.03,0,9.94-.84,15.95-2.37ZM59.82,412.08c2.79-1.79,4.05-4.58,5.74-6.95,6.5-9.12,10.33-19.45,13.5-30.07.13-.42-.26-1-.43-1.57-8.37,5.91-20.19,27.62-18.81,38.59ZM177.48,397.7c1.38,5.25,2,6.69,4.17,8.49,1.84,1.53,3.83,3.16,6.43,2.2,1.77-.66,1.84-3.73.31-7.13-.71-1.59-1.54-3.13-2.19-4.43.94-1.99,2.47-1.81,3.8-2.13,3.22-.79,4.22-3.76,2.17-6.34-1.46-1.84-3.38-2.78-5.77-2.69-2.06.08-3.91.68-4.77,1.45-1.54,3.94-2.77,7.06-4.15,10.59ZM122.55,338.33c-8.55,11.69-12.47,28.33-9.24,37.8,6.66-9.77,10.61-25.44,9.24-37.8ZM250.85,165.63c-2.35,4.42-2.86,7.96-2.1,11.91,1.86,9.69,1.13,19.21-2.68,28.4-.75,1.8-1.43,3.63-2.28,5.79,4.6-2.7,7.66-6.88,8.46-11.96,1.09-6.95,2.12-13.94,1.43-21.01-.4-4.16-.62-8.39-2.82-13.14ZM146.05,321.74c-.77,1.33-1.38,1.96-1.52,2.69-.98,5.12-2.16,10.23-2.7,15.4-.52,5.03,1.34,9.94,4.83,14.82.29-2.51.63-4.62.77-6.76.39-5.81.82-11.61.99-17.43.08-2.76-.08-5.61-2.38-8.73ZM100.85,165.31c.87,1.02,1.34,2.12,2.11,2.4,3.78,1.4,6.14,4.39,8.64,7.26,1.27,1.46,2.51,2.95,4.27,5.03,1.61-3.14,3.38-5.48,4.26-8.41-.52-.94-.91-1.87-1.5-2.67-1.7-2.31-3.39-4.48-6.92-3.18-.91.33-2.34-.31-3.36-.84-1.2-.62-2.21-1.61-3.54-2.62-1.29.98-2.49,1.9-3.96,3.03ZM109.68,189.15c-4.05-3.15-8.41-3.97-12.56-5.25-1.3-.4-2.66-.99-3.99.26.82,2.19,1.85,4.34,2.42,6.62.64,2.57,2.29,3.62,4.64,3.98,4.4.67,7.15-1.55,9.5-5.6ZM259.36,52.15c-.86-13.25-3.67-27.91-9.84-33.43.79,12.08,4.4,22.98,9.84,33.43ZM327.83,156.19c-3.88,6.45-7.63,17.04-8.45,23.15-.05.34.26.73.4,1.1q2.39.83,5.32.18c2.18-7.44,2.67-15.2,2.73-24.43ZM102.5,173.74c-1.14.41-2.54.71-3.72,1.39-.76.44-1.51,1.35-1.69,2.18-.29,1.3.62,2.23,1.83,2.71,3.87,1.56,7.74,3.14,11.66,4.58.58.22,1.53-.1,2.1-.49.28-.19.28-1.18.07-1.66-1.8-4.03-5.12-6.52-8.87-8.53-.33-.17-.77-.12-1.37-.2ZM165.25,319.77c.84-.27,1.42-.28,1.52-.51,2.74-6.01,3.4-12.21,1.43-18.58-.18-.58-.96-.97-1.6-1.57-2.64,7.01-3.04,13.18-1.36,20.66ZM257.65,102.35c-.38-11.36-3.14-21.5-7.77-32.54.93,12.31,4.4,26.84,7.77,32.54ZM266.27,128.15c3.9-2.66,6.63-6.32,9.16-10.16,3.98-6.02,5.21-8.77,5.37-12.18-5.78,7.01-11.06,14.03-14.53,22.34ZM339.48,186.62c5.73-1.72,25.07-13.54,29.11-17.38-10.52,4.83-20.68,9.63-29.11,17.38ZM352.75,233.67c4.49-1.91,7.57-3.71,10.12-6.25,1.07-1.07,1.8-2.59,2.36-4.03.53-1.36-1.08-2.9-2.43-2.42-1.11.39-2.25.9-3.16,1.62-3.19,2.55-5.33,5.82-6.89,11.08ZM352.77,239.71c.37,3.47,1.88,5.28,3.87,6.72,2.14,1.56,4.48,2.77,7.22,2.72.68-.01,1.71-.44,1.94-.96.23-.52-.13-1.63-.61-2.07-3.33-3.03-7.33-4.82-12.41-6.42ZM362.99,297.25c7.41-3.21,12.2-8.15,13.34-13.55-4.8,2.19-8.99,5.27-11.85,8.88-.95,1.19-2.24,2.35-1.49,4.66ZM347.98,231.97c.67-2.25,1.1-3.37,1.32-4.53.18-.98.17-2,.15-3-.05-2.27-.74-4.35-2.26-6.07-.36-.4-1.19-.87-1.51-.71-.61.3-1.37.98-1.46,1.58-.58,4.33.54,8.24,3.76,12.73ZM394.48,242.96c5.01.93,9.68.25,13.92-2.39.54-.33,1.11-1.41.94-1.87-.2-.53-1.19-1.02-1.87-1.06-5.09-.31-9.17,2.09-12.99,5.32ZM380.81,285.77c-.66,4.28-.76,7.42.03,10.51.34,1.31,1.17,2.53,1.93,3.67.27.4,1.17.8,1.53.63.64-.29,1.48-.96,1.54-1.56.15-1.36.14-2.83-.25-4.13-.85-2.87-1.97-5.65-4.79-9.13ZM175.52,388.82c-.49-.82-.86-2.04-1.67-2.69-1.06-.85-2.86-.14-4.02,1.59-.93,1.38-2.77,2.71-1.4,4.74,1.67,2.47,5.17,2.22,6.31-.43.39-.89.48-1.91.78-3.2ZM397.75,221.98c-2.58,1.39-3.01,1.7-3.42,2.48-1.48,2.82-2.2,7.17-1.82,11.79,3.41-4.39,6.12-8.54,5.23-14.27ZM385.33,280.76c-.56,1.17.09,1.85,1.02,2.36,4.07,2.27,6.79,2.67,9.87,1.48-2.56-4.38-4.81-5.17-10.88-3.84ZM265.93,32.68c.5-1.26,1.07-2.5,1.48-3.79,1.89-5.88,3.74-11.77,5.59-17.66.05-.15-.05-.39-.16-.53-.08-.09-.29-.08-.67-.16-4.2,6.7-5.25,14.4-6.23,22.14ZM328.98,245.86c3.58.91,8.51-1.48,12.11-5.93-3.36-.57-5.99.91-8.62,2.18-1.6.77-3.21,1.66-3.49,3.75ZM289.28,309.69c-3.52-.91-6.25.23-8.79,1.64-1.13.62-.96,2.13-.45,3.26.47,1.05,1.45,1.33,2.5.89,2.74-1.13,5.35-2.44,6.74-5.8ZM399.16,255.56c-1.4-3.13-3.83-4.18-6.25-5.15-.59-.24-1.72-.07-2.11.36-.43.47-.62,1.63-.33,2.19.63,1.19,1.42,2.59,2.52,3.16,1.77.91,3.84.97,6.17-.56ZM358.08,236.37c3.61,2.21,6.84,4.16,10.04,6.16,2,1.25,3.57.6,5.49-.97-2.72-.95-5.11-1.48-7.18-2.6-2.19-1.18-4.08-2.93-6.05-4.4-.47.2-.87.3-1.18.53-.31.23-.52.58-1.12,1.27ZM328.83,227.81c3.78,3.48,6.33,4.73,12.28,6.26-2.36-4.3-4.91-5.68-12.28-6.26ZM224.58,316.25c3.06,1.73,6.25,2.61,9.64,1.62.9-.26,1.89-.7,1.27-2.27-3.57-.12-7.23-.65-10.91.65ZM379.87,224.66c.74,4.81,2.59,7.95,5.78,9.78-.67-5.82-1.88-7.87-5.78-9.78ZM389.81,265.14c-2.77,1.04-3.06,1.27-4.33,3.44-1.28,2.19-1.34,2.51-.96,5.22,4.52-4.05,4.86-4.62,5.29-8.66ZM143.6,382.71c-1.37,1.23-1.08,2.91-1.04,4.45.03,1.17.95,1.66,2.07,1.63,1.34-.03,2.3-.65,2.59-2,.49-2.3-.4-3.29-3.62-4.08ZM371.99,278.71c-3.45-1.26-6.97-1.51-10.5-.57-.39.1-.64.76-1.28,1.59,4.27.49,7.99-.19,11.78-1.02ZM137.6,382.33c-2.04,1.26-3.35,2.66-3.17,4.81.06.76.94,1.75,1.69,2.1,1,.46,1.89-.29,2.25-1.3.6-1.7.93-3.43-.77-5.61ZM376.11,273.01c-.22-3.23-1.08-5.3-2.99-6.82-.85-.68-1.83-1.67-3.33-.4.9,3.07,3.1,5.02,6.32,7.22ZM345.72,244.25c-2.54,2.78-3.66,5-4.44,7.42-.24.75-.42,1.54.69,1.8q3.11-3.12,3.76-9.23ZM275.08,290.43c-2.09,1.62-3.57,3.68-4.45,6.09-.14.38.24,1.23.61,1.44.36.21,1.25.07,1.53-.24,1.78-2,2.11-4.57,2.3-7.29ZM230.88,329.79c2.97,1.32,4.65.94,6.23.08.55-.3.91-.96,2.31-2.51-3.33.95-5.3,1.51-8.54,2.43ZM313.27,204.96c-2.56,2.56-2.54,2.57-3.32,6.7,1.25-2.86,3.44-3.63,3.32-6.7ZM361.67,289.29c.57-.3,1.11-.46,1.47-.82.47-.46.78-1.08,1.4-1.97q-2.77.6-2.87,2.79ZM225.16,235.02c.2.26.4.52.59.78.44-.31,1.04-.54,1.27-.96.25-.47,1.26-1.05.03-1.86-.64.69-1.26,1.37-1.89,2.05ZM374.98,245.86c.08.3.17.6.25.91,1-.35,2.01-.7,3.01-1.05-.06-.2-.11-.39-.17-.59-1.03.24-2.06.49-3.09.73ZM256.01,290.89c-.14-.05-.27-.1-.41-.15v2.75c.14,0,.27,0,.41,0v-2.59ZM167.05,287.91c-.16.01-.32.03-.48.04.08.24.17.48.25.72.13-.1.33-.18.36-.3.04-.13-.08-.3-.14-.46ZM258.03,180.09l.4-.09-.23-.39-.16.47ZM249.93,389.52l-.23-.21v.42s.23-.2.23-.2Z"/>
  <path d="M147.78,216.33c-.17.01-.34.02-.51.03.04-.25.08-.5.12-.75.16.08.37.13.46.26.06.1-.03.3-.06.45Z"/>
  <path d="M214.01,296.93c-.91-.25-1.96-.33-2.1-2.35,1,1,1.61,1.6,2.22,2.21,0,0-.12.14-.12.14Z"/>
  <path d="M312.32,301.74c.3-.23.59-.48.91-.67.15-.09.36-.06.55-.09-.13.21-.21.54-.39.6-.35.11-.75.07-1.13.08,0,0,.06.08.06.08Z"/>
  <path d="M298.99,288.41c.26-.14.51-.29.77-.43-.1.11-.17.26-.29.31-.16.06-.35.04-.53.06,0,0,.06.07.06.07Z"/>
  <path d="M100.09,271.41c-1.2-.42-2.39-.83-3.59-1.25l-.07.08c1.35,0,2.7-.04,3.65,1.18,0,0,.01-.02.01-.02Z"/>
  <path d="M120.51,268c-.38-.07-.81-.06-1.13-.23-.23-.12-.33-.49-.49-.76.17-.08.37-.26.49-.21.52.21,1.01.49,1.51.74,0,0-.37.45-.37.45Z"/>
  <path d="M96.49,270.16c-.33-.09-.67-.19-1-.28.31.12.62.24.93.36,0,0,.07-.08.07-.08Z"/>
  <path d="M357.58,386.1c1.18.88,2.37,1.76,4.16,3.1q-2.92-.5-4.96-2.2c.27-.3.53-.6.8-.9Z"/>
  <path d="M122.91,109.18q-1.86-.97-3.04-2.69,1.86.96,3.04,2.69Z"/>
  <path d="M338.07,78.99c-.63.86-1.26,1.73-2.53,3.47-.05-2.56,1.11-3.19,1.93-4.01.2.18.4.36.6.54Z"/>
  <path d="M50.4,218.05c-4.21.47-8.13-.95-12.12-1.88,4.18-.38,8.23.11,12.07,1.95,0,0,.05-.07.05-.07Z"/>
  <path d="M386.25,333.26c.31.07.61.15.92.22-.29-.1-.57-.2-.86-.29,0,0-.06.07-.06.07Z"/>
  <path d="M254.13,128.41c-.37-.82-.75-1.64-1.12-2.45,1.28.53.98,1.58,1.05,2.51,0,0,.08-.06.08-.06Z"/>
  <path d="M168.13,424.34c.12,3.85-1.14,6.34-3.13,7.03-2.44.84-4.73.44-6.73-1.25-.45-.38-.86-.84-1.22-1.32-3.44-4.57-1.14-9.86,4.59-10.51,1.7-.19,3.31.4,4.25,1.75,1.1,1.58,1.8,3.44,2.24,4.3ZM165.16,425.86c-.07-1.65-.5-3.14-2.01-3.44-.98-.19-2.33.3-3.19.92-2.74,1.99-2.41,4.32.66,5.86,1.8.9,3.65.14,4.25-1.78.18-.56.21-1.16.28-1.57Z"/>
</svg>