<svg xmlns="http://www.w3.org/2000/svg" viewBox="0 0 498 498" fill="#B87A8E" role="img" aria-label="Amanda och Andreas">
  <g transform="translate(37.5 0)">
<path d="M0,271.43c10.38-2.81,19.8-7.54,28.34-14.06.5-.38,1.07-.71,1.65-.97,9.57-4.16,18.25-9.94,27.33-14.98,1.66-.92,3.45-1.68,5.26-2.25,11.09-3.53,22.39-4.79,33.97-2.96,3.98.63,7.99,1.11,11.99,1.61.54.07,1.11-.18,2.37-.42-1.31-.94-2.09-1.58-2.94-2.1-6.17-3.82-12.7-6.87-19.56-9.21-7.44-2.53-14.82-5.24-22.31-7.63-9.86-3.15-17.73-8.97-24.12-16.99-6.26-7.86-11.29-16.45-15.49-25.55-1.42-3.09-2.69-6.25-4.19-9.29-1.98-4.01-4.03-7.99-8.23-10.28-.43-.23-.56-1.03-.81-1.54,1.29-1.18,2.56-.81,3.57.02,4.56,3.75,10.07,5.45,15.54,7.13,7.41,2.27,13.27,6.59,17.79,12.78,4.89,6.69,9.75,13.4,14.49,20.19,9.04,12.94,20.7,23,34.1,31.15,3.42,2.08,6.87,4.09,10.94,6.5-.07-5.92-1.27-10.96-1.92-16.16-2.06-.58-3.92-.95-5.67-1.62-2.29-.87-4.2-2.37-4.29-5.02-.1-3.01,1.51-5.33,4.07-6.73.97-.53,2.52-.46,3.64-.13,1.59.48,3.02,1.45,4.76,2.34,1.98-2.57,3.25-5.44,4.79-8.45-3.16-3.22-7.13-4.6-11.18-5.7-.82-.22-1.94.57-2.89.99-4.75,2.09-9.03-.21-12.79-3.28-.47-.39-.55-1.6-.38-2.33.18-.76.81-1.46,1.36-2.08,4.17-4.75,5.92-4.89,10.32-.44,1.68,1.7,3.47,3.05,5.65,4.01,1.94.85,3.81,1.88,5.69,2.87,1.87.99,3.72,2.02,5.47,2.98,2.39-.36,3.18-2.16,4.21-3.85-.11-.57-.11-1.23-.36-1.78-1.58-3.48-3.27-6.91-4.8-10.42-1.14-2.61-2.82-4.73-5.08-6.41-4.98-3.7-10.41-6.51-16.21-8.42-.76.41-1.32.68-1.86,1.01-4.67,2.85-6.98,2.68-10.74-.81-.62-.58-1.22-1.18-1.84-1.76-1.82-1.67-1.87-3.93.68-5.03.94-.41,1.79-1.11,2.57-1.8,2.19-1.94,3.58-2.29,6.79.12,1,.75,1.96,1.72,2.55,2.8,1.34,2.46,3.47,3.58,6.02,4.3,2.98.84,5.68,2.59,9.61,3.35-.8-1.77-1.13-2.94-1.79-3.88-3.15-4.54-6.53-8.92-9.54-13.55-3.14-4.83-7.6-7.2-13.5-8.1-1.93,2.42-4.39,4.22-7.97,3.47-2.29-.48-3.99-1.63-4.68-3.82-.79-2.54-.72-5.09,1.37-7.11,1.36-1.32,3.09-1.52,4.73-.67,1.3.67,2.44,1.67,3.6,2.58,1.83,1.44,3.78,2.52,6.51,2.92-.44-2.47-2.27-3.32-3.49-4.63-2.65-2.85-5.41-4.99-9.77-5.08-4.01-.08-5.78-2.7-6.09-6.82-.17-2.31-.47-4.6-.73-6.9-.29-2.5,1.66-4.31,3.88-3.4,2.15.88,4.4,1.76,6.23,3.14,3.05,2.3,5.98,4.84,5.57,9.37-.09.94.45,2.02.94,2.92.39.72,1.1,1.29,1.71,1.87,2.75,2.59,5.51,5.16,8.92,8.34,0-1.67.27-2.58-.06-3.09-.55-.85-1.54-1.4-2.28-2.15-1.9-1.92-2.8-4.31-2.61-6.95.19-2.71.68-5.4,1.12-8.09.2-1.23,2.28-2.06,3.07-1.14,2.59,3.03,5.17,6.1,7.44,9.37,1,1.44.67,3.54-.54,4.8-4.16,4.32-2.53,8.99-1.15,13.68.17.59.62,1.11.98,1.63,3.04,4.36,6.07,8.71,9.15,13.04.19.27.7.33,1.05.49,1.54-6.84,1.35-8.47-2.54-13.27-2.46-3.04-2.77-6.07-.95-9.42.9-1.67,1.79-3.36,2.77-4.98.69-1.14,2.5-1.43,3.31-.37,2.18,2.85,4.49,5.67,6.13,8.82,1.2,2.31.95,5.15-1.42,6.95-2.9,2.21-3.41,5.21-3.41,8.49,0,1.91.06,3.83-.04,5.74-.2,3.9.55,7.49,2.35,11.04,2.01,3.97,3.44,8.22,5.18,12.33.48,1.13,1.15,2.17,1.67,3.13,2.24-.11,2.95-1.44,3.15-2.94.19-1.45-.05-2.96-.05-4.44,0-2.12-.29-4.31.15-6.34.75-3.41,1.08-6.3-1.24-9.56-1.9-2.68-1.07-6.16,1.21-8.86,1.08-1.28,2.25-2.48,3.63-3.99,1.26.99,2.34,1.59,3.08,2.47.8.96,1.3,2.18,1.91,3.3,2.24,4.08,2.21,5.93-.97,9.06-4.22,4.16-4.76,9.12-4.16,15.11,1.31-.39,2.32-.49,3.12-.95,7.38-4.21,15.22-6.41,23.79-5.8,2.54.18,5.1.12,7.65.02,5.66-.22,10.39,1.85,14.38,5.72,2.13,2.07,4.13,4.28,6.21,6.4.59.6,1.27,1.09,1.89,1.61,3.15-2.28,3.39-3.36,1.29-5.26-.32-.28-.62-.59-.98-.81-8.97-5.69-17.16-12.55-26.63-17.49-3.39-1.77-6.73-3.64-10.03-5.57-5.96-3.47-10.79-8.24-15.1-13.55-.93-1.14-1.73-2.43-2.37-3.76-.68-1.42-.6-2.89.61-4.12,1-1.02,2.23-1.25,3.51-.77,1.79.66,3.62,1.3,5.27,2.23,14.31,8.06,27.7,17.42,39.91,28.42,2.34,2.11,4.4,4.53,6.56,6.79,1.61-.6,1.11-1.86.93-2.73-2-9.77-4.1-19.52-6.12-29.29-.37-1.78-1.25-3.17-2.67-4.19-3.8-2.71-7.49-5.61-11.51-7.96-10.3-6.03-20.17-12.64-29.32-20.3-1.93-1.62-3.82-3.42-5.29-5.45-1.86-2.58-.36-5.82,2.83-6.14,2.28-.23,4.69-.05,6.93.45,4.59,1.02,8.81,3.04,12.78,5.59,7.01,4.5,13.31,9.8,18.99,16.14-.39-1.13-.69-2.29-1.2-3.37-2.78-5.97-5.65-11.89-8.4-17.87-1.23-2.67-3.17-4.46-5.86-5.53-1.58-.63-3.15-1.28-4.72-1.92-8.69-3.51-17.1-7.6-25.04-12.56-2.85-1.78-5.41-4.08-7.87-6.39-1.72-1.62-2.66-3.82-2.65-6.3.01-2.8,1.72-4.87,4.5-5.31,2.61-.42,5.15.02,7.44,1.23,5.63,2.96,11.19,6.06,16.75,9.16,1.22.68,2.32,1.6,4.03,2.8-2.39-5.92-7.96-15.88-10.31-18.95-1.26-1.64-2.73-2.58-4.84-2.53-1.05.02-2.17.01-3.16-.3-7.48-2.38-15-4.68-22.38-7.36-2.53-.92-4.79-2.71-6.98-4.36-1.57-1.18-1.85-3.08-1.17-4.59.69-1.52,2.01-2.33,3.56-2.23,2.31.15,4.73.26,6.87,1.04,3.78,1.37,7.4,3.18,11.03,4.91,1.68.8,3.23,1.85,4.82,2.78.88-1.2.11-1.83-.38-2.41-2.2-2.59-4.49-5.1-6.7-7.68-2.72-3.19-6.41-4.83-10.13-6.42-2.34-1-4.8-1.75-7.07-2.9-4.26-2.16-7.67-5.3-10.01-9.52-1.52-2.76-1.85-5.65-.8-8.61,1.26-3.52,4.49-4.65,7.65-2.62,1.59,1.02,2.99,2.37,4.35,3.7,5.98,5.86,10.09,13.1,14.62,20.03.92,1.41,1.84,2.84,2.92,4.13,2.3,2.73,4.65,5.42,7.27,7.91,1.3-1.41.31-2.31-.02-3.18-1.75-4.6-2.92-9.33-3.29-14.23-.13-1.67-.1-3.41.22-5.04.76-3.85,3.37-4.72,6.46-2.14,1.45,1.21,2.76,2.67,3.82,4.24,4.11,6.11,6.66,12.82,7,20.22.18,3.81.39,7.7-.12,11.45-.44,3.22.39,5.64,2.06,8.27,3.85,6.11,7.37,12.42,11.09,18.61,1.08,1.81,2.38,3.49,3.58,5.22.03.18.01.39.09.54.06.12.24.17.37.25-.15-.27-.29-.54-.44-.81-.15-9.34-.28-18.7,1-27.98.4-2.92,1.03-5.86,2.02-8.63.93-2.62,3.51-3.13,5.72-1.46,2.62,1.98,4.27,4.7,5.41,7.73,2.86,7.62,2.99,15.37.73,23.14-1.19,4.07-2.67,8.06-3.96,12.1-.84,2.63-1.61,5.28-2.35,7.94-.59,2.1-.53,4.17.43,6.21,3.6,7.65,7.17,15.33,10.91,23.36,0-.99.1-1.63-.01-2.22-1.77-9.42-.16-18.61,1.89-27.76.41-1.85,1.08-3.68,1.92-5.38.74-1.5,1.69-2.99,2.87-4.15,3.42-3.38,8.22-1.94,9.27,2.71.28,1.23.2,2.53.29,3.8,1.04,15.89-2.83,30.77-9.56,44.99-1.26,2.65-1.73,5-.98,7.87,1.56,5.94,2.81,11.97,4.41,18.9.65-2.35,1.09-3.85,1.49-5.36,1.44-5.54,2.56-11.19,4.38-16.61,2.51-7.49,6.05-14.5,12.36-19.96-.27-1.93-.64-3.79-.77-5.67-.09-1.24-.04-2.57.31-3.75.73-2.48,3.3-3.54,5.59-2.31,1.29.69,2.63,1.52,3.56,2.61,2.61,3.06,5.29,6.11,7.44,9.49,6.43,10.08,11.22,20.95,14.89,32.32.46,1.41.91,2.82,1.35,4.19.28.05.54.16.62.09.14-.13.21-.37.23-.58.35-3.59.83-7.18,1-10.78.32-6.78.06-13.58,1.27-20.32.49-2.71.38-5.45-1.52-7.89-3.61-4.66-5.31-10.1-5.99-15.9-.12-1.01-.49-1.99-.79-3.18-10.8.29-20.09-3.57-28.76-9.21-4.69-3.05-8.61-6.92-11.36-11.85-1.57-2.82-2.61-5.83-2.23-9.14.43-3.72,1.79-6.98,4.91-9.3.85-.63,1.64-1.37,2.55-1.91,2.82-1.67,4.23-4.04,4.06-7.37-.07-1.26.07-2.55.29-3.8.34-1.97,1.3-3.68,3.11-4.59,2.68-1.35,4.99-3.01,6.8-5.49,1.1-1.51,3.36-1.15,4.32.44.54.89.97,1.89,1.24,2.9.44,1.68,1.63,2.48,3.13,2.8.74.16,1.85.09,2.31-.37.44-.44.58-1.72.25-2.26-1.09-1.78-2.41-3.41-3.71-5.05-1.51-1.91-1.72-3.54-.57-5.2,1.75-2.53,4.7-2.32,6.12.36,1.15,2.17.95,4.52,1.14,6.83.27,3.23.96,3.68,5.33,3.9.47-.77.99-1.67,1.57-2.54,1.23-1.83.83-3.69-.06-5.44-.47-.92-1.38-1.59-2.01-2.44-1.42-1.93-1.38-3.4.08-5.16.4-.48.88-.92,1.37-1.31,2.3-1.78,4.64-1.2,5.55,1.48.4,1.19.57,2.47.72,3.72.2,1.67.29,3.36.43,5.12,1.65,1.42,3.23,2.77,4.78,4.1,4.33-4.05,4.4-4.53,1.51-9.06-1.77-2.78-.97-5.45,1.97-6.63,1.69-.68,3.74.43,3.77,2.22.02,1.45-.37,2.91-.55,4.37-.5,3.96.07,4.6,4.77,5.4,1.59-1.64.9-3.54.53-5.38-.32-1.6.2-2.92,1.26-4.08.9-.99,1.98-1.61,3.38-1.34,1.44.27,2.14,1.35,2.49,2.61.77,2.82.22,5.48-1.31,7.93-.9,1.44-2.01,2.76-2.76,4.27-.4.81-.21,1.9-.36,3.74,4.41-3.29,7.4-6.26,6.86-11.36-.21-2.04.5-3.74,1.98-5.15,1.58-1.51,3.84-1.11,4.76.84,1.43,3.01,1.03,4.27-2.11,6.85-.22.18-.26.59-.44,1.01h3.88c.8-1.06,1.47-2.14,2.33-3.04,1.78-1.85,4.12-1.31,5,1.12.29.79.69,1.7.54,2.46-1.01,5.09,1.22,9.56,2.51,14.21.26.33.44.76.77.99,7.31,4.96,9.74,11.14,7.53,19.78-1.22,4.76-3.18,9.3-6.09,13.25-1.72,2.34-3.97,4.51-6.43,6.03-5.48,3.39-11.42,5.57-18.09,5.22-3.16-.17-6.34.01-9.5.16-1.39.07-2.45.96-2.59,2.37-.18,1.89-.21,3.82-.1,5.72.28,4.76-.31,9.42-2.58,13.6-3.06,5.63-3.11,11.84-3.84,17.89-.68,5.68-.86,11.42-1.24,17.14-.04.58.13,1.17.28,2.4,1.9-2.64,3.47-4.84,5.04-7.04,1.48-2.07,2.84-4.25,4.46-6.21,4.04-4.91,8.11-9.82,12.37-14.54,1.38-1.52,3.3-2.65,5.16-3.61,1.84-.95,4.04.34,4.25,2.44.19,1.87.17,3.84-.18,5.68-.76,3.98-2.17,7.78-4.4,11.2-3.95,6.05-8.07,11.98-13.23,17.11-3.31,3.28-6.45,6.73-9.88,10.32.68,1.02,1.13,1.96,1.8,2.69,5.59,6.11,7.74,13.56,8.28,21.57.56,8.31-.42,16.53-1.92,24.7-.15.83-.26,1.67-.33,2.51-.01.17.2.35.5.82,3.22-1.2,6.51-2.43,10.16-3.79-.68-3.09-2.4-6.13-1.15-9.22,1.18-2.9,2.82-5.61,4.41-8.7-1.43-.63-3.18-1.22-4.74-2.13-7.37-4.3-6.88-10.94-2.47-16.05,1.22-1.41,2.92-2.43,4.51-3.48,1.22-.81,2.59-1.37,3.96-2.07.14-2.07.11-3.98.41-5.83.93-5.7,6.03-9.41,11.64-8.06,3.23.78,6.25,2.47,9.86,3.96.96-.66,2.29-1.64,3.69-2.53,4.74-3,9.87-2.77,13.56.56,3.83,3.45,5.11,10.08,2.7,14.65-.96,1.83-2.2,3.52-3.35,5.34,2.82,2.66,5.42,5.11,8.34,7.86,1.54-.87,1.78-3.04,3.14-4.22,1.28-1.12,2.61-2.17,3.76-3.12-.3-2.11-.55-3.55-.7-4.99-.25-2.42.47-4.67,1.69-6.68,1.54-2.54,3.9-3.89,6.92-3.75,1.46.07,2.9.36,4.26.54,3.01-3.85,6.43-6.36,11.5-5.62,5.29.77,9.91,2.47,12.29,7.78.26.57.7,1.06,1.23,1.85,1.26.16,2.73.24,4.15.55,2.26.5,4.65.83,6.7,1.81,4.11,1.97,5.78,6.39,4.46,10.77-.81,2.69-2.18,5.06-4.22,7.02-1.06,1.01-2.14,1.99-3.33,3.09.51,1.37.98,2.52,1.36,3.71,1.18,3.61.33,6.7-2.47,9.24-3.27,2.96-7.23,4.4-11.5,5.04-3.57.54-6.69-.65-9.5-2.8-.33-.25-.77-.35-.86-.39-3.44,1.05-6.58,2.39-9.86,2.91-3.73.59-6.2-2.14-8.52-4.85-3,1.5-4.32,4.38-6.59,6.22-2.47,2.01-4.85,4.13-7.38,6.06-2.34,1.79-4.84,3.38-7.45,5.19.45.86.81,1.56,1.31,2.51,2.65-1.14,4.3-3.98,7.36-3.58,2.49.32,4.97.72,7.72,1.12.59-1.14,1.14-2.26,1.73-3.35,3.78-6.99,10.02-7.92,15.5-2.29.73.75,1.37,1.58,2.17,2.52,1.88-.79,3.59-1.59,5.36-2.21,3.48-1.22,6.73-.57,9.61,1.66,3.29,2.54,4.17,6.23,2.51,10.23-.48,1.17-1.15,2.26-1.9,3.69,1.12,1.17,2.34,2.27,3.37,3.54,3.28,4.08,2.92,8.47-1.23,11.72-2.14,1.68-4.71,2.82-7.76,4.59-.13.24-.74,1.11-1.13,2.07-1.99,4.92-6,6.92-10.92,7.6-4.17.58-6.98-.82-8.94-4.53-.79-1.49-1.31-3.12-2.08-4.99-2.63-.31-5.27.31-7.97.69-2.05,2.77-.81,5.86-1.24,8.71-.4,2.69-.7,5.4-1.07,8.35,1.35.35,2.33.81,3.31.83,7.78.17,14.01,3.05,18.04,9.97.2.34.64.54,1.29,1.07,1.15-.26,2.57-.5,3.95-.91,2.03-.61,3.99-1.5,6.05-1.98,7.25-1.68,14.08-.71,19.69,4.42,3.9,3.56,7.53,7.5,10.85,11.6,3.24,3.99,6.6,7.74,10.79,10.75,1.9,1.36,3.64,2.93,5.43,4.44,6.31,5.31,9.83,12.13,10.94,20.25.2,1.47.34,2.96.73,4.39.85,3.12,2.29,5.94,4.79,8.11.48.42,1,.8,1.43,1.27,1.12,1.2,3.21,2.31,2.32,4.1-1.07,2.16-3.38.96-5.16.69-2.72-.41-5.4-1.13-8.13-1.53-2.3-.34-4.64-.47-6.97-.57-4.6-.2-8.38,1.73-11.04,5.3-4.78,6.44-11.14,9.55-19.01,10.03-3.18.2-6.34.84-9.51.86-3.38.02-6.78-.3-10.13-.77-4.62-.65-9.19-1.65-13.8-2.38-1.41-.22-2.88-.03-4.7-.03.29,1.09.35,1.94.73,2.61,3.21,5.57,3.89,11.63,3.4,17.87-.37,4.69-.2,9.3.71,13.94,1.09,5.53.17,11.01-1.33,16.37-.69,2.45-1.48,4.88-2.39,7.26-1.7,4.4-3.02,8.85-2.54,13.64.02.21,0,.42,0,.64-.05,1.54-.32,3.04-1.92,3.72-1.51.64-2.96.19-4.14-.85-1.59-1.4-3.18-2.83-4.59-4.41-2.47-2.77-5.44-4.77-8.93-5.92-4.12-1.36-7.66-3.62-10.89-6.45-.96-.84-1.91-1.72-2.99-2.38-8.7-5.28-14.07-13.46-18.81-22.05-1.82-3.3-2.81-7.09-3.91-10.73-1.04-3.44-1.9-6.92-3.66-10.42-5.34.28-10.68.42-15.72-1.17-4.78-1.51-9.37-3.63-14.04-5.48-.14.38-.46.81-.38,1.13,1.74,7,3.15,14.12,5.43,20.95,1.81,5.4,4.85,10.37,7.07,15.64,1.72,4.09,3.12,8.33,4.45,12.57,1.14,3.62.31,7.17-1.11,10.56-.95,2.28-2.69,3.35-5.11,2.79-2.01-.47-3.97-1.4-5.79-2.41-1.63-.91-3.04-2.22-4.41-3.26-2.18.76-1.99,2.41-1.83,3.8.46,4.01,1,8.01,1.7,11.98.76,4.33-.11,8.45-1.28,12.55-.17.61-.44,1.2-.72,1.77-2.75,5.57-8.47,6.06-12.18.98-1-1.36-1.62-2.99-2.57-4.39-.67-.98-1.6-1.77-2.9-3.17-.87,2.13-1.6,3.6-2.07,5.15-.8,2.64-1.34,5.36-2.16,7.99-1.31,4.21-4.01,7.48-7.47,10.08-3.77,2.84-7.27,1.8-9.22-2.6-.43-.97-.65-2.02-1.05-3.01-.38-.96-.86-1.87-1.17-2.54-1.8-.81-2.88-.03-3.73.9-1.57,1.72-3.08,3.52-4.47,5.39-5.16,6.95-11.93,12.05-19.06,16.73-3.05,2-6.45,3.22-10.04,3.88-3.76.69-7.51,1.4-10.77,3.64-.57.39-2.01.46-2.32.08-.57-.7-.87-1.86-.79-2.79.12-1.46.61-2.9,1.01-4.33.81-2.9.91-5.8.61-8.82-.66-6.8.02-13.57,1.11-20.3.83-5.11,3.13-9.62,6-13.98-.73-.53-1.18-.94-1.7-1.23-4.04-2.23-4.79-4.06-2.94-8.11.78-1.72,1.92-3.29,3.02-4.85,1.1-1.56,2.42-2.96,3.53-4.52,1.34-1.88,2.66-3.81,2.57-6.67-1.88-.35-3.66-.69-5.4-1.01-2.12-3.89.97-6.63,1.71-10.2-2.06-2.91-5.48-4.77-7.75-7.48-1.76.07-1.98,1.29-2.26,2.22-3.59,12.12-12.94,18.54-23.57,23.48-4.99,2.32-10.29,4.01-15.53,5.74-5.64,1.85-10.32,5.04-13.98,9.6-2.91,3.63-5.49,7.53-8.23,11.29-.36.5-.82.93-1.58,1.79-.48-.86-1.02-1.45-1.12-2.1-.12-.81.03-1.71.24-2.52,2.04-8.05.64-16.02-.48-24.01-2.56-18.26.82-35.12,12.31-49.88,5.22-6.7,10.77-13.13,16.17-19.69.52-.64,1.05-1.27,1.56-1.9-.99-1.2-1.71-.25-2.28.1-9.6,5.88-19.18,11.8-28.75,17.73-5.27,3.26-7.61,8.38-8.93,14.13-.35,1.53-.15,3.01.9,4.2,2.31,2.61,2.83,5.63,2.19,8.93-.64,3.27-2.2,6.02-5.11,7.75-1.95,1.16-3.15,2.7-3.85,4.83-.41,1.26-1.44,2.04-2.86,2.18-1.6.16-3.19-.67-3.54-2.08-.65-2.65-1.37-5.31-1.67-8.01-.15-1.38.32-2.96.92-4.26,1.53-3.31,3.63-6.26,6.77-8.29,1.72-1.11,2.65-2.6,3.18-4.55.71-2.65,1.69-5.24,2.56-7.89-.97-1.14-1.9-.27-2.73.17-4.33,2.26-8.64,4.56-12.93,6.89-3.7,2.01-6.38,4.62-6.84,9.24-.37,3.74-3,6.01-6.64,6.86-1.2.28-2.59.42-3.76.11-4.7-1.23-9.39-2.54-14-4.06-2.68-.88-3.02-3.79-.65-5.47,3.79-2.68,7.63-5.34,11.67-7.63,5.14-2.92,7.44-2.66,13.5.46,9.85-5.57,19.68-11.01,29.39-16.67,9.73-5.67,19.36-11.5,28.97-17.37,2.51-1.53,4.76-3.47,7.14-5.22.16-.09.32-.18.48-.27-.15.11-.29.22-.44.32-8.6,3.02-17.18,6.09-25.81,9.03-5.43,1.85-10.78,3.81-15.86,6.54-8.11,4.35-16.86,7.26-25.87,8.55-6.64.96-13.64.92-20.29-.01-10.06-1.41-19.94-4.01-29.52-7.55v-1.27c4.48-.36,8.77-1.49,12.93-3.18,8.45-3.43,16.91-6.84,25.39-10.2,7.45-2.95,15.25-3.5,23.16-3.11,5.08.25,10.16.58,15.24.93,4.02.28,8.02.73,12.04.95,3.17.17,6.44.59,9.51.04,18.18-3.28,12.86-.58,30.24-10.57.18-.11.37-.21.54-.34.6-.46,1.66-.55,1.28-2.12-4.98,1.43-10,.65-15.04.03-2.29-.28-4.66-.3-6.97-.09-4.43.41-8.85.96-13.25,1.64-10.22,1.58-19.87-.33-29.11-4.65-9.14-4.27-17-10.39-24.34-17.21-3.89-3.61-7.77-7.23-11.74-10.74-4.32-3.81-9-7.1-14.58-8.89-.8-.26-1.68-.53-2.3-1.06-.74-.63-1.75-1.54-1.75-2.33,0-1.54,1.47-1.91,2.77-1.94,2.97-.07,5.98-.33,8.9.03,10.13,1.23,20.13,3.19,29.74,6.68,7.08,2.57,13.38,6.43,18.28,12.32,1.36,1.63,2.81,3.18,4.21,4.78,5.37,6.15,11.9,10.84,18.92,14.9.79.46,1.82,1.17,2.47-.24-3.78-3.16-7.59-6.18-11.21-9.4-3.23-2.87-5.44-6.5-6.84-10.59-1.88-5.47-2.93-11.15-2.8-16.88.33-13.89,4.23-26.73,12.24-38.22.42-.6,1.35-1.24-.04-2.25-2.77,1.18-5.73,2.31-8.58,3.68-5.73,2.76-11.38,5.72-17.11,8.49-8.27,4-17,6.62-26.07,8.01-12.05,1.84-24.11,1.59-36.14-.23v-1.27ZM164.57,259.95c-.7.68-1.44,1.33-2.07,2.07-.14.16.03.85.25.97.23.13.92-.02.99-.21.36-.91.57-1.88.84-2.82.16-.11.35-.19.46-.33.08-.1.04-.29.05-.45-.17.26-.35.51-.52.77ZM197.71,161.74c6.33-9.21,9.88-19.56,12.41-30.32.16-.68.51-1.67-1.17-2.1-6.48,9.81-9.49,20.91-11.2,32.47l-.23.42c.06-.16.12-.31.18-.47ZM227.04,135.07c2.17.73,3.1,2.69,4.27,4.36,2.49,3.57,4.87,7.21,7.3,10.83.04.17.05.36.13.52.06.11.21.18.32.27-.17-.24-.34-.49-.51-.73-3.61-12.31-9.86-23.26-17.37-33.55-1.43-1.96-2.83-4.17-5.4-4.88-.42.56-.84.86-.86,1.18-.05.83-.02,1.7.16,2.5,1.92,8.46,6.92,15.27,11.96,22.05,2.01,5.43,4.44,9.51,7.89,13.27-1.82-5.67-3.63-8.77-7.81-13.35,0-.84-.01-1.69-.02-2.53l-.07.06ZM255.15,149.04c.6.05,1.2.09,2.09.16-.94,4.92-4.16,8.68-6.2,13.83,3.71-3.8,6.99-6.8,9.84-10.17,3.95-4.66,7.68-9.53,11.31-14.44,2.29-3.09,3.49-6.74,4.16-10.52.16-.93.57-2.13-1.38-2.86-7.69,6.92-14.5,14.83-19.81,24.01-3.27,2.26-4.67,5.64-5.46,9.37,2.05-2.99,4.6-5.68,5.46-9.38ZM301.03,186.07c-.07-1.87.62-3.3,2.41-4.05,1.36-.57,2.91-.86,4.08-1.69,1.69-1.2,3.41-2.56,4.58-4.22,2.08-2.96.69-8.14-2.37-10.06-2.97-1.86-6.38-.96-8.84,2.29-1.32,1.75-1.78,3.74-2.11,5.87-.33,2.14-1.75,3.43-3.24,3.24-1.92-.25-1.92-1.87-2.21-3.33-1-5.03-3.52-7.34-8.4-7.85-2.03-.21-3.95,1.1-4.06,3.09-.08,1.43-.05,3.1.61,4.28,1.94,3.4,5.07,6.15,8.76,6.63,4.58.6,7.91,2.56,10.84,5.77.04.42.12.85.1,1.27-.28,6.91-4.92,10.64-11.42,8.68-2.75-.83-4.94-.48-7.3.65-3.67,1.76-7.28,3.58-9.19,7.49-1.24,2.55-2.22,5.28-.25,7.78,1.72,2.19,5.47,1.89,8.65-.66,1.63-1.3,2.93-3.04,4.26-4.67,1.07-1.31,1.87-2.85,2.98-4.12.48-.55,1.64-1.11,2.14-.88.83.37,1.62,1.27,1.96,2.14.37.94.25,2.08.28,3.14.05,1.48-.11,2.99.12,4.45.16.98.6,2.13,1.31,2.77,1.4,1.28,3.17.94,4.81.33,1.51-.56,2.42-1.63,2.61-3.3.26-2.25-.62-4.15-1.75-5.99-1-1.62-2.12-3.18-2.89-4.9-.24-.54.3-1.61.77-2.23.3-.39,1.2-.63,1.69-.48,1.2.37,2.31,1.02,3.47,1.54,1.93.87,3.83,1.82,5.81,2.58,2.29.88,4.58.69,6.8-.39,1.98-.97,2.81-2.57,2.16-4.72-1.32-4.34-4.04-7.53-8.45-8.82-2.83-.83-5.82-1.1-8.73-1.63ZM86.73,331.34c.13.07.26.13.39.2-.15-.05-.29-.1-.44-.15-.41-.48-.75-1.06-1.25-1.41-6.59-4.73-12.43-10.25-17.44-16.65-4.04-5.16-9.43-8.52-15.41-10.93-9.59-3.86-19.62-5.92-29.97-6.94,6.49,4.22,12.05,9.4,17.57,14.65,2.46,2.34,4.96,4.64,7.51,6.88,6.39,5.64,13.25,10.59,21,14.25,7.58,3.57,15.5,5.25,24.83,4.75-11.02-2.19-20.24-6.35-28.9-11.81-.78-.49-2.04-.84-1.22-2.72,3.68,1.67,7.27,3.41,10.95,4.96,4.09,1.73,8.25,3.28,12.38,4.91ZM76.55,359.43c-9.83,1.68-19.65,3.37-29.49,5-1.01.17-2.4.91-3.2-1.08,1.98-.62,3.73-1.34,5.56-1.72,6.44-1.33,12.9-2.54,19.35-3.82,1.66-.33,3.32-.7,4.97-1.1,1.65-.41,3.29-.84,4.91-1.35,1.37-.44,2.7-1.01,4.82-1.82-10.64-1.68-20.41-1.64-30.18-1.8-5.59-.09-10.96.7-16.2,2.79-8.28,3.29-16.66,6.35-24.98,9.55-.42.16-.68.75-1.27,1.43,6.7,1.93,13.13,3.13,19.62,4.22,5.3.89,10.62,1.24,15.86.45,8.84-1.34,17.42-3.83,25.56-7.63,1.67-.78,3.09-2.12,4.62-3.2.18-.01.36.01.52-.04.12-.04.21-.19.31-.29-.25.14-.51.28-.76.42ZM79.09,219.15c.13.1.25.23.39.3.1.05.24.04.36.06-.27-.1-.53-.2-.8-.31-1.3-1.05-2.51-2.26-3.93-3.12-8.19-4.99-15.88-10.65-22.84-17.23-3.22-3.05-6.02-6.54-8.95-9.88-.29-.33-.16-1.03-.32-2.35,3.34,2.49,5.58,5.03,7.94,7.41,7.08,7.1,14.91,13.25,23.32,18.66.88.57,1.69,1.71,3.47,1.08-7.57-6.53-13.14-14.28-18.68-22.05-2.46-3.46-4.74-7.05-7.23-10.48-2.24-3.09-4.58-6.12-7.03-9.04-5.35-6.36-12.95-8.21-20.44-10.43-.17.61-.32.84-.26.98,2,4.44,3.92,8.92,6.05,13.3,4.46,9.2,9.69,17.91,16.41,25.68,4.96,5.73,10.9,10.1,18.04,12.68,4.78,1.73,9.67,3.17,14.51,4.74ZM311.25,388.78c-.13-.16-.26-.32-.39-.48.15.14.31.28.46.42.13,2.33.25,4.66.38,7,.21,3.81.5,7.62.59,11.44.05,2.28-.03,4.62-1.43,6.87-1.76-3.56-1.79-3.55-1.93-6.74-.18-4.24-.2-8.49-.43-12.73-.61-11.07-5.92-19.62-14.36-26.8-2.9,1.65-5.66,3.18-8.38,4.77-2.69,1.58-6.09,1.81-8.55,4.31.29,3.73,1.97,6.99,3.03,10.39,3.8,12.27,10.17,22.82,20.94,30.32,1.04.73,2.02,1.56,2.94,2.44,2.79,2.7,6.01,4.74,9.65,6.03,4.1,1.46,7.53,3.82,10.52,6.96,1.41,1.48,2.69,3.22,5.4,4.3-1.05-6.64,1.06-12.16,3.13-17.69.67-1.79,1.29-3.6,1.81-5.44,1.46-5.15,2.45-10.42,1.44-15.72-.97-5.09-.97-10.1-.48-15.21.4-4.24.15-8.49-1.27-12.58-2.05-5.88-3.38-6.84-9.68-7.08-.85-.03-1.7-.03-2.55-.09-6.33-.49-12.72-.75-18.39-4.52-2.2,1.8-4.59,3.14-5.36,5.94,2.19,2.67,5.09,3.41,7.91,4.35,4.61,1.53,9.38,2.8,12.79,6.65l-.16.18c-4.96-1.22-9.38-4.47-15.11-4.26,6.39,9.63,12.53,18.89,18.83,28.39-1.39.32-2.29.53-3.38.79.2,4.33,1.36,8.4,2.71,12.37,1.39,4.12,3.17,8.1,5.31,13.46-1.52-1.37-2.06-1.67-2.32-2.12-2.73-4.79-5.13-9.73-6.48-15.11-.88-3.48-1.68-6.99-2.69-10.44-1.07-3.62-1.8-7.43-4.49-10.37ZM236.06,207.74l-.07-.06c-.26,2.09-.3,4.24-.84,6.26-1.51,5.74-3.28,11.42-4.83,17.15-.54,1.99-1.82,3.89-1.04,6.39,1.09.64,2.31,1.36,3.91,2.31,1.3-1.97,2.49-3.68,3.58-5.45,3.12-5.06,6.2-10.14,9.33-15.2.39-.63.81-1.58,2.13-.69-.37.91-.67,1.9-1.16,2.79-3.08,5.57-6.21,11.11-9.3,16.67-.61,1.1-1.3,2.22-1.59,3.41-.09.37.93,1.23,1.59,1.48.41.16,1.27-.27,1.64-.69,4.74-5.44,9.49-10.87,14.1-16.41,1.92-2.31,3.24-5.06,3.62-8.05,1.01-7.99,2.13-15.97,1.68-24.09-.25-4.54-1.28-8.8-2.92-12.97-1.6-4.06-4.22-7.27-7.8-9.82-8.96-6.41-19.08-8.04-29.69-7.02-4.66.45-9.13,2.25-12.74,5.42-8.44,7.42-13.63,16.77-15.33,27.85-1.31,8.54.01,16.91,2.72,25.1,1,3.01,1.71,6.11,2.54,9.18.21.79.31,1.68,1.72,1.23.41-3.26.84-6.61,1.24-9.97.43-3.58.83-7.16,1.23-10.75.37-3.29.26-6.69,2.23-10.19.49,1.03.94,1.54.92,2.02-.08,2.54-.16,5.09-.45,7.61-.5,4.43-1.26,8.82-1.68,13.26-.25,2.66-.96,5.48.95,8,3.42.64,6.74.47,10.24-.22,1.04-2.47,1.38-4.98,1.92-7.44,1.46-6.63,2.96-13.25,4.52-19.85.23-.99.41-2.25,2.24-3-1.04,5.6-2.05,10.57-2.88,15.57-.82,4.95-2.7,9.78-1.96,14.99,3.55,1.21,6.68,3.06,10.55,2.88.63-1.81,1.24-3.38,1.73-4.98,1.69-5.47,3.27-10.98,5.06-16.42.72-2.17,1.89-4.2,2.85-6.29ZM401.32,339.42c-1.3.11-1.77.3-2.06.15-1.32-.67-2.68-1.33-3.87-2.2-9.63-7.03-20.84-9.24-32.31-10.65-1.6-.2-3.25-.03-6.32-.03,3.63,2.26,6.12,3.72,8.51,5.33,2.29,1.54,4.53,3.16,6.71,4.86,4.01,3.13,4.12,3.31,5.79,6.94-1.71-.95-3.01-1.52-4.15-2.33-3.47-2.45-6.79-5.14-10.33-7.48-7.52-4.97-15.4-9.05-24.8-8.86-1.26.03-2.52-.33-3.79-.49-1.9-.24-3.8-.43-5.69-.71-1.83-.27-3.64-.63-6.96-1.21,1.87,1.62,2.61,2.26,3.36,2.91,7.41,6.39,14.73,12.86,20.89,20.52.52.64,1.24,1.29.06,2.41-3.11-1.65-5.68-4.15-8.27-6.59-4.32-4.09-8.49-8.35-12.93-12.3-6.85-6.1-14.86-10.32-24.17-14.46,1.59,2.66,2.7,4.38,3.67,6.18,1.01,1.87,1.85,3.83,2.82,5.71,3.56,6.88,3.61,13.83.61,20.91-.81,1.91-1.42,3.91-2.04,5.66,1.78,2.65,3.89,4.02,6.52,4.36,3.99.51,8.01,1.15,12.01,1.16,8.12.01,16.17.68,24.04,2.52,8.03,1.88,16.08,1.47,24.11.98,6.31-.39,11.83-2.8,15.85-8.24,3.48-4.7,8.46-6.94,14.4-6.82,1.91.04,3.83.11,5.74.06.96-.03,1.91-.3,3.45-.56-2.62-5.5-3.52-10.91-4.58-16.31-.79-4-3-7.49-5.89-10.42-1.94-1.96-3.93-3.92-6.14-5.55-5.52-4.1-10.06-9.04-14.15-14.56-2.76-3.72-6.05-7.15-9.52-10.22-4.78-4.24-10.52-5.29-16.7-3.4-1.63.5-3.23,1.05-4.86,1.54-5.72,1.71-6.28,1.49-9.82-3.75-.36-.53-.7-1.06-1.08-1.57-2.88-3.88-11.91-6.94-16.19-4.91-2.22,1.05-3.85,2.55-5.36,4.36-4.48,5.37-10.17,8.89-16.77,11.13-6.84,2.31-13.71,4.39-21.99,4.23,4.28,2.91,7.71,5.25,11.14,7.58.35.24.68.56,1.07.69.99.34,1.99.73,3.02.86,6.84.89,13.62.59,20.12-1.81,6.37-2.35,12.63-5.01,18.94-7.53.92-.37,1.86-.71,4.2-1.59-2.67,3.09-5.05,3.89-7.21,4.95-2.28,1.12-4.7,1.98-7.04,2.98-2.54,1.08-5.03,2.3-7.61,3.27-2.38.89-4.9,1.42-7.28,2.3-2.22.82-5,.25-7.16,2.58,6.02,3.78,12.32,5.55,18.66,7.21.79.21,1.71.15,2.52-.02,7.89-1.68,15.95-2.33,23.8-4.34,6.36-1.63,12.92-2.49,19.41-3.55,1.79-.29,3.67-.04,5.51-.04-13.38,3.03-29.36,7.31-35.98,10.07,2.12,1.19,4.27.8,6.31.82,10.43.11,20.8.89,31.08,2.63,7.38,1.25,14.47,3.42,20.9,7.4,2.88,1.78,5.62,3.72,7.8,7.3ZM169.75,326.3c-.65.88-1.48,1.83-2.11,2.9-3.16,5.31-5.68,10.91-7.63,16.77-1.14,3.42-2.27,6.85-3.5,10.23-.23.63-.94,1.09-2.41,2.7.86-10.56,4.44-18.8,8.08-27.12-.89.32-1.52.79-1.91,1.41-6.96,10.82-12.28,22.35-14.11,35.18-1.12,7.85-.88,15.74,2.37,23.16,3.65,8.34,9.24,14.62,18.59,16.84,9.54,2.27,19.1,3.68,28.99,3.17,18.27-.94,30.7-12.62,37.13-29.25.6-1.56.91-3.28,1.11-4.96,1.09-8.85-.2-17.41-3.93-25.47-2.58-5.58-5.5-11.02-8.63-16.32-3.49-5.92-3.11-8.75-13.17-4.13-.49,4.48,2.16,8.37,2.91,12.66.76,4.33,2.14,8.55,2.23,14.09-.97-1.44-1.55-1.99-1.74-2.66-.76-2.65-1.36-5.34-2.1-8-1.19-4.29-2.34-8.6-3.71-12.83-.79-2.46-1.85-2.99-4.3-2.85-1.72.1-3.4.33-4.65,2.41,1.77,8.85,2.22,18.15,1.73,27.49-1.11,21.42-1.24,22.52-3.58,28.21-.25-2.36-.59-3.96-.56-5.56.19-9.76.19-19.54.83-29.27.39-6.01-.26-11.87-.87-17.76-.43-4.18-1.51-4.76-6.69-4.44-2.64,5.97-3.21,12.84-6.92,18.56-.18-1.93-.05-3.79.36-5.58.89-3.93,1.99-7.81,2.89-11.74.54-2.36-.04-3.14-2.79-4-.53-.17-1.21.1-2.07.2-2.91,5.14-4.98,10.7-6.95,16.28-2.25,6.4-4.24,12.9-6.38,19.34-.51,1.54-.72,3.31-2.44,4.24-1.14-1.71-.46-3.36-.11-4.98,2.32-10.62,5.85-20.82,10.48-30.64.88-1.88,1.68-3.8,2.56-5.8-2.25-1.62-4.2-2.76-7-2.5ZM150.84,277.04c-2.98-.02-5.49-.04-8.01-.06-2.34-.02-4.68-.05-7.01-.07-2.55-.01-5.1.01-7.65-.02-2.34-.03-4.69.01-7.01-.2-2.37-.22-4.93.34-7.6-1.34,2.24-1.83,4.4-1.48,6.4-1.47,8.5.05,17,.28,25.5.27,6.93,0,7.15-.28,9.15-7.12.16-.56.02-1.2.02-1.94-2.43-1.47-5.03-.65-7.49-.82-2.33-.16-4.68-.05-7.01-.24-2.53-.21-5.06-.59-7.57-1-2.35-.38-5.01.29-7.2-1.68.69-.46,1.03-.89,1.34-.87,6.35.44,12.69.96,19.04,1.42,2.33.17,4.67.29,7,.28,4.41-.03,5.19-.82,6.27-5.95-5.69-2.31-11.26-4.97-17.08-6.85-8.69-2.79-17.53-4.92-26.86-4.38-11.33.65-19.98,5.72-25.69,15.3-7.75,13.01-10.73,27.16-8.53,42.24.91,6.25,3.23,11.86,7.97,16.27,14.3,13.29,30.94,18.38,49.95,13.18,8.84-2.42,18.38-3.64,25.61-11-1.15-1.04-2.33-2.12-3.32-3.02q-15.68,3.93-20.08,2.41c.73-.29,1.27-.6,1.84-.72,4.36-.92,8.74-1.75,13.09-2.72.93-.21,1.76-.91,2.6-1.37-1.87-4.41-2.01-4.55-5.46-3.58-6.35,1.79-12.73,3.43-19.41,3.1-.66-.03-1.81.36-1.7-1.17,7.45-2.09,15.47-1.97,22.86-5.53-.55-3.33-.99-6.37-2.85-8.84-5.56.99-10.73,2.27-15.97,2.75-5.06.47-10.19.15-15.3.13q-10.82-.04-15.87-2.59c1.45-.27,2.39-.58,3.34-.59,4.04-.03,8.08.04,12.11.04,6.16,0,12.33.03,18.49-.07,3.86-.06,7.57-.96,11.1-2.53,1.38-.62,1.64-1.84,1.49-3.19-.16-1.4-.87-2.49-2.3-2.66-2.1-.25-4.24-.23-6.35-.43-.74-.07-1.83.05-1.73-1.44,2.64-1.77,6.34.04,9.01-2.44.46-2.78,1.56-5.58.86-9.47ZM229.41,399.82c-1.71-.82-2.21.36-2.93,1.03-2.32,2.16-4.34,4.84-7.01,6.41-4.37,2.58-6.11,6.21-6.29,10.98-.05,1.27-.26,2.53-.36,3.8-.74,9.31-1.36,18.62-3.34,27.78-.44,2.03-.63,4.11-2.48,5.74.98-11.05,2.94-22.01,1.47-34.19-2.69,3.4-4.63,6.1-6.82,8.56-2.46,2.76-4.14,5.87-5.21,9.38-1.54,5.08-3.09,10.15-4.7,15.2-.58,1.81-1.35,3.55-2.06,5.31-.04.1-.4.07-.79.13-.78-1.86-.23-3.68.27-5.48.91-3.27,1.91-6.51,2.82-9.79.2-.71.62-1.65-.85-2.01-3.2,3.39-5.18,7.59-7,11.86-2.34,5.5-5.11,10.77-9.03,15.3-3.61,4.17-7.48,8.12-11.28,12.11-.29.31-.99.24-2.07.46,1.43-3.09,3.51-4.93,5.35-6.89,6.65-7.04,11.94-14.87,15.04-24.13,1.84-5.5,5.14-10.23,8.65-14.79,2.2-2.86,4.54-5.62,6.76-8.46.58-.74.97-1.64,1.91-3.28-3.41,1.04-5.42,2.58-7.56,3.82-2.02,1.17-3.95,2.5-5.99,3.64-2.13,1.19-4.07,2.87-7.49,3.33.92-1.31,1.23-2.09,1.81-2.53,2.52-1.93,4.99-3.98,7.72-5.59,4.39-2.58,8.95-4.88,13.47-7.24,2.5-1.31,4.6-2.9,5.57-6.28-1.89.24-3.34.34-4.76.63-7.38,1.47-14.74,1.72-22.14.12-4.14-.9-8.31-1.68-12.48-2.47-4.24-.81-4.95-.32-6.68,4.4.1.17.16.42.31.51.35.22.75.36,1.13.54,3.48,1.65,4.47,3.13,3.35,6.31-.9,2.56-2.33,4.97-3.78,7.29-1.24,1.97-2.96,3.62-4.24,5.57-.76,1.15-1.09,2.59-1.57,3.8.68.51.99.93,1.33.97.83.08,1.76.2,2.49-.11,1.95-.81,3.82-1.84,5.72-2.78,1.32-.65,2.62-1.39,4-1.88.42-.15,1.3.24,1.59.66.29.43.38,1.35.1,1.75-.71,1.03-1.65,1.91-2.54,2.81-1.94,1.96-3.97,3.84-5.83,5.87-4.15,4.51-6.42,9.82-7.32,15.93-.88,5.93-.92,11.84-.75,17.78.08,2.69.27,5.38.43,8.36,6.86-.51,12.91-1.99,18.26-5.77,6.44-4.56,12.52-9.47,17.22-15.94,1.59-2.19,3.65-4.17,5.84-5.79,2.94-2.17,5.62-1.4,7.4,1.86.8,1.47,1.15,3.19,1.86,4.72.5,1.08,1.27,2.04,2.06,3.28,1.23-.66,2.22-1.02,3.01-1.65,2.93-2.32,4.75-5.37,5.75-8.95.91-3.27,1.67-6.61,2.93-9.74,1.93-4.82,5.57-5.21,8.55-1.09.74,1.03,1.28,2.2,1.93,3.3.53.92.99,1.89,1.64,2.72,1.94,2.52,5.34,2.16,6.72-.68,1.44-2.96,1.64-6.17,1.47-9.34-.2-3.6-.75-7.17-1.17-10.76-.37-3.18-.6-6.35.55-9.44,1.15-3.09,3.32-3.74,5.93-1.79,2.21,1.64,4.32,3.45,6.66,4.86,2.01,1.22,3.63.32,4.4-1.93.78-2.28.67-4.52.26-6.89-1.27-7.24-4.75-13.6-7.83-20.11-1.83-3.87-3.31-7.8-4.21-11.97-1.17-5.39-2.45-10.76-3.75-16.12-.28-1.16-.8-2.26-1.21-3.39-.84,1.3-.91,2.49-.98,3.67-.34,5.56-1.26,11.05-4.09,15.9-2.57,4.4-3.49,8.97-3.36,14,.24,9.38-1.18,18.62-2.87,27.82-.17.92-.38,2.17-2.24,1.52.69-10.89,3.32-21.67,3.35-32.52ZM278.52,337.41c-.3.33-.6.65-.91.98-6.81-3.48-12.95-7.99-18.67-13.03-5.86-5.18-11.47-10.64-17.16-15.95q-3.19,2.15-5.21,5.79c4.8,4.43,10.16,8.54,14.06,14.19-1.69.8-2.35-.27-3.06-.89-2.87-2.52-5.67-5.12-8.52-7.67-1.11-.99-2.24-1.96-3.42-2.86-.92-.7-1.97-.87-2.87.03-.91.91-.62,1.93-.04,2.89.44.73.9,1.45,1.43,2.11,4.54,5.61,9.02,11.27,13.68,16.77,3.7,4.37,7.65,8.53,11.45,12.82.63.71,1.06,1.6,1.64,2.48-2.01.81-2.66-.61-3.52-1.36-9.03-7.82-16.85-16.74-23.86-26.4-1.12-1.54-2.19-3.14-3.48-4.53-.4-.43-1.73-.57-2.17-.24-.5.38-.75,1.5-.61,2.19.21,1,.77,1.98,1.36,2.85,1.9,2.81,3.79,5.64,5.84,8.34,2.96,3.88,6.07,7.65,9.08,11.5.45.58,1.12,1.34.07,2.05-.4-.16-.88-.22-1.16-.49-6.09-5.96-11.65-12.35-15.91-19.79-.62-1.09-1.32-2.17-2.17-3.09-.28-.31-1.29-.31-1.69-.04-.4.27-.72,1.14-.58,1.6.29,1,.87,1.92,1.39,2.84,4.79,8.5,9.49,17.05,12.81,26.27.49,1.36,1.29,2.69,2.22,3.8,4.59,5.5,10.16,9.5,17.15,11.57,21.46,6.36,44.98-6.96,49.89-28.64.81-3.56,1.1-7.19-.22-10.68-2.11-5.58-4.77-10.86-8.68-15.47-9.54-11.25-21.83-18.01-35.74-22.16-2.23-.67-4.56-1-6.85-1.41-.82-.15-1.82-.33-2.5,0-.86.41-1.73,1.21-2.12,2.05-.27.58.02,1.8.51,2.27,1.2,1.17,2.62,2.13,4.01,3.1,5.92,4.12,11.88,8.21,17.79,12.34.6.42,1.58.94.36,2.26-2.64-1.62-5.36-3.23-8.01-4.95-2.85-1.85-5.59-3.86-8.45-5.69-2.63-1.68-4.9-4.01-7.79-4.93-.65.41-1.08.56-1.34.86-.55.64-1.07,1.33-1.5,2.05-1.55,2.61-1.61,3.54.37,5.69,2.59,2.81,5.24,5.59,8.15,8.05,6.64,5.62,13.46,11.04,20.2,16.55,1.6,1.31,3.16,2.67,4.74,4ZM188.08,236.17c2.61-1.15,2.84-1.37,2.93-2.34.26-2.86-.88-5.4-1.8-8-3.16-8.88-5.28-17.98-3.94-27.44,1.09-7.68,1.48-7.27-4.53-13.34-1.64-1.65-3.39-3.2-5.18-4.7-2.52-2.1-5.42-3.31-8.77-3.22-5.3.14-10.66-.14-15.89.56-6.79.9-13.39,3.08-18.35,8.05-4.63,4.64-9.07,9.56-12.89,14.88-6.35,8.84-7.43,18.92-4.23,29.15,1.98,6.31,6.07,10.96,13.29,12.21,7.96,1.38,15.63,3.84,22.9,7.47,3.41,1.7,7.01,2.94,10.74,3.43,1.83-.97,3.38-1.99,3.66-4.67-1.8-1.43-3.78-2.98-5.73-4.56-5.6-4.54-11.19-9.09-16.75-13.68-.59-.48-1.42-1.13.03-2.27,9.1,5.18,16.63,12.77,25.32,18.8,2.83-1.41,5.49-2.57,7.51-5.08-2.34-3.34-5.35-5.73-7.97-8.47-4.46-4.65-4.98-5.33-6.53-9.76,1.47,1.07,2.53,1.64,3.33,2.46,4.32,4.38,8.57,8.83,12.88,13.22.57.58,1.35.95,1.91,1.33,2.85-1.01,2.83-1.06,4.94-3.19-.64-1.46-1.25-3.03-2-4.53-2.74-5.51-5.54-10.98-8.28-16.49-.32-.65-.85-1.53.78-2.12,5.64,6.52,7.99,15.14,12.62,22.29ZM250.51,256.25c5.78-2.55,11.34-5.12,17-7.46,5.81-2.4,11.6-4.9,17.9-6.13-.51.95-1.16,1.7-1.97,2.08-4.03,1.9-8.08,3.77-12.17,5.53-5.07,2.18-10.22,4.19-15.29,6.39-1.31.56-2.44,1.53-3.76,2.37.56,2.93.91,5.62,2.9,8.1,10.4-.26,20.08-4.74,30.52-5.11-.79.98-1.65,1.8-2.68,2.19-6.58,2.5-13.42,3.98-20.34,5.14-2.67.45-5.5.45-7.85,2.16-.43,2.39-1.04,4.65.67,7.06,5.93.29,11.75-.89,17.5-2.25,5.91-1.4,11.72-3.15,17.58-4.76-.55,1.45-1.42,2.26-2.44,2.76-4.99,2.45-10.31,4.01-15.76,4.94-4.38.75-8.85.97-13.26,1.55-1.64.21-3.35.54-4.79,1.27-.64.33-.98,1.82-.91,2.75.04.55,1.09,1.39,1.76,1.47,2.1.24,4.23.16,6.35.23,2.29.07,4.64-.48,7.91.89-3,1.11-5.25,1.47-7.45,1.81-2.17.33-4.39.32-7.34.51,4.48,1.09,8.15,2.09,11.87,2.86,3.11.64,6.27,1.09,9.43,1.46,10.09,1.19,19.37-1.9,28.39-5.78,13-5.59,19.15-17.21,16.02-32.37-2.18-10.59-7.17-19.88-13.78-28.41-5.7-7.37-13.54-9.09-22.11-8.72-4,.17-7.94,1.35-11.94,1.88-6.18.82-11.26,3.63-15.46,8.14-4.34,4.66-8.65,9.36-12.93,14.08-.7.77-1.22,1.73-1.66,2.68-.48,1.02,1.09,2.84,2.17,2.47,1.17-.41,2.29-1.03,3.34-1.7,5-3.23,9.94-6.53,14.95-9.73.97-.62,1.97-1.67,3.82-.63-3.29,2.62-6.63,4.8-9.91,7.07-3.44,2.39-7.18,4.42-10.14,7.73.67,1.19,1.11,2.14,1.7,2.98.59.84,1.33,1.57,2.15,2.52ZM154.15,330.32c-3.37,1.09-5.92,2.05-8.55,2.73-4.29,1.11-7.54,3.58-10.41,6.9-5,5.78-10.12,11.45-15.36,17.01-7.58,8.05-14.57,16.57-20.94,25.61-6.12,8.69-10.02,18.2-10.66,28.87-.25,4.22-.33,8.48-.1,12.7.34,6.34,1.02,12.67,1.56,19.01.07.78-.34,1.72,1.03,2.35.61-.64,1.36-1.31,1.99-2.09,4.8-5.94,10.73-10.13,18.13-12.33,4.47-1.33,8.92-2.84,13.16-4.77,10.75-4.9,19.75-11.59,22.97-23.86.58-2.2.61-4.06-.41-6.1-5.51-10.96-5.81-22.4-2.95-34.1.49-2,.88-4.03,1.41-6.43-2.53.75-3.32,2.58-4.4,4.03-6.64,8.92-11.56,18.77-15.46,29.15-4.06,10.81-9.8,20.69-16.54,30.02-.45.62-.85,1.5-2.28.92.56-1.1,1.01-2.23,1.66-3.23,6.79-10.35,12.03-21.4,15.97-33.16,4.15-12.37,10.34-23.7,18.79-33.73.95-1.13,1.77-2.39,2.5-3.67,2.82-4.95,5.58-9.93,8.87-15.81ZM249.4,115.88c.56-1.09,1.12-1.95,1.44-2.88,2.17-6.2,1.55-12.55.95-18.9-.16-1.67-.59-3.41-.32-5.01,1.1-6.33,1.11-12.67.94-19.05-.04-1.57-.57-3.35,1.06-4.83.47.41,1.16.72,1.31,1.19,1.94,5.94,1.96,12.05,1,18.32.77-.24,1.29-.24,1.5-.49,3.53-4.39,5.76-9.35,6.71-14.92,1.54-9.01-.04-17.74-2.35-26.39-.43-1.59-1.37-3.1-2.32-4.49-1.06-1.55-3.37-1.46-4.28.15-.93,1.65-1.55,3.48-2.4,5.18-.72,1.43-2.88,1.57-3.7.23-.66-1.08-1.13-2.27-1.67-3.42-.63-1.35-1.23-2.98-3.06-2.65-1.62.29-2.2,1.88-2.64,3.32-.31,1.01-.49,2.06-.71,3.1-.43,2.04-.84,4.09-1.21,5.9-4.02,1.72-4.63-2.81-7.38-3.21-2.36.16-3.78,1.89-4.61,3.8-1.17,2.69-2.28,5.54-2.64,8.43-.79,6.18.06,12.29,2.04,18.21,2.19,6.52,6.5,11.34,12.25,14.95.22.14.73-.16,1.3-.3-2.26-2.83-4.73-5.43-6.6-8.41-1.79-2.84-3.32-5.97-4.31-9.17-1.01-3.25-2.18-6.71-.57-11.24.86,1.71,1.46,2.54,1.72,3.47.75,2.65,1.27,5.37,2.04,8.02,1.64,5.63,4.6,10.48,8.97,14.41.56.5,1.32.78,2.58,1.5-.54-3.15-1.05-5.6-1.35-8.07-.28-2.31-.35-4.65-.46-6.98-.12-2.54-.27-5.09-.22-7.64.05-2.34-.52-4.77.81-8.36.65,3.14,1.11,4.95,1.39,6.8.25,1.67.4,3.38.42,5.07.1,6.17.28,12.3,2.58,18.18.75,1.92.48,3.83-1.75,4.81-1.61.71-2.06,2.12-2.13,3.63-.26,5.83.39,11.47,3.96,16.38.34.47.93.76,1.71,1.37ZM47.24,259.84l-.1-.61c.52-.21,1.02-.49,1.55-.6,6.86-1.52,13.49-3.68,19.86-6.69,4.79-2.27,9.7-4.29,14.56-6.42,4.46-1.96,8.92-3.93,13.37-5.92.12-.05.13-.35.3-.86-6.4-.3-12.74-.68-19,.07-6.73.81-13.45,2.08-19.51,5.45-5.75,3.2-11.44,6.5-17.17,9.72-1.29.73-2.61,1.45-4,1.94-4.46,1.58-8.34,4.14-12.25,6.71-3.54,2.32-7.29,4.33-10.94,6.47-.84.49-2.13.42-2.32,2.13,4.5,0,8.93.02,13.37,0,11.88-.07,23.12-3.03,33.87-7.87,5.42-2.44,10.69-5.22,15.89-8.1,4.48-2.49,9.1-4.53,13.93-6.21,4-1.39,7.93-3.03,11.86-4.62,1.02-.41,1.93-1.06,3.53-1.96-3.47-.48-5.92.09-8.32,1.02-8.31,3.23-16.68,6.31-24.91,9.72-6.3,2.61-12.67,4.89-19.33,6.35-1.37.3-2.82.2-4.24.29ZM260.74,91.21c6.29.81,10.93.24,15.31-1.38,4.77-1.76,9.51-3.87,12.54-8.3,3.51-5.15,5.84-10.83,6.73-17.01.74-5.1-1.36-9.05-5.99-11.34-2.12-1.05-3.28-2.5-3.73-4.75-.37-1.86-.71-3.77-1.43-5.51-2.08-5.03-7.04-6.31-11.36-2.91-1.48,1.16-2.63,2.74-3.88,4.18-1.47,1.7-1.96,3.62-1.53,5.91.51,2.7.66,5.46,1.07,8.19.17,1.15.6,2.26,1.05,3.9,3.87-4.42,3.5-10.51,8.21-14.54.1,1.52.38,2.39.16,3.1-.92,3.04-1.77,6.12-3.05,9.01-2.31,5.23-4.91,10.34-7.39,15.5-.92,1.91-1.84,3.82-2.81,5.71-.93,1.82-1.93,3.61-3.31,6.18,3.44-1.38,5.49-3.19,7.56-4.89,2.28-1.89,4.43-3.94,6.61-5.96,1.91-1.77,2.99-4.47,6.38-5.79-.36,1.43-.39,2.27-.77,2.9-4.53,7.73-12.24,11.98-20.37,17.81ZM341.06,192.87c.7-2.13,1.18-3.76,1.78-5.34.81-2.09,2.28-3.74,4.45-4.22,3.67-.81,7.21-.31,10.18,2.25,2.19,1.89,2.23,4.64.05,6.66-2.56,2.36-5.54,4.05-9.06,4.25-2.64.15-4.95,1.05-7.25,2.18-2.78,1.36-3.93,3.76-4.29,6.64-.32,2.54,1.82,4.63,4.3,4.15,2.34-.46,4.45-1.46,5.89-3.48.74-1.03,1.36-2.16,2.14-3.15.81-1.03,2.51-.98,3.31.11.62.85.91,1.97,1.62,2.7,1,1.04,2.14,2.32,3.43,2.64,4.22,1.04,7.98-.32,11.16-3.16,1.3-1.16,1.35-3.34.17-4.64-.7-.77-1.57-1.42-2.45-1.99-1.06-.69-2.25-1.19-3.31-1.88-1-.65-1.34-1.74-.84-2.77.32-.67,1.05-1.4,1.74-1.59,1.83-.5,3.75-.64,5.6-1.07,2.39-.57,4.16-2.02,5.4-4.15,2.37-4.1.7-7.69-3.98-8.37-3.2-.47-6.32-.19-9.39,1.01-1.36.53-2.56-.59-2.45-2.02.05-.63.23-1.24.34-1.87.59-3.65-.52-5.89-3.73-6.93-1.81-.59-3.72-.94-5.61-1.15-2.36-.26-4.15,1.38-4.13,3.74.01,1.47.47,2.95.42,4.41-.02.7-.59,1.66-1.2,2-.6.34-1.72.32-2.31-.04-1.07-.65-1.83-1.78-2.86-2.51-1.01-.71-2.15-1.36-3.34-1.71-1.81-.53-3.38.74-3.57,2.62-.24,2.5.61,4.21,2.79,5.19,1.15.51,2.49.62,3.59,1.21.64.34,1.47,1.37,1.35,1.9-.2.88-.93,1.87-1.73,2.32-.85.49-2.02.47-3.07.58-1.27.13-2.57.03-3.81.26-3.25.61-4.59,2.52-4.52,6.48,4.45,1.41,8.68.34,13.18-1.23ZM226.18,45.19c-2.89-1.87-5.61-2.87-8.63-2.99-3.88-.16-6.03,1.62-6.52,5.37-.11.84-.13,1.69-.1,2.54.13,3.52-1.42,6.09-4.33,7.96-.71.46-1.37,1-2.02,1.54-5.57,4.56-6.56,10.05-2.87,16.3,2.08,3.52,5,6.3,8.3,8.66,6.11,4.37,12.97,7.14,20.17,9.11,1.16.32,2.45.18,4.82.32-1.59-1.4-2.3-2.12-3.09-2.71-3.56-2.67-7.27-5.16-10.68-8.01-3.24-2.7-6.2-5.74-9.22-8.7-.5-.49-1.27-1.28.01-2.29,2.13,1.95,4.27,3.96,6.47,5.9,3.67,3.22,3.81,3.27,7.44,4.36-2.39-5.35-3.79-10.87-7.21-15.6-1.71-2.36-2.66-5.28-3.88-7.98-.29-.64-.77-1.53.56-2.06.79,1.47,1.58,2.95,2.37,4.42q1.16,2.17,3.53,4.01c-1.05-7.4,1.34-13.86,4.88-20.15ZM352.59,239.57c-.19-2.19,1.08-3.01,2.27-3.91,1.51-1.14,3.11-2.21,4.42-3.56,1.3-1.34,1.29-3.26.39-4.71-1.25-2-3.12-2.76-5.4-2.65-2.3.11-4.41,1.1-5.1,3.18-.83,2.49-1.84,5.23-.06,7.89.58.86,1.06,1.85,1.34,2.85,1.08,3.87-1.53,7.3-5.58,7.36-2.42.04-4.57-.86-6.43-2.35-1.13-.9-2.13-1.98-3.29-3.09-3.25,1.47-5.73,3.71-8.11,6.09-.44.44-.76,1.01-1.04,1.57-.82,1.63.19,3.67,1.95,3.88,2.86.34,5.48-.12,7.48-2.47.95-1.12,1.85-2.34,2.99-3.23.48-.37,1.71-.28,2.27.09.59.39,1.14,1.4,1.08,2.09-.09.98-.67,1.96-1.17,2.86-1.08,1.96-1.38,4.07-.8,6.14.31,1.11,1.12,2.49,2.08,2.95,2.46,1.17,4.99.76,7.12-1.02,1.91-1.6,1.99-3.59.88-5.72-.2-.37-.42-.74-.56-1.13-.48-1.3-.33-2.54.76-3.45.95-.8,1.9-.33,2.91.16,3.87,1.9,5.81,1.67,8.55-.82,2.52-2.3,1.88-5.94-1.37-7.11-1.36-.49-2.93-.4-4.36-.74-1.16-.28-2.25-.81-3.2-1.17ZM216.56,129.2c-2.07,6.88-3.75,12.52-5.47,18.15-1.77,5.77-5.31,10.82-7.39,17.12,3.15-1.36,5.58-2.62,8.15-3.47,5.71-1.88,11.56-2.55,17.53-1.24,2.51.55,2.52.47,5-.58-5.7-9.59-11.41-19.19-17.83-29.98ZM138.19,100.34c1.16,1.54,1.64,2.48,2.38,3.11,10.83,9.29,22.58,17.26,35.16,23.99.46.25,1.1.15,1.8.23-5.98-13.34-25.47-27.21-39.34-27.33ZM303.7,219.42c1.08.86,2.2,1.79,3.38,2.64.3.22.8.17,1.2.25,11.83-6.65,21.32-14.36,23.42-21.44-2.64-.44-5.24-.88-8.24-1.39-2.53,7.52-9.26,7.04-14.57,7.82-1.79,4.18-3.34,7.8-5.19,12.12ZM194.66,84.41c-1.75,1.12-2.9,1.45-3.32,2.19-1.23,2.2-2.44,4.47-3.19,6.87-3.19,10.08-3.33,20.46-2.69,30.88.06.96.13,2.13,1.81,2.44,6.88-12.89,8.37-26.74,7.39-42.37ZM125.67,64.53c.65,1.62.86,2.97,1.62,3.82,1.4,1.56,2.98,3.06,4.74,4.18,8.07,5.15,16.63,9.37,25.59,12.75.66.25,1.46.14,2.28.2-.11-.84-.02-1.36-.24-1.63-7.82-9.8-18.45-15.4-29.92-19.65-1-.37-2.33.16-4.07.32ZM184.4,172.83c-2.56-3.65-5.06-5.59-7.47-7.6-11.14-9.27-23.17-17.22-35.87-24.18-.46-.25-1.14-.13-2.21-.22.46,1.08.61,1.92,1.08,2.48,3.58,4.24,7.48,8.14,12.32,10.95,10.27,5.96,20.56,11.87,32.15,18.56ZM169.42,46.89c-3.57,11.34-4.11,29.67-.96,37.73,1.29-3.55,2.51-6.67,3.56-9.84.8-2.4,1.63-4.83,2.02-7.31.92-5.9.85-11.8-1.38-17.46-.51-1.29-.85-2.92-3.25-3.12ZM211.7,276.45c-6.56-1.33-7.58-1.31-12.17.36-.44,2.47-1.06,5.13-1.34,7.82-.24,2.35.77,3.63,3.02,4.05,2.66.5,5.35.77,8.43,1.19,1.64-4.5,2.34-8.89,2.07-13.42ZM223.57,293c.33-.7.72-1.24.84-1.83.53-2.7.79-5.46,1.49-8.11,1.14-4.32.35-6.08-5.04-6.16-1.43-.02-2.87.2-4.36.31-2.02,4.53-2.75,8.94-2.39,13.75,3.34.71,6.17,2.29,9.46,2.05ZM133.25,14.59c-.54,4.87-.44,8.22.3,11.55,1.34,6.03,3.57,11.74,6.23,17.29.1.21.72.17,1.3.3,1.57-10.31-.49-19.62-7.83-29.14ZM222.84,243.09c-3.98-2.47-9.26-4.37-11.79-4.1-.93.1-2.08.69-2.6,1.43-1.47,2.08-2.18,4.46-1.74,7.43,4.44.47,8.76.92,13.41,1.41.94-2.13,1.77-4,2.72-6.17ZM230.44,278.78c-2.06,4.86-2.09,9.76-2.76,14.51-.11.76.78,1.96,1.53,2.49,1.36.94,2.95,1.65,5.12.3.48-3.86,1.16-8.01,1.46-12.19.28-3.82-.03-3.97-5.35-5.11ZM276.94,181.38c-2.92-.15-5.01,1.13-6.62,3.31-1.07,1.44-1.14,3.52-.11,4.76,1.27,1.54,2.92,2.65,4.97,2.25,2.28-.45,4.48-1.3,6.73-1.89,2.81-.74,2.71-4.21,1.12-5.62-1.77-1.57-3.63-2.98-6.09-2.8ZM195.39,276.19c-3.52-.73-6.74-.84-9.99,1.77.23,2.54-1.75,4.99-.77,7.77,3.81,1.75,5.08,2.17,7.33,1.71.9-.19,2.21-.98,2.35-1.7.6-3.04,1.77-6.06,1.08-9.55ZM214.46,264.91c-6.44-2.02-7.09-2.08-12.03-1.06-.96,2.37-2.26,4.79-1.06,7.92,3.88.73,7.75,1.16,11.61-.11,1.13-2.31,1.82-4.44,1.48-6.75ZM208.79,312.84c1.87-2.31,1.77-4.83.6-7.15-.96-1.9-3.15-1.92-5.06-2.01-1.86-.08-3.8-.62-5.84.88-.9,2.61-.97,5.37.79,8.27h9.51ZM203.11,258.85c4.8,1.25,8.87,1.47,12.91,1.18,1.15-2.34,2.32-4.34,1.9-6.76-5.23-2.17-7.51-2.34-13.1-.9-.47,1.79-.99,3.76-1.71,6.47ZM194.22,312.81c-.24-2.77-.36-4.85-.61-6.91-.17-1.38-1.05-2.24-2.44-2.52-6.82-1.33-9.02.57-8.41,7.35.09,1,.48,1.98.73,2.97,3.66,1.23,6.76-.37,10.74-.9ZM330.53,235.7c-2.3-3.74-5.6-5.48-9.22-6.69-2.89-.96-4.99.73-4.87,3.78.11,2.86,1.79,5.3,4.5,6.2,3.74,1.24,7.01.69,9.59-3.29ZM342.39,231.71c1.42-3.73.72-6.6-1.72-9.08-1.74-1.76-3.9-2.14-5.7-1.04-1.84,1.12-3.01,3.37-2.39,5.35.61,1.95,1.6,3.78,2.37,5.52,2.81.57,5.03.18,7.45-.75ZM196.48,271.9c1.15-2.68,2.16-5.13,1.73-8.04-2.67-1.54-5.38-1-8.02-.59-.69.11-1.64.87-1.83,1.51-.68,2.31-1.92,4.64-.65,7.41,1.54.09,2.97.27,4.4.22,1.43-.05,2.84-.32,4.36-.51ZM245.72,283.47c-2.18-1.61-3.9-2.74-6.41-1.56-.68,5.6-2.27,11.06-2.15,16.58,1.52.87,2.43.28,3.03-.63,2.79-4.29,4.74-8.92,5.54-14.39ZM184.69,318.08c-.46,5.07.17,6.42,3.53,7.33,2.63.71,5.32,1.09,8.08-.21.02-3.13-.07-6.02-2.58-8.52-2.86.44-5.75.89-9.04,1.4ZM175.84,264.29c-1.23,3.6-2.54,6.46-1.34,10.24,2.86-.62,5.58-.47,8.36-1.6.63-3,2.36-5.79,1.06-9.38-2.73.25-5.21.48-8.07.74ZM193.14,298.51c.52-2.74,1.13-5.01-.54-7.04-.74-.2-1.34-.44-1.96-.5-7.37-.71-8.59.6-7.48,8.07.03.18.27.32.65.75,2.89.05,6,.19,9.33-1.28ZM180.52,286.88c.21-3.09,2.46-5.98.68-9.52-2.93-.17-5.49.43-8.01,1.66-.84,2.77-1.22,5.35-.05,8.01,2.44.92,4.63.76,7.38-.14ZM192.79,251.07c-2.11,2.98-3.16,5.34-2.34,8.32,3.21.64,6.09.58,8.92-.32,1.39-2.34,2.33-4.6,1.77-7.46-.92-.19-1.71-.48-2.52-.51-1.89-.07-3.78-.02-5.83-.02ZM187.32,252.11c-7.6-1.47-9.25-.4-10.42,6.76-.06.37.19.8.29,1.2,7.07,1.6,8.97.47,10.22-6.14.11-.59-.06-1.23-.1-1.82ZM100.61,5.51c-.68,4.24-.61,4.96,1.15,7.55,2.69,3.95,6.39,6.47,11.25,8.04-2.42-6.73-6.88-12.36-12.4-15.59ZM219.46,265.46c-.53,1.12-.93,1.85-1.22,2.62-.29.79-.53,1.6-.69,2.43-.32,1.68.49,2.8,2.33,3.01,2.28.27,4.57.38,6.86.56,1.49-2.33,1.99-4.57.8-6.76-1.03-1.89-3.17-1.86-5.06-2-.82-.06-1.66.07-3.02.14ZM209.79,316.56c-3.62-.44-6.83-.88-9.89.66q-.13,3.93,1.86,7.16c3.2.58,6.01-.6,9.18-2.11-.39-1.94-.75-3.69-1.15-5.71ZM205.72,300.32c2.79,0,3.83-.76,4.13-2.31.36-1.89-.36-3.56-2.05-4.05-2.19-.65-4.44-1.16-6.7-1.52-2.22-.36-3.44.95-3.38,3.33.05,2.15.68,3.08,2.75,3.58,2.02.48,4.09.77,5.25.98ZM179.39,304.63c-1.15-.39-1.73-.76-2.31-.75-3.59.06-4.69,1.18-4.25,4.56.29,2.27.48,4.62,1.79,6.58q2.7.15,5.54-1.49c-.23-2.71-.49-5.62-.77-8.9ZM193.95,247.65c3.1.64,5.76.63,8.5-.02,1.54-2.09,2.53-4.27,2.17-6.87-6.55-1.66-7.99-.79-10.67,6.89ZM179.24,299.72c.19-1.35.42-2.37.46-3.41.23-5.16-.52-5.8-5.76-4.97-.35.06-.65.49-1.34,1.05-.08,1.55-.29,3.41-.24,5.27.1,3.66,1.18,4.35,4.82,3.2.59-.19,1.1-.6,2.07-1.14ZM172.03,265.78c-3.85-1.16-5.61-.65-6.42,1.92-.88,2.78-1.34,5.66-1.26,8.64,4.66-.45,5.54-.74,6.03-2.61.68-2.63,1.12-5.32,1.65-7.95ZM223.21,254.34c-.39.65-1.04,1.48-1.42,2.41-1.17,2.91-.52,4.22,2.59,4.95,1.35.31,2.8.18,4.06.24,3.24-6.6,2.37-8.06-4.34-7.92-.2,0-.39.14-.89.33ZM213.06,305.7c-1.28,1.8-.91,3.47-.43,5.09.39,1.3,1.27,2.24,2.7,2.33,1.26.07,2.54.09,3.78-.11,1.17-.19,2.34-2.01,2.1-3.55-.14-.87-.9-1.98-1.67-2.35-2.04-.98-4.23-1.76-6.47-1.41ZM213.71,296.04c-.81,4.67-.76,4.84,2.56,5.86,1.39.43,2.83.76,4.27.94,1.25.16,2.47-1.14,2.2-2.44-.19-.93-.69-2.13-1.43-2.55-2.18-1.22-4.51-2.28-7.6-1.81ZM127.83,43.54c-5.39-3.91-10.94-7.1-18.15-7.44.51,1,.64,1.69,1.05,1.99,5.1,3.69,11.33,3.99,17.1,5.45ZM162.43,269.21s.1-.67-.04-1.26c-.07-.32-.51-.68-.86-.79-.35-.11-.99-.06-1.15.17-2.32,3.3-3.93,6.91-4.31,10.97-.09,1.01,1.39,1.58,2.42,1.11,1.48-.68,2.28-1.87,2.61-3.37.46-2.06.81-4.14,1.32-6.82ZM163.65,302.95c2.86.46,4.34-.2,4.47-2.31.14-2.29-.02-4.62-.24-6.91-.11-1.14-2.35-1.62-3.14-.7-.52.61-1.1,1.4-1.14,2.14-.11,2.49,0,4.99.04,7.77ZM168.69,280.16c-4.7.8-5.17,1.17-5.26,4.76-.04,1.43.27,2.86.42,4.19,2.22.74,3.72.09,4.43-1.67.95-2.34,1.42-4.8.41-7.28ZM241.41,271.63c-1.29,3.21-1.53,4.28-.72,5.25,1.61,1.94,3.72,2.34,5.96,2.02.76-2.06.91-3.73-.31-5.16-1.27-1.49-2.85-2.47-4.93-2.11ZM175.69,252.98c-5.5,1.07-6.86,2.87-7.4,8.78,2.26.6,4.23.32,5.24-2.04.81-1.89,1.28-3.94,2.16-6.74ZM181.01,248.97c2.83.72,5.47-.27,7.88-1.26,1.69-.69,2.51-2.6,2.13-4.72-7.21,1.65-9.09,2.75-10.01,5.98ZM231.12,271.85c0,.21-.01.42,0,.63.13,2.07,1.61,3.45,3.68,3.44,1.38,0,2.14-1.1,2.15-3.26,0-.82-.07-1.68-.31-2.47-.34-1.12-2.43-2.22-3.66-1.93-1.16.27-1.63,1.2-1.75,2.33-.04.42-.08.83-.12,1.25ZM238.26,260.61c-.1-.52-.21-1.58-.54-2.56-.34-1.02-2.43-1.68-3.28-1.14-2.01,1.26-2.49,5.26-.64,6.62.76.56,2.09.99,2.85.7.72-.28,1.05-1.58,1.53-2.45.09-.17.03-.42.08-1.16ZM156.87,293.12c3.55-3.13,3.69-6.04,2.9-9.26-4.1.44-5.12,1.39-4.58,4.35.26,1.38.9,2.69,1.67,4.91ZM168.75,315.88q.65-4.97-1.09-9.64c-1.87-.57-2.81.34-2.89,2.09-.11,2.56.67,4.93,2.35,6.9.33.38,1.05.43,1.63.65ZM226.57,300.15c-.13,1.61-.34,2.43-.22,3.2.09.56.46,1.3.93,1.55,1.23.66,2.58,1.1,3.83,1.6,2.19-3.65,2.07-4.37-.8-5.4-.96-.34-1.98-.51-3.74-.95ZM243.54,260.6c-2,1.7-2.45,3.62-1.46,5.34.94,1.64,2.72,2.38,4.75,1.61-.47-4.25-.51-4.24-3.29-6.95ZM213.9,321.12c2.31.17,3.89-.73,5.28-2.09.59-.58.58-1.92-.04-2.21-1.6-.77-3.34-.9-4.81-.01-1.47.89-1.35,2.43-.44,4.31ZM227.56,245.29c-1,.13-2.17,2.28-1.97,3.63.17,1.18,1.9,1.96,3.69,1.62,1.21-.23,1.86-1.05,1.76-2.24-.14-1.61-2.07-3.21-3.48-3.02ZM180.96,322.97c.53-3.3,0-4.07-2.66-3.91-.7.04-1.36.66-2.03,1.02.39.62.64,1.51,1.2,1.79,1.06.54,2.29.74,3.49,1.09ZM159.91,303.68c-.76-2.49.81-5.5-1.57-8.06q-1.13,3.38,1.57,8.06ZM225.1,313.86c2-.5,3.31-1.14,3.49-3.5-.94-.38-1.95-.78-3.49-1.39v4.89ZM287.64,210.97c-1.43,1.49-2.18,2.28-3.2,3.34q3.42.04,3.2-3.34ZM237.13,252.41q-1.12-1.28-2.65-1.42,1.09,1.16,2.65,1.42ZM322.12,243.54c-.37-.32-.69-.7-1.1-.89-.13-.06-.75.51-.71.6.19.44.54.82.83,1.23.26-.25.52-.5.98-.94ZM236.62,44.03l-.49-.24c.1.24.19.47.29.71.07-.15.13-.31.2-.46Z"/>
  <path d="M236.06,207.74c.12-.29.25-.58.37-.87-.01.14.02.32-.04.43-.09.15-.27.25-.41.38,0,0,.07.06.07.06Z"/>
  <path d="M324.73,403.49c2.62,1.14,3.74,3,5.15,5.05q-3.04-.96-5.15-5.05Z"/>
  <path d="M319.04,375.87c.32.16.64.32.96.47-.37-.1-.74-.2-1.12-.29,0,0,.15-.18.15-.18Z"/>
  <path d="M227.12,135.01c-.62-.68-1.57-1.23-.61-3.13.25,1.49.39,2.34.54,3.19,0,0,.07-.06.07-.06Z"/>
  </g>
</svg>
